G04 Generated by Ultiboard 14.1 *
%FSLAX25Y25*%
%MOIN*%

%ADD10C,0.00001*%
%ADD11C,0.07087*%
%ADD12R,0.05118X0.05118*%
%ADD13C,0.01969*%
%ADD14R,0.03937X0.01969*%
%ADD15R,0.03937X0.02362*%
%ADD16C,0.05315*%
%ADD17C,0.02756*%
%ADD18R,0.02083X0.02083*%
%ADD19C,0.03917*%
%ADD20C,0.06334*%
%ADD21R,0.01969X0.03937*%
%ADD22R,0.06102X0.09055*%
%ADD23R,0.08465X0.08858*%
%ADD24R,0.02251X0.05834*%
%ADD25C,0.01666*%
%ADD26R,0.05834X0.02251*%
%ADD27C,0.05906*%
%ADD28P,0.05567X4*%
%ADD29O,0.02362X0.05118*%
%ADD30R,0.03543X0.03543*%
%ADD31C,0.02362*%
%ADD32R,0.01575X0.02756*%
%ADD33C,0.01181*%
%ADD34R,0.02559X0.06496*%
%ADD35R,0.02756X0.01575*%
%ADD36R,0.02362X0.06102*%
%ADD37R,0.01181X0.05906*%
%ADD38R,0.05906X0.01181*%
%ADD39C,0.09843*%


G04 ColorRGB FF00CC for the following layer *
%LNSolder Mask Top*%
%LPD*%
G54D10*
G54D11*
X221890Y15283D03*
X235669Y15283D03*
G54D12*
X234484Y208378D03*
X244484Y208378D03*
X192406Y208378D03*
X202406Y208378D03*
X192406Y135307D03*
X202406Y135307D03*
X234484Y135307D03*
X244484Y135307D03*
G54D13*
X231925Y205819D02*
X237043Y205819D01*
X237043Y210937D01*
X231925Y210937D01*
X231925Y205819D01*D02*
X241925Y205819D02*
X247043Y205819D01*
X247043Y210937D01*
X241925Y210937D01*
X241925Y205819D01*D02*
X189847Y205819D02*
X194965Y205819D01*
X194965Y210937D01*
X189847Y210937D01*
X189847Y205819D01*D02*
X199847Y205819D02*
X204965Y205819D01*
X204965Y210937D01*
X199847Y210937D01*
X199847Y205819D01*D02*
X189847Y132748D02*
X194965Y132748D01*
X194965Y137866D01*
X189847Y137866D01*
X189847Y132748D01*D02*
X199847Y132748D02*
X204965Y132748D01*
X204965Y137866D01*
X199847Y137866D01*
X199847Y132748D01*D02*
X231925Y132748D02*
X237043Y132748D01*
X237043Y137866D01*
X231925Y137866D01*
X231925Y132748D01*D02*
X241925Y132748D02*
X247043Y132748D01*
X247043Y137866D01*
X241925Y137866D01*
X241925Y132748D01*D02*
X31823Y51365D02*
X35759Y51365D01*
X35759Y53333D01*
X31823Y53333D01*
X31823Y51365D01*D02*
X31823Y59365D02*
X35759Y59365D01*
X35759Y61333D01*
X31823Y61333D01*
X31823Y59365D01*D02*
X8382Y59483D02*
X12318Y59483D01*
X12318Y61451D01*
X8382Y61451D01*
X8382Y59483D01*D02*
X8382Y51483D02*
X12318Y51483D01*
X12318Y53451D01*
X8382Y53451D01*
X8382Y51483D01*D02*
X16705Y51365D02*
X20641Y51365D01*
X20641Y53333D01*
X16705Y53333D01*
X16705Y51365D01*D02*
X16705Y59365D02*
X20641Y59365D01*
X20641Y61333D01*
X16705Y61333D01*
X16705Y59365D01*D02*
X24264Y51365D02*
X28200Y51365D01*
X28200Y53333D01*
X24264Y53333D01*
X24264Y51365D01*D02*
X24264Y59365D02*
X28200Y59365D01*
X28200Y61333D01*
X24264Y61333D01*
X24264Y59365D01*D02*
X227551Y271410D02*
X229519Y271410D01*
X229519Y275346D01*
X227551Y275346D01*
X227551Y271410D01*D02*
X235551Y271410D02*
X237519Y271410D01*
X237519Y275346D01*
X235551Y275346D01*
X235551Y271410D01*D02*
X219992Y271426D02*
X221960Y271426D01*
X221960Y275362D01*
X219992Y275362D01*
X219992Y271426D01*D02*
X211992Y271426D02*
X213960Y271426D01*
X213960Y275362D01*
X211992Y275362D01*
X211992Y271426D01*D02*
X71382Y51370D02*
X75318Y51370D01*
X75318Y53338D01*
X71382Y53338D01*
X71382Y51370D01*D02*
X71382Y59370D02*
X75318Y59370D01*
X75318Y61338D01*
X71382Y61338D01*
X71382Y59370D01*D02*
X63823Y51370D02*
X67759Y51370D01*
X67759Y53338D01*
X63823Y53338D01*
X63823Y51370D01*D02*
X63823Y59370D02*
X67759Y59370D01*
X67759Y61338D01*
X63823Y61338D01*
X63823Y59370D01*D02*
X47941Y51488D02*
X51877Y51488D01*
X51877Y53456D01*
X47941Y53456D01*
X47941Y51488D01*D02*
X47941Y59488D02*
X51877Y59488D01*
X51877Y61456D01*
X47941Y61456D01*
X47941Y59488D01*D02*
X65788Y66071D02*
X67756Y66071D01*
X67756Y70007D01*
X65788Y70007D01*
X65788Y66071D01*D02*
X57788Y66071D02*
X59756Y66071D01*
X59756Y70007D01*
X57788Y70007D01*
X57788Y66071D01*D02*
X245977Y19173D02*
X249913Y19173D01*
X249913Y21141D01*
X245977Y21141D01*
X245977Y19173D01*D02*
X245977Y27173D02*
X249913Y27173D01*
X249913Y29141D01*
X245977Y29141D01*
X245977Y27173D01*D02*
X245709Y11244D02*
X249645Y11244D01*
X249645Y13212D01*
X245709Y13212D01*
X245709Y11244D01*D02*
X245709Y3244D02*
X249645Y3244D01*
X249645Y5212D01*
X245709Y5212D01*
X245709Y3244D01*D02*
X17725Y66011D02*
X19693Y66011D01*
X19693Y69947D01*
X17725Y69947D01*
X17725Y66011D01*D02*
X25725Y66011D02*
X27693Y66011D01*
X27693Y69947D01*
X25725Y69947D01*
X25725Y66011D01*D02*
X88780Y235646D02*
X90748Y235646D01*
X90748Y239582D01*
X88780Y239582D01*
X88780Y235646D01*D02*
X96780Y235646D02*
X98748Y235646D01*
X98748Y239582D01*
X96780Y239582D01*
X96780Y235646D01*D02*
X105111Y244244D02*
X109047Y244244D01*
X109047Y246212D01*
X105111Y246212D01*
X105111Y244244D01*D02*
X105111Y252244D02*
X109047Y252244D01*
X109047Y254212D01*
X105111Y254212D01*
X105111Y252244D01*D02*
X95402Y255749D02*
X97370Y255749D01*
X97370Y259685D01*
X95402Y259685D01*
X95402Y255749D01*D02*
X87402Y255749D02*
X89370Y255749D01*
X89370Y259685D01*
X87402Y259685D01*
X87402Y255749D01*D02*
X130733Y283756D02*
X132701Y283756D01*
X132701Y287692D01*
X130733Y287692D01*
X130733Y283756D01*D02*
X122733Y283756D02*
X124701Y283756D01*
X124701Y287692D01*
X122733Y287692D01*
X122733Y283756D01*D02*
X241945Y251677D02*
X245881Y251677D01*
X245881Y253645D01*
X241945Y253645D01*
X241945Y251677D01*D02*
X241945Y243677D02*
X245881Y243677D01*
X245881Y245645D01*
X241945Y245645D01*
X241945Y243677D01*D02*
X72178Y217167D02*
X73570Y215775D01*
X76354Y218559D01*
X74962Y219951D01*
X72178Y217167D01*D02*
X82011Y212902D02*
X80619Y214294D01*
X77835Y211510D01*
X79227Y210118D01*
X82011Y212902D01*D02*
X96465Y245709D02*
X98433Y245709D01*
X98433Y249645D01*
X96465Y249645D01*
X96465Y245709D01*D02*
X88465Y245709D02*
X90433Y245709D01*
X90433Y249645D01*
X88465Y249645D01*
X88465Y245709D01*D02*
X127060Y51488D02*
X130996Y51488D01*
X130996Y53456D01*
X127060Y53456D01*
X127060Y51488D01*D02*
X127060Y59488D02*
X130996Y59488D01*
X130996Y61456D01*
X127060Y61456D01*
X127060Y59488D01*D02*
X135382Y51370D02*
X139318Y51370D01*
X139318Y53338D01*
X135382Y53338D01*
X135382Y51370D01*D02*
X135382Y59370D02*
X139318Y59370D01*
X139318Y61338D01*
X135382Y61338D01*
X135382Y59370D01*D02*
X142941Y51370D02*
X146877Y51370D01*
X146877Y53338D01*
X142941Y53338D01*
X142941Y51370D01*D02*
X142941Y59370D02*
X146877Y59370D01*
X146877Y61338D01*
X142941Y61338D01*
X142941Y59370D01*D02*
X150501Y51370D02*
X154437Y51370D01*
X154437Y53338D01*
X150501Y53338D01*
X150501Y51370D01*D02*
X150501Y59370D02*
X154437Y59370D01*
X154437Y61338D01*
X150501Y61338D01*
X150501Y59370D01*D02*
X171414Y88851D02*
X175350Y88851D01*
X175350Y90819D01*
X171414Y90819D01*
X171414Y88851D01*D02*
X171414Y80851D02*
X175350Y80851D01*
X175350Y82819D01*
X171414Y82819D01*
X171414Y80851D01*D02*
X166367Y59488D02*
X170303Y59488D01*
X170303Y61456D01*
X166367Y61456D01*
X166367Y59488D01*D02*
X166367Y51488D02*
X170303Y51488D01*
X170303Y53456D01*
X166367Y53456D01*
X166367Y51488D01*D02*
X174689Y59370D02*
X178625Y59370D01*
X178625Y61338D01*
X174689Y61338D01*
X174689Y59370D01*D02*
X174689Y51370D02*
X178625Y51370D01*
X178625Y53338D01*
X174689Y53338D01*
X174689Y51370D01*D02*
X182249Y51370D02*
X186185Y51370D01*
X186185Y53338D01*
X182249Y53338D01*
X182249Y51370D01*D02*
X182249Y59370D02*
X186185Y59370D01*
X186185Y61338D01*
X182249Y61338D01*
X182249Y59370D01*D02*
X189808Y51370D02*
X193744Y51370D01*
X193744Y53338D01*
X189808Y53338D01*
X189808Y51370D01*D02*
X189808Y59370D02*
X193744Y59370D01*
X193744Y61338D01*
X189808Y61338D01*
X189808Y59370D01*D02*
X87300Y59488D02*
X91236Y59488D01*
X91236Y61456D01*
X87300Y61456D01*
X87300Y59488D01*D02*
X87300Y51488D02*
X91236Y51488D01*
X91236Y53456D01*
X87300Y53456D01*
X87300Y51488D01*D02*
X95623Y51370D02*
X99559Y51370D01*
X99559Y53338D01*
X95623Y53338D01*
X95623Y51370D01*D02*
X95623Y59370D02*
X99559Y59370D01*
X99559Y61338D01*
X95623Y61338D01*
X95623Y59370D01*D02*
X103182Y59370D02*
X107118Y59370D01*
X107118Y61338D01*
X103182Y61338D01*
X103182Y59370D01*D02*
X103182Y51370D02*
X107118Y51370D01*
X107118Y53338D01*
X103182Y53338D01*
X103182Y51370D01*D02*
X110741Y59370D02*
X114677Y59370D01*
X114677Y61338D01*
X110741Y61338D01*
X110741Y59370D01*D02*
X110741Y51370D02*
X114677Y51370D01*
X114677Y53338D01*
X110741Y53338D01*
X110741Y51370D01*D02*
X92296Y81103D02*
X96232Y81103D01*
X96232Y83071D01*
X92296Y83071D01*
X92296Y81103D01*D02*
X92296Y89103D02*
X96232Y89103D01*
X96232Y91071D01*
X92296Y91071D01*
X92296Y89103D01*D02*
X38638Y96756D02*
X40606Y96756D01*
X40606Y100692D01*
X38638Y100692D01*
X38638Y96756D01*D02*
X46638Y96756D02*
X48606Y96756D01*
X48606Y100692D01*
X46638Y100692D01*
X46638Y96756D01*D02*
X52737Y90110D02*
X56673Y90110D01*
X56673Y92078D01*
X52737Y92078D01*
X52737Y90110D01*D02*
X52737Y82110D02*
X56673Y82110D01*
X56673Y84078D01*
X52737Y84078D01*
X52737Y82110D01*D02*
X16670Y94260D02*
X20606Y94260D01*
X20606Y96228D01*
X16670Y96228D01*
X16670Y94260D01*D02*
X16670Y86260D02*
X20606Y86260D01*
X20606Y88228D01*
X16670Y88228D01*
X16670Y86260D01*D02*
X29296Y90229D02*
X33232Y90229D01*
X33232Y92197D01*
X29296Y92197D01*
X29296Y90229D01*D02*
X29296Y82229D02*
X33232Y82229D01*
X33232Y84197D01*
X29296Y84197D01*
X29296Y82229D01*D02*
X37619Y90110D02*
X41555Y90110D01*
X41555Y92078D01*
X37619Y92078D01*
X37619Y90110D01*D02*
X37619Y82110D02*
X41555Y82110D01*
X41555Y84078D01*
X37619Y84078D01*
X37619Y82110D01*D02*
X45178Y82110D02*
X49114Y82110D01*
X49114Y84078D01*
X45178Y84078D01*
X45178Y82110D01*D02*
X45178Y90110D02*
X49114Y90110D01*
X49114Y92078D01*
X45178Y92078D01*
X45178Y90110D01*D02*
X68855Y89221D02*
X72791Y89221D01*
X72791Y91189D01*
X68855Y91189D01*
X68855Y89221D01*D02*
X68855Y81221D02*
X72791Y81221D01*
X72791Y83189D01*
X68855Y83189D01*
X68855Y81221D01*D02*
X77178Y81103D02*
X81114Y81103D01*
X81114Y83071D01*
X77178Y83071D01*
X77178Y81103D01*D02*
X77178Y89103D02*
X81114Y89103D01*
X81114Y91071D01*
X77178Y91071D01*
X77178Y89103D01*D02*
X84737Y89103D02*
X88673Y89103D01*
X88673Y91071D01*
X84737Y91071D01*
X84737Y89103D01*D02*
X84737Y81103D02*
X88673Y81103D01*
X88673Y83071D01*
X84737Y83071D01*
X84737Y81103D01*D02*
X96642Y66016D02*
X98610Y66016D01*
X98610Y69952D01*
X96642Y69952D01*
X96642Y66016D01*D02*
X104642Y66016D02*
X106610Y66016D01*
X106610Y69952D01*
X104642Y69952D01*
X104642Y66016D01*D02*
X108414Y80969D02*
X112350Y80969D01*
X112350Y82937D01*
X108414Y82937D01*
X108414Y80969D01*D02*
X108414Y88969D02*
X112350Y88969D01*
X112350Y90937D01*
X108414Y90937D01*
X108414Y88969D01*D02*
X116737Y88851D02*
X120673Y88851D01*
X120673Y90819D01*
X116737Y90819D01*
X116737Y88851D01*D02*
X116737Y80851D02*
X120673Y80851D01*
X120673Y82819D01*
X116737Y82819D01*
X116737Y80851D01*D02*
X124296Y80851D02*
X128232Y80851D01*
X128232Y82819D01*
X124296Y82819D01*
X124296Y80851D01*D02*
X124296Y88851D02*
X128232Y88851D01*
X128232Y90819D01*
X124296Y90819D01*
X124296Y88851D01*D02*
X147973Y88969D02*
X151909Y88969D01*
X151909Y90937D01*
X147973Y90937D01*
X147973Y88969D01*D02*
X147973Y80969D02*
X151909Y80969D01*
X151909Y82937D01*
X147973Y82937D01*
X147973Y80969D01*D02*
X156296Y88851D02*
X160232Y88851D01*
X160232Y90819D01*
X156296Y90819D01*
X156296Y88851D01*D02*
X156296Y80851D02*
X160232Y80851D01*
X160232Y82819D01*
X156296Y82819D01*
X156296Y80851D01*D02*
X163855Y88851D02*
X167791Y88851D01*
X167791Y90819D01*
X163855Y90819D01*
X163855Y88851D01*D02*
X163855Y80851D02*
X167791Y80851D01*
X167791Y82819D01*
X163855Y82819D01*
X163855Y80851D01*D02*
X183709Y66016D02*
X185677Y66016D01*
X185677Y69952D01*
X183709Y69952D01*
X183709Y66016D01*D02*
X175709Y66016D02*
X177677Y66016D01*
X177677Y69952D01*
X175709Y69952D01*
X175709Y66016D01*D02*
X131855Y88851D02*
X135791Y88851D01*
X135791Y90819D01*
X131855Y90819D01*
X131855Y88851D01*D02*
X131855Y80851D02*
X135791Y80851D01*
X135791Y82819D01*
X131855Y82819D01*
X131855Y80851D01*D02*
X12622Y112434D02*
X14590Y112434D01*
X14590Y116370D01*
X12622Y116370D01*
X12622Y112434D01*D02*
X4622Y112434D02*
X6590Y112434D01*
X6590Y116370D01*
X4622Y116370D01*
X4622Y112434D01*D02*
X12622Y104371D02*
X14590Y104371D01*
X14590Y108307D01*
X12622Y108307D01*
X12622Y104371D01*D02*
X4622Y104371D02*
X6590Y104371D01*
X6590Y108307D01*
X4622Y108307D01*
X4622Y104371D01*D02*
X136402Y66016D02*
X138370Y66016D01*
X138370Y69952D01*
X136402Y69952D01*
X136402Y66016D01*D02*
X144402Y66016D02*
X146370Y66016D01*
X146370Y69952D01*
X144402Y69952D01*
X144402Y66016D01*D02*
X55489Y59425D02*
X59425Y59425D01*
X59425Y61393D01*
X55489Y61393D01*
X55489Y59425D01*D02*
X55489Y51425D02*
X59425Y51425D01*
X59425Y53393D01*
X55489Y53393D01*
X55489Y51425D01*D02*
X119993Y265985D02*
X123929Y265985D01*
X123929Y267953D01*
X119993Y267953D01*
X119993Y265985D01*D02*
X119993Y257985D02*
X123929Y257985D01*
X123929Y259953D01*
X119993Y259953D01*
X119993Y257985D01*D02*
X111678Y258040D02*
X115614Y258040D01*
X115614Y260008D01*
X111678Y260008D01*
X111678Y258040D01*D02*
X111678Y266040D02*
X115614Y266040D01*
X115614Y268008D01*
X111678Y268008D01*
X111678Y266040D01*D02*
X128056Y257985D02*
X131992Y257985D01*
X131992Y259953D01*
X128056Y259953D01*
X128056Y257985D01*D02*
X128056Y265985D02*
X131992Y265985D01*
X131992Y267953D01*
X128056Y267953D01*
X128056Y265985D01*D02*
X194812Y311429D02*
X198748Y311429D01*
X198748Y313397D01*
X194812Y313397D01*
X194812Y311429D01*D02*
X194812Y319429D02*
X198748Y319429D01*
X198748Y321397D01*
X194812Y321397D01*
X194812Y319429D01*D02*
X245205Y311429D02*
X249141Y311429D01*
X249141Y313397D01*
X245205Y313397D01*
X245205Y311429D01*D02*
X245205Y319429D02*
X249141Y319429D01*
X249141Y321397D01*
X245205Y321397D01*
X245205Y319429D01*D02*
X143662Y319520D02*
X147598Y319520D01*
X147598Y321488D01*
X143662Y321488D01*
X143662Y319520D01*D02*
X143662Y311520D02*
X147598Y311520D01*
X147598Y313488D01*
X143662Y313488D01*
X143662Y311520D01*D02*
X87402Y264063D02*
X89370Y264063D01*
X89370Y267999D01*
X87402Y267999D01*
X87402Y264063D01*D02*
X95402Y264063D02*
X97370Y264063D01*
X97370Y267999D01*
X95402Y267999D01*
X95402Y264063D01*D02*
X101095Y258040D02*
X105031Y258040D01*
X105031Y260008D01*
X101095Y260008D01*
X101095Y258040D01*D02*
X101095Y266040D02*
X105031Y266040D01*
X105031Y268008D01*
X101095Y268008D01*
X101095Y266040D01*D02*
X8536Y270835D02*
X10504Y270835D01*
X10504Y274771D01*
X8536Y274771D01*
X8536Y270835D01*D02*
X16536Y270835D02*
X18504Y270835D01*
X18504Y274771D01*
X16536Y274771D01*
X16536Y270835D01*D02*
X27517Y270835D02*
X29485Y270835D01*
X29485Y274771D01*
X27517Y274771D01*
X27517Y270835D01*D02*
X35517Y270835D02*
X37485Y270835D01*
X37485Y274771D01*
X35517Y274771D01*
X35517Y270835D01*D02*
X46499Y270835D02*
X48467Y270835D01*
X48467Y274771D01*
X46499Y274771D01*
X46499Y270835D01*D02*
X54499Y270835D02*
X56467Y270835D01*
X56467Y274771D01*
X54499Y274771D01*
X54499Y270835D01*D02*
X73481Y270835D02*
X75449Y270835D01*
X75449Y274771D01*
X73481Y274771D01*
X73481Y270835D01*D02*
X65481Y270835D02*
X67449Y270835D01*
X67449Y274771D01*
X65481Y274771D01*
X65481Y270835D01*D02*
X148449Y156559D02*
X152385Y156559D01*
X152385Y158527D01*
X148449Y158527D01*
X148449Y156559D01*D02*
X148449Y164559D02*
X152385Y164559D01*
X152385Y166527D01*
X148449Y166527D01*
X148449Y164559D01*D02*
X232371Y243362D02*
X236307Y243362D01*
X236307Y245330D01*
X232371Y245330D01*
X232371Y243362D01*D02*
X232371Y235362D02*
X236307Y235362D01*
X236307Y237330D01*
X232371Y237330D01*
X232371Y235362D01*D02*
X194575Y226544D02*
X198511Y226544D01*
X198511Y228512D01*
X194575Y228512D01*
X194575Y226544D01*D02*
X194575Y234544D02*
X198511Y234544D01*
X198511Y236512D01*
X194575Y236512D01*
X194575Y234544D01*D02*
X165315Y95497D02*
X167283Y95497D01*
X167283Y99433D01*
X165315Y99433D01*
X165315Y95497D01*D02*
X157315Y95497D02*
X159283Y95497D01*
X159283Y99433D01*
X157315Y99433D01*
X157315Y95497D01*D02*
X117756Y95497D02*
X119724Y95497D01*
X119724Y99433D01*
X117756Y99433D01*
X117756Y95497D01*D02*
X125756Y95497D02*
X127724Y95497D01*
X127724Y99433D01*
X125756Y99433D01*
X125756Y95497D01*D02*
X78197Y95749D02*
X80165Y95749D01*
X80165Y99685D01*
X78197Y99685D01*
X78197Y95749D01*D02*
X86197Y95749D02*
X88165Y95749D01*
X88165Y99685D01*
X86197Y99685D01*
X86197Y95749D01*D02*
G54D14*
X33791Y52349D03*
X33791Y60349D03*
X10350Y60467D03*
X10350Y52467D03*
X18673Y52349D03*
X18673Y60349D03*
X26232Y52349D03*
X26232Y60349D03*
X73350Y52354D03*
X73350Y60354D03*
X65791Y52354D03*
X65791Y60354D03*
X49909Y52472D03*
X49909Y60472D03*
X247945Y20157D03*
X247945Y28157D03*
X247677Y12228D03*
X247677Y4228D03*
X107079Y245228D03*
X107079Y253228D03*
X243913Y252661D03*
X243913Y244661D03*
X129028Y52472D03*
X129028Y60472D03*
X137350Y52354D03*
X137350Y60354D03*
X144909Y52354D03*
X144909Y60354D03*
X152469Y52354D03*
X152469Y60354D03*
X173382Y89835D03*
X173382Y81835D03*
X168335Y60472D03*
X168335Y52472D03*
X176657Y60354D03*
X176657Y52354D03*
X184217Y52354D03*
X184217Y60354D03*
X191776Y52354D03*
X191776Y60354D03*
X89268Y60472D03*
X89268Y52472D03*
X97591Y52354D03*
X97591Y60354D03*
X105150Y60354D03*
X105150Y52354D03*
X112709Y60354D03*
X112709Y52354D03*
X94264Y82087D03*
X94264Y90087D03*
X54705Y91094D03*
X54705Y83094D03*
X18638Y95244D03*
X18638Y87244D03*
X31264Y91213D03*
X31264Y83213D03*
X39587Y91094D03*
X39587Y83094D03*
X47146Y83094D03*
X47146Y91094D03*
X70823Y90205D03*
X70823Y82205D03*
X79146Y82087D03*
X79146Y90087D03*
X86705Y90087D03*
X86705Y82087D03*
X110382Y81953D03*
X110382Y89953D03*
X118705Y89835D03*
X118705Y81835D03*
X126264Y81835D03*
X126264Y89835D03*
X149941Y89953D03*
X149941Y81953D03*
X158264Y89835D03*
X158264Y81835D03*
X165823Y89835D03*
X165823Y81835D03*
X133823Y89835D03*
X133823Y81835D03*
X57457Y60409D03*
X57457Y52409D03*
X121961Y266969D03*
X121961Y258969D03*
X113646Y259024D03*
X113646Y267024D03*
X130024Y258969D03*
X130024Y266969D03*
X196780Y312413D03*
X196780Y320413D03*
X247173Y312413D03*
X247173Y320413D03*
X145630Y320504D03*
X145630Y312504D03*
X103063Y259024D03*
X103063Y267024D03*
X150417Y157543D03*
X150417Y165543D03*
X234339Y244346D03*
X234339Y236346D03*
X196543Y227528D03*
X196543Y235528D03*
G54D15*
X7567Y72606D03*
X7567Y80087D03*
X16622Y76346D03*
X220984Y257047D03*
X230039Y260787D03*
X220984Y264528D03*
X43870Y66756D03*
X43870Y74236D03*
X52925Y70496D03*
X122988Y74236D03*
X122988Y66756D03*
X132043Y70496D03*
X143902Y103717D03*
X143902Y96236D03*
X152957Y99976D03*
X162295Y74236D03*
X162295Y66756D03*
X171350Y70496D03*
X64783Y103969D03*
X64783Y96488D03*
X73839Y100228D03*
X25224Y97496D03*
X25224Y104976D03*
X34280Y101236D03*
X92283Y70496D03*
X83228Y66756D03*
X83228Y74236D03*
X104343Y103717D03*
X104343Y96236D03*
X113398Y99976D03*
G54D16*
X171087Y146898D03*
X171087Y136898D03*
X176087Y141898D03*
G54D17*
X145630Y307898D03*
X130844Y270939D03*
X124472Y270866D03*
X154961Y310173D03*
X153449Y298835D03*
X235591Y251213D03*
X60724Y272630D03*
X200819Y266079D03*
X114646Y283213D03*
X230047Y146898D03*
X224756Y219717D03*
X94992Y305386D03*
X81193Y157287D03*
X91213Y157228D03*
X92976Y147906D03*
X43087Y114142D03*
X145126Y242654D03*
X137071Y214173D03*
X128000Y214173D03*
X156220Y218457D03*
X83150Y241386D03*
X114394Y196535D03*
X122457Y194772D03*
X69795Y211402D03*
X167559Y208630D03*
X162772Y216189D03*
X84661Y174362D03*
X100283Y167811D03*
X77354Y165543D03*
X94236Y184693D03*
X168819Y191244D03*
X20157Y109102D03*
X76850Y131024D03*
X27969Y76094D03*
X127748Y164535D03*
X153449Y75591D03*
X113638Y75591D03*
X73575Y75339D03*
X201071Y74331D03*
X113386Y166551D03*
X51449Y98724D03*
X61228Y76850D03*
X137827Y167307D03*
X184189Y76094D03*
X137124Y183486D03*
X154961Y178394D03*
X126740Y103559D03*
X97008Y215181D03*
X85417Y217197D03*
X186709Y235087D03*
X147150Y126488D03*
X152189Y131528D03*
X2520Y84157D03*
X162772Y62992D03*
X42583Y62992D03*
X82646Y62740D03*
X122709Y62992D03*
X133543Y163528D03*
X137575Y163528D03*
X87181Y103055D03*
X147906Y177134D03*
X150929Y179906D03*
X147906Y182677D03*
X101795Y74583D03*
X152945Y186709D03*
X165039Y102803D03*
X155213Y189984D03*
X157732Y192756D03*
X119685Y177134D03*
X91213Y179150D03*
X138331Y208378D03*
X117165Y313449D03*
X121449Y216189D03*
X120189Y212913D03*
X187213Y252724D03*
X148661Y288252D03*
X219465Y239118D03*
X216189Y239118D03*
X224756Y215937D03*
X46362Y114142D03*
X34268Y209134D03*
X36535Y211906D03*
X70803Y196283D03*
X117417Y283213D03*
X232567Y149417D03*
X112630Y248189D03*
X112630Y245165D03*
X145638Y230803D03*
X135307Y199811D03*
X132031Y198551D03*
X76346Y185953D03*
X128756Y199811D03*
X54929Y147654D03*
X54929Y142614D03*
X54929Y137575D03*
X54929Y132535D03*
X61228Y162520D03*
X32756Y169071D03*
X33764Y127496D03*
X76346Y190236D03*
X54425Y152693D03*
X55685Y198047D03*
X110110Y270866D03*
X80126Y272882D03*
X121953Y248441D03*
X150677Y254992D03*
X45858Y264063D03*
X26709Y262047D03*
X55937Y193008D03*
X55937Y187969D03*
X55937Y182929D03*
X55937Y177890D03*
X13102Y84157D03*
X17134Y102299D03*
X197795Y307402D03*
X141606Y74079D03*
X133291Y177134D03*
X127748Y161260D03*
X136567Y177134D03*
X129764Y183433D03*
X135055Y191496D03*
X120945Y184189D03*
X149921Y200315D03*
X114646Y184189D03*
X162268Y196535D03*
X71811Y120441D03*
X68283Y120441D03*
X175622Y181921D03*
X102299Y210898D03*
X175622Y203339D03*
X100283Y172094D03*
X88441Y210898D03*
X72819Y205102D03*
X235339Y255496D03*
X23937Y91465D03*
X225512Y72315D03*
X225512Y75843D03*
X119937Y245165D03*
X116409Y245165D03*
X136567Y275150D03*
X140094Y275150D03*
X136567Y285228D03*
X136567Y288504D03*
X153449Y302362D03*
X88441Y271370D03*
X181921Y84409D03*
X14362Y47874D03*
X165795Y85165D03*
X93228Y108598D03*
X101543Y108598D03*
X121197Y108598D03*
X131528Y108598D03*
X140850Y108598D03*
X151937Y108598D03*
X164535Y77606D03*
X6047Y56189D03*
X84661Y77606D03*
X124976Y77606D03*
X45102Y78110D03*
X116409Y190488D03*
X153197Y204850D03*
X159244Y282457D03*
X160504Y288252D03*
G54D18*
X126740Y227276D03*
X34826Y227276D03*
X79118Y227276D03*
G54D19*
X125699Y226235D02*
X127781Y226235D01*
X127781Y228317D01*
X125699Y228317D01*
X125699Y226235D01*D02*
X33785Y226235D02*
X35867Y226235D01*
X35867Y228317D01*
X33785Y228317D01*
X33785Y226235D01*D02*
X78077Y226235D02*
X80159Y226235D01*
X80159Y228317D01*
X78077Y228317D01*
X78077Y226235D01*D02*
G54D20*
X136740Y227276D03*
X44826Y227276D03*
X54826Y227276D03*
X64826Y227276D03*
X99118Y227276D03*
X89118Y227276D03*
X109118Y227276D03*
G54D21*
X228535Y273378D03*
X236535Y273378D03*
X220976Y273394D03*
X212976Y273394D03*
X66772Y68039D03*
X58772Y68039D03*
X18709Y67979D03*
X26709Y67979D03*
X89764Y237614D03*
X97764Y237614D03*
X96386Y257717D03*
X88386Y257717D03*
X131717Y285724D03*
X123717Y285724D03*
X97449Y247677D03*
X89449Y247677D03*
X39622Y98724D03*
X47622Y98724D03*
X97626Y67984D03*
X105626Y67984D03*
X184693Y67984D03*
X176693Y67984D03*
X13606Y114402D03*
X5606Y114402D03*
X13606Y106339D03*
X5606Y106339D03*
X137386Y67984D03*
X145386Y67984D03*
X88386Y266031D03*
X96386Y266031D03*
X9520Y272803D03*
X17520Y272803D03*
X28501Y272803D03*
X36501Y272803D03*
X47483Y272803D03*
X55483Y272803D03*
X74465Y272803D03*
X66465Y272803D03*
X166299Y97465D03*
X158299Y97465D03*
X118740Y97465D03*
X126740Y97465D03*
X79181Y97717D03*
X87181Y97717D03*
G54D22*
X238110Y38283D03*
X238110Y55213D03*
G54D23*
X222236Y37835D03*
X222236Y55157D03*
X17272Y243972D03*
X17272Y261295D03*
X36421Y243972D03*
X36421Y261295D03*
X55571Y243972D03*
X55571Y261295D03*
X74720Y243972D03*
X74720Y261295D03*
G54D24*
X225303Y65646D03*
X236303Y65646D03*
G54D25*
X224178Y62729D02*
X226428Y62729D01*
X226428Y68563D01*
X224178Y68563D01*
X224178Y62729D01*D02*
X235178Y62729D02*
X237428Y62729D01*
X237428Y68563D01*
X235178Y68563D01*
X235178Y62729D01*D02*
X158091Y175714D02*
X163925Y175714D01*
X163925Y177964D01*
X158091Y177964D01*
X158091Y175714D01*D02*
X158091Y164714D02*
X163925Y164714D01*
X163925Y166964D01*
X158091Y166964D01*
X158091Y164714D01*D02*
X175225Y167903D02*
X181059Y167903D01*
X181059Y170153D01*
X175225Y170153D01*
X175225Y167903D01*D02*
X175225Y156903D02*
X181059Y156903D01*
X181059Y159153D01*
X175225Y159153D01*
X175225Y156903D01*D02*
G54D26*
X161008Y176839D03*
X161008Y165839D03*
X178142Y169028D03*
X178142Y158028D03*
G54D27*
X7087Y16888D03*
X17087Y16888D03*
X27087Y16888D03*
X37087Y16888D03*
X47087Y16888D03*
X57087Y16888D03*
X67087Y16888D03*
X77087Y16888D03*
X87087Y16888D03*
X97087Y16888D03*
X117087Y16888D03*
X107087Y16888D03*
X127087Y16888D03*
X137087Y16888D03*
X147087Y16888D03*
X157087Y16888D03*
X167087Y16888D03*
X177087Y16888D03*
X187087Y16888D03*
X197087Y16888D03*
X7087Y36888D03*
X17087Y36888D03*
X27087Y36888D03*
X37087Y36888D03*
X47087Y36888D03*
X57087Y36888D03*
X67087Y36888D03*
X77087Y36888D03*
X87087Y36888D03*
X97087Y36888D03*
X107087Y36888D03*
X117087Y36888D03*
X127087Y36888D03*
X137087Y36888D03*
X147087Y36888D03*
X157087Y36888D03*
X167087Y36888D03*
X177087Y36888D03*
X187087Y36888D03*
X197087Y36888D03*
X186320Y309773D03*
X176320Y309773D03*
X166320Y309773D03*
X186320Y289773D03*
X176320Y289773D03*
X166320Y289773D03*
X86694Y310003D03*
X76703Y310003D03*
X66712Y310003D03*
X56721Y309964D03*
X36740Y309964D03*
X46731Y309964D03*
X26749Y309964D03*
X16758Y309964D03*
X86694Y290003D03*
X76703Y290003D03*
X66712Y290003D03*
X56721Y289964D03*
X46731Y289964D03*
X36740Y289964D03*
X26749Y289964D03*
X16758Y289964D03*
X237316Y309773D03*
X227316Y309773D03*
X217316Y309773D03*
X237316Y289773D03*
X227316Y289773D03*
X217316Y289773D03*
X13181Y126740D03*
X13181Y136740D03*
X23181Y136740D03*
X13181Y146740D03*
X23181Y146740D03*
X13181Y156740D03*
X23181Y156740D03*
X13181Y166740D03*
X23181Y166740D03*
X13181Y176740D03*
X23181Y176740D03*
X13181Y186740D03*
X23181Y186740D03*
X13181Y196740D03*
X23181Y196740D03*
X13181Y206740D03*
X23181Y206740D03*
X13181Y216740D03*
X23181Y216740D03*
X132787Y151685D03*
X112787Y151685D03*
G54D28*
X73570Y217167D03*
X80619Y212902D03*
G54D29*
X4827Y88087D03*
X12307Y88087D03*
X8567Y96354D03*
G54D30*
X23181Y126740D03*
G54D31*
X21410Y124969D02*
X24952Y124969D01*
X24952Y128511D01*
X21410Y128511D01*
X21410Y124969D01*D02*
X108346Y259528D03*
G54D32*
X79622Y169575D03*
X86173Y169575D03*
X103055Y172094D03*
X109606Y172094D03*
X142362Y204850D03*
X148913Y204850D03*
G54D33*
X78835Y168197D02*
X80409Y168197D01*
X80409Y170953D01*
X78835Y170953D01*
X78835Y168197D01*D02*
X85386Y168197D02*
X86960Y168197D01*
X86960Y170953D01*
X85386Y170953D01*
X85386Y168197D01*D02*
X107724Y204315D02*
X110480Y204315D01*
X110480Y205889D01*
X107724Y205889D01*
X107724Y204315D01*D02*
X107724Y210867D02*
X110480Y210867D01*
X110480Y212441D01*
X107724Y212441D01*
X107724Y210867D01*D02*
X102268Y170716D02*
X103842Y170716D01*
X103842Y173472D01*
X102268Y173472D01*
X102268Y170716D01*D02*
X108819Y170716D02*
X110393Y170716D01*
X110393Y173472D01*
X108819Y173472D01*
X108819Y170716D01*D02*
X141992Y164756D02*
X144748Y164756D01*
X144748Y166330D01*
X141992Y166330D01*
X141992Y164756D01*D02*
X141992Y171307D02*
X144748Y171307D01*
X144748Y172881D01*
X141992Y172881D01*
X141992Y171307D01*D02*
X141575Y203472D02*
X143149Y203472D01*
X143149Y206228D01*
X141575Y206228D01*
X141575Y203472D01*D02*
X148126Y203472D02*
X149700Y203472D01*
X149700Y206228D01*
X148126Y206228D01*
X148126Y203472D01*D02*
X225898Y237323D02*
X228654Y237323D01*
X228654Y238897D01*
X225898Y238897D01*
X225898Y237323D01*D02*
X225898Y243874D02*
X228654Y243874D01*
X228654Y245448D01*
X225898Y245448D01*
X225898Y243874D01*D02*
G54D34*
X81193Y141000D03*
X91193Y141000D03*
X86193Y141000D03*
X96193Y141000D03*
X81193Y161866D03*
X91193Y161866D03*
X86193Y161866D03*
X96193Y161866D03*
G54D35*
X109102Y205102D03*
X109102Y211654D03*
X143370Y165543D03*
X143370Y172094D03*
X227276Y238110D03*
X227276Y244661D03*
G54D36*
X205413Y227732D03*
X210413Y227732D03*
X215413Y227732D03*
X220413Y227732D03*
X205413Y248992D03*
X210413Y248992D03*
X215413Y248992D03*
X220413Y248992D03*
G54D37*
X120876Y171872D03*
X118907Y171872D03*
X116939Y171872D03*
X114970Y171872D03*
X128750Y171872D03*
X126781Y171872D03*
X124813Y171872D03*
X122844Y171872D03*
X136624Y171872D03*
X134656Y171872D03*
X132687Y171872D03*
X130719Y171872D03*
X120876Y204943D03*
X118907Y204943D03*
X114970Y204943D03*
X116939Y204943D03*
X128750Y204943D03*
X126781Y204943D03*
X124813Y204943D03*
X122844Y204943D03*
X136624Y204943D03*
X134656Y204943D03*
X132687Y204943D03*
X130719Y204943D03*
G54D38*
X109262Y177581D03*
X109262Y179549D03*
X142333Y177581D03*
X142333Y179549D03*
X109262Y181518D03*
X109262Y187423D03*
X109262Y183486D03*
X109262Y185455D03*
X142333Y181518D03*
X142333Y187423D03*
X142333Y183486D03*
X142333Y185455D03*
X109262Y189392D03*
X109262Y191360D03*
X109262Y193329D03*
X109262Y195297D03*
X142333Y189392D03*
X142333Y191360D03*
X142333Y193329D03*
X142333Y195297D03*
X109262Y197266D03*
X109262Y199234D03*
X142333Y197266D03*
X142333Y199234D03*
G54D39*
X174866Y245921D03*
X110614Y133039D03*
X202583Y112378D03*

M02*
