G04 Generated by Ultiboard 14.1 *
%FSLAX25Y25*%
%MOIN*%

%ADD10C,0.00001*%
%ADD11C,0.00800*%
%ADD12C,0.00787*%
%ADD13C,0.00197*%
%ADD14C,0.00612*%
%ADD15C,0.00984*%
%ADD16C,0.00004*%
%ADD17C,0.01969*%
%ADD18C,0.01959*%


G04 ColorRGB FFFF00 for the following layer *
%LNSilkscreen Top*%
%LPD*%
G54D10*
G54D11*
X215000Y28669D02*
X215000Y1898D01*
X242669Y2283D02*
X242669Y28283D01*
X242472Y28890D02*
X215008Y28890D01*
X215000Y1898D02*
X242472Y1929D01*
X184992Y128535D02*
X251921Y128535D01*
X251921Y215150D01*
X184992Y215150D01*
X184992Y128535D01*
X38535Y58676D02*
X37748Y59460D01*
X37748Y60244D01*
X38535Y61028D01*
X40898Y61028D01*
X41685Y60244D01*
X41685Y59460D01*
X40898Y58676D01*
X41291Y57108D02*
X41685Y56716D01*
X41685Y55932D01*
X40898Y55148D01*
X40110Y55148D01*
X39717Y55540D01*
X39323Y55148D01*
X38535Y55148D01*
X37748Y55932D01*
X37748Y56716D01*
X38142Y57108D01*
X39717Y56716D02*
X39717Y55540D01*
X37748Y52797D02*
X39717Y52797D01*
X40898Y51621D01*
X41685Y51621D01*
X41685Y53973D01*
X40898Y53973D01*
X3164Y44491D02*
X3164Y48428D01*
X4731Y48428D01*
X5515Y47640D01*
X5515Y47246D01*
X4731Y46459D01*
X3164Y46459D01*
X3556Y46459D02*
X5515Y44491D01*
X8651Y48428D02*
X7475Y48428D01*
X6691Y47640D01*
X6691Y46065D01*
X6691Y45278D01*
X7475Y44491D01*
X8259Y44491D01*
X9043Y45278D01*
X9043Y46065D01*
X8259Y46853D01*
X7475Y46853D01*
X6691Y46065D01*
X11395Y44491D02*
X11395Y46459D01*
X12570Y47640D01*
X12570Y48428D01*
X10219Y48428D01*
X10219Y47640D01*
X14250Y44743D02*
X14250Y48680D01*
X15818Y48680D01*
X16602Y47892D01*
X16602Y47498D01*
X15818Y46711D01*
X14250Y46711D01*
X14642Y46711D02*
X16602Y44743D01*
X19738Y48680D02*
X18562Y48680D01*
X17778Y47892D01*
X17778Y46317D01*
X17778Y45530D01*
X18562Y44743D01*
X19346Y44743D01*
X20129Y45530D01*
X20129Y46317D01*
X19346Y47105D01*
X18562Y47105D01*
X17778Y46317D01*
X22873Y44743D02*
X22089Y44743D01*
X21305Y45530D01*
X21305Y46317D01*
X21697Y46711D01*
X21305Y47105D01*
X21305Y47892D01*
X22089Y48680D01*
X22873Y48680D01*
X23657Y47892D01*
X23657Y47105D01*
X23265Y46711D01*
X23657Y46317D01*
X23657Y45530D01*
X22873Y44743D01*
X21697Y46711D02*
X23265Y46711D01*
X25085Y44743D02*
X25085Y48680D01*
X26653Y48680D01*
X27437Y47892D01*
X27437Y47498D01*
X26653Y46711D01*
X25085Y46711D01*
X25477Y46711D02*
X27437Y44743D01*
X29788Y44743D02*
X29788Y46711D01*
X30964Y47892D01*
X30964Y48680D01*
X28612Y48680D01*
X28612Y47892D01*
X32140Y47892D02*
X32924Y48680D01*
X33708Y48680D01*
X34492Y47892D01*
X34492Y45530D01*
X33708Y44743D01*
X32924Y44743D01*
X32140Y45530D01*
X32140Y47892D01*
X34492Y47892D02*
X32140Y45530D01*
X166642Y130683D02*
X166642Y128302D01*
X167753Y127707D01*
X168864Y127707D01*
X169976Y128302D01*
X169976Y130683D01*
X172198Y130088D02*
X173309Y130683D01*
X173309Y127707D01*
X171642Y127707D02*
X174976Y127707D01*
X165187Y134346D02*
X165867Y133860D01*
X166588Y133436D01*
X167342Y133076D01*
X168125Y132783D01*
X168931Y132560D01*
X169753Y132408D01*
X170585Y132327D01*
X171421Y132320D01*
X172255Y132386D01*
X173079Y132524D01*
X173889Y132733D01*
X174677Y133012D01*
X175437Y133359D01*
X176165Y133771D01*
X176854Y134244D01*
X177499Y134776D01*
X178095Y135362D01*
X178638Y135998D01*
X179124Y136678D01*
X179548Y137399D01*
X179908Y138153D01*
X180201Y138936D01*
X180424Y139742D01*
X180577Y140564D01*
X180657Y141396D01*
X180664Y142232D01*
X180599Y143066D01*
X180461Y143890D01*
X180251Y144700D01*
X179972Y145488D01*
X179625Y146248D01*
X179214Y146976D01*
X178740Y147665D01*
X178208Y148310D01*
X177622Y148906D01*
X176987Y149449D01*
X176306Y149935D01*
X175586Y150359D01*
X174831Y150719D01*
X174048Y151012D01*
X173242Y151235D01*
X172420Y151388D01*
X171588Y151468D01*
X170752Y151475D01*
X169919Y151410D01*
X169094Y151272D01*
X168285Y151062D01*
X167497Y150783D01*
X166736Y150436D01*
X166008Y150025D01*
X165319Y149551D01*
X165187Y149449D01*
X165087Y134398D02*
X165087Y149398D01*
X163087Y143898D02*
X163087Y149898D01*
X162087Y133898D02*
X161087Y134898D01*
X163087Y133898D02*
X162087Y133898D01*
X164087Y134898D02*
X163087Y133898D01*
X164087Y137898D02*
X163087Y136898D01*
X164087Y138898D02*
X164087Y137898D01*
X163087Y136898D02*
X162087Y136898D01*
X163087Y136898D02*
X164087Y135898D01*
X164087Y134898D01*
X162087Y139898D02*
X163087Y139898D01*
X161087Y138898D02*
X162087Y139898D01*
X163087Y139898D02*
X164087Y138898D01*
X164087Y143898D02*
X162087Y143898D01*
X163087Y149898D02*
X162087Y148898D01*
X184087Y142898D02*
X181087Y139898D01*
X181087Y138898D02*
X184087Y138898D01*
X182087Y144898D02*
X183087Y144898D01*
X184087Y143898D01*
X181087Y139898D02*
X181087Y138898D01*
X181087Y143898D02*
X182087Y144898D01*
X184087Y143898D02*
X184087Y142898D01*
X122296Y218597D02*
X123407Y218002D01*
X124518Y218002D01*
X125629Y218597D01*
X125629Y220978D01*
X127851Y220383D02*
X128962Y220978D01*
X128962Y218002D01*
X127296Y218002D02*
X130629Y218002D01*
X141740Y222276D02*
X121740Y222276D01*
X129240Y232276D02*
X121740Y232276D01*
X121740Y222276D01*
X141740Y232276D02*
X132573Y232276D01*
X130907Y232276D02*
X130907Y228942D01*
X130073Y231442D02*
X130907Y232276D01*
X141740Y232276D02*
X141740Y222276D01*
X229164Y265110D02*
X229164Y269047D01*
X230731Y269047D01*
X231515Y268260D01*
X231515Y267866D01*
X230731Y267079D01*
X229164Y267079D01*
X229556Y267079D02*
X231515Y265110D01*
X233083Y268260D02*
X233867Y269047D01*
X233867Y265110D01*
X232691Y265110D02*
X235043Y265110D01*
X238570Y269047D02*
X236219Y269047D01*
X236219Y267472D01*
X237787Y267472D01*
X238570Y266685D01*
X238570Y265898D01*
X237787Y265110D01*
X236219Y265110D01*
X220348Y281661D02*
X220348Y277724D01*
X218780Y277724D01*
X217997Y278512D01*
X217997Y278906D01*
X218780Y279693D01*
X220348Y279693D01*
X219956Y279693D02*
X217997Y281661D01*
X216429Y278512D02*
X215645Y277724D01*
X215645Y281661D01*
X216821Y281661D02*
X214469Y281661D01*
X212901Y278512D02*
X212117Y277724D01*
X212117Y281661D01*
X213293Y281661D02*
X210941Y281661D01*
X77307Y61033D02*
X81244Y61033D01*
X81244Y59465D01*
X80457Y58682D01*
X80063Y58682D01*
X79276Y59465D01*
X79276Y61033D01*
X79276Y60641D02*
X77307Y58682D01*
X78882Y55154D02*
X78882Y57506D01*
X81244Y55546D01*
X77307Y55546D01*
X77307Y55938D02*
X77307Y55154D01*
X81244Y52018D02*
X81244Y53194D01*
X80457Y53978D01*
X78882Y53978D01*
X78094Y53978D01*
X77307Y53194D01*
X77307Y52410D01*
X78094Y51626D01*
X78882Y51626D01*
X79669Y52410D01*
X79669Y53194D01*
X78882Y53978D01*
X66996Y45535D02*
X66212Y44748D01*
X65428Y44748D01*
X64644Y45535D01*
X64644Y47898D01*
X65428Y48685D01*
X66212Y48685D01*
X66996Y47898D01*
X68563Y48291D02*
X68955Y48685D01*
X69739Y48685D01*
X70523Y47898D01*
X70523Y47110D01*
X70131Y46717D01*
X70523Y46323D01*
X70523Y45535D01*
X69739Y44748D01*
X68955Y44748D01*
X68563Y45142D01*
X68955Y46717D02*
X70131Y46717D01*
X72091Y47898D02*
X72875Y48685D01*
X72875Y44748D01*
X71699Y44748D02*
X74051Y44748D01*
X42723Y44496D02*
X42723Y48433D01*
X44290Y48433D01*
X45074Y47646D01*
X45074Y47252D01*
X44290Y46465D01*
X42723Y46465D01*
X43115Y46465D02*
X45074Y44496D01*
X48602Y46071D02*
X46250Y46071D01*
X48210Y48433D01*
X48210Y44496D01*
X47818Y44496D02*
X48602Y44496D01*
X50170Y48039D02*
X50562Y48433D01*
X51346Y48433D01*
X52129Y47646D01*
X52129Y46858D01*
X51738Y46465D01*
X52129Y46071D01*
X52129Y45283D01*
X51346Y44496D01*
X50562Y44496D01*
X50170Y44890D01*
X50562Y46465D02*
X51738Y46465D01*
X74378Y63616D02*
X70441Y63616D01*
X70441Y65184D01*
X71228Y65968D01*
X71622Y65968D01*
X72409Y65184D01*
X72409Y63616D01*
X72409Y64008D02*
X74378Y65968D01*
X72803Y69496D02*
X72803Y67144D01*
X70441Y69104D01*
X74378Y69104D01*
X74378Y68712D02*
X74378Y69496D01*
X70441Y73023D02*
X70441Y70671D01*
X72016Y70671D01*
X72016Y72239D01*
X72803Y73023D01*
X73591Y73023D01*
X74378Y72239D01*
X74378Y70671D01*
X241685Y19038D02*
X237748Y19038D01*
X237748Y20605D01*
X238535Y21389D01*
X238929Y21389D01*
X239717Y20605D01*
X239717Y19038D01*
X239717Y19430D02*
X241685Y21389D01*
X238142Y22957D02*
X237748Y23349D01*
X237748Y24133D01*
X238535Y24917D01*
X239323Y24917D01*
X239717Y24525D01*
X240110Y24917D01*
X240898Y24917D01*
X241685Y24133D01*
X241685Y23349D01*
X241291Y22957D01*
X239717Y23349D02*
X239717Y24525D01*
X237748Y28444D02*
X237748Y26093D01*
X239323Y26093D01*
X239323Y27661D01*
X240110Y28444D01*
X240898Y28444D01*
X241685Y27661D01*
X241685Y26093D01*
X233603Y75354D02*
X234387Y76142D01*
X235171Y76142D01*
X235955Y75354D01*
X235955Y72992D01*
X235171Y72205D01*
X234387Y72205D01*
X233603Y72992D01*
X232427Y72992D02*
X231643Y72205D01*
X230860Y72205D01*
X230076Y72992D01*
X230076Y73386D01*
X232427Y76142D01*
X230076Y76142D01*
X230076Y75748D01*
X166441Y168455D02*
X170378Y168455D01*
X170378Y170806D01*
X167228Y172374D02*
X166441Y173158D01*
X170378Y173158D01*
X170378Y171982D02*
X170378Y174334D01*
X234723Y10693D02*
X234723Y6756D01*
X237074Y6756D01*
X238250Y6756D02*
X239818Y6756D01*
X240602Y7543D01*
X240602Y9906D01*
X239818Y10693D01*
X238250Y10693D01*
X238642Y10693D02*
X238642Y6756D01*
X242170Y9906D02*
X242954Y10693D01*
X242954Y6756D01*
X241778Y6756D02*
X244129Y6756D01*
X211687Y48613D02*
X2487Y48613D01*
X202079Y2268D02*
X202087Y48613D01*
X212157Y2016D02*
X212087Y48613D01*
X2016Y48378D02*
X2016Y2016D01*
X15258Y71260D02*
X15258Y75197D01*
X16826Y75197D01*
X17610Y74409D01*
X17610Y74016D01*
X16826Y73228D01*
X15258Y73228D01*
X15650Y73228D02*
X17610Y71260D01*
X20745Y75197D02*
X19570Y75197D01*
X18786Y74409D01*
X18786Y72835D01*
X18786Y72047D01*
X19570Y71260D01*
X20353Y71260D01*
X21137Y72047D01*
X21137Y72835D01*
X20353Y73622D01*
X19570Y73622D01*
X18786Y72835D01*
X22313Y72047D02*
X23097Y71260D01*
X23881Y71260D01*
X24665Y72047D01*
X24665Y73622D01*
X24665Y74409D01*
X23881Y75197D01*
X23097Y75197D01*
X22313Y74409D01*
X22313Y73622D01*
X23097Y72835D01*
X23881Y72835D01*
X24665Y73622D01*
X94516Y233591D02*
X95300Y234378D01*
X96084Y234378D01*
X96868Y233591D01*
X96868Y231228D01*
X96084Y230441D01*
X95300Y230441D01*
X94516Y231228D01*
X93340Y233591D02*
X92556Y234378D01*
X91773Y234378D01*
X90989Y233591D01*
X90989Y232016D01*
X90989Y231228D01*
X91773Y230441D01*
X92556Y230441D01*
X93340Y231228D01*
X93340Y232016D01*
X92556Y232803D01*
X91773Y232803D01*
X90989Y232016D01*
X100772Y251493D02*
X99984Y252276D01*
X99984Y253060D01*
X100772Y253844D01*
X103134Y253844D01*
X103921Y253060D01*
X103921Y252276D01*
X103134Y251493D01*
X101559Y247965D02*
X101559Y250317D01*
X103921Y248357D01*
X99984Y248357D01*
X99984Y248749D02*
X99984Y247965D01*
X101559Y244437D02*
X101559Y246789D01*
X103921Y244829D01*
X99984Y244829D01*
X99984Y245221D02*
X99984Y244437D01*
X94012Y253748D02*
X94796Y254535D01*
X95580Y254535D01*
X96364Y253748D01*
X96364Y251386D01*
X95580Y250598D01*
X94796Y250598D01*
X94012Y251386D01*
X92836Y251386D02*
X92052Y250598D01*
X91269Y250598D01*
X90485Y251386D01*
X90485Y251780D01*
X92836Y254535D01*
X90485Y254535D01*
X90485Y254142D01*
X86957Y250598D02*
X89309Y250598D01*
X89309Y252173D01*
X87741Y252173D01*
X86957Y252961D01*
X86957Y253748D01*
X87741Y254535D01*
X89309Y254535D01*
X125704Y276898D02*
X124920Y276110D01*
X124136Y276110D01*
X123353Y276898D01*
X123353Y279260D01*
X124136Y280047D01*
X124920Y280047D01*
X125704Y279260D01*
X126880Y279260D02*
X127664Y280047D01*
X128448Y280047D01*
X129232Y279260D01*
X129232Y278866D01*
X126880Y276110D01*
X129232Y276110D01*
X129232Y276504D01*
X130408Y279260D02*
X131192Y280047D01*
X131976Y280047D01*
X132759Y279260D01*
X132759Y278866D01*
X130408Y276110D01*
X132759Y276110D01*
X132759Y276504D01*
X151161Y278435D02*
X191319Y278435D01*
X191244Y323276D01*
X161265Y278608D02*
X161260Y323276D01*
X151181Y323528D02*
X151161Y278435D01*
X2016Y278334D02*
X91693Y278413D01*
X91717Y324031D01*
X11591Y324283D02*
X11591Y279090D01*
X1512Y324535D02*
X1614Y278791D01*
X202157Y278435D02*
X242315Y278435D01*
X202079Y323528D02*
X202157Y278435D01*
X212261Y278608D02*
X212157Y323276D01*
X242315Y278435D02*
X242394Y323528D01*
X244961Y256140D02*
X241024Y256140D01*
X241024Y257708D01*
X241811Y258492D01*
X242205Y258492D01*
X242992Y257708D01*
X242992Y256140D01*
X242992Y256532D02*
X244961Y258492D01*
X241417Y260059D02*
X241024Y260451D01*
X241024Y261235D01*
X241811Y262019D01*
X242598Y262019D01*
X242992Y261627D01*
X243386Y262019D01*
X244173Y262019D01*
X244961Y261235D01*
X244961Y260451D01*
X244567Y260059D01*
X242992Y260451D02*
X242992Y261627D01*
X241024Y265155D02*
X241024Y263979D01*
X241811Y263195D01*
X243386Y263195D01*
X244173Y263195D01*
X244961Y263979D01*
X244961Y264763D01*
X244173Y265547D01*
X243386Y265547D01*
X242598Y264763D01*
X242598Y263979D01*
X243386Y263195D01*
X18949Y226613D02*
X20060Y226018D01*
X21171Y226018D01*
X22283Y226613D01*
X22283Y228994D01*
X24505Y228696D02*
X25060Y228994D01*
X26171Y228994D01*
X27283Y228398D01*
X27283Y227803D01*
X26727Y227506D01*
X27283Y227208D01*
X27283Y226613D01*
X26171Y226018D01*
X25060Y226018D01*
X24505Y226315D01*
X25060Y227506D02*
X26727Y227506D01*
X69826Y222276D02*
X29826Y222276D01*
X69826Y232276D02*
X39826Y232276D01*
X29826Y232276D02*
X29826Y222276D01*
X37326Y232276D02*
X29826Y232276D01*
X38993Y232276D02*
X38993Y228942D01*
X38160Y231442D02*
X38993Y232276D01*
X69826Y232276D02*
X69826Y222276D01*
X78376Y208694D02*
X75592Y205910D01*
X74483Y207018D01*
X74486Y208130D01*
X74764Y208408D01*
X75875Y208410D01*
X76984Y207302D01*
X76707Y207579D02*
X76713Y210357D01*
X73105Y211737D02*
X74768Y210075D01*
X71712Y209790D01*
X74496Y212574D01*
X74773Y212297D02*
X74218Y212851D01*
X90508Y209983D02*
X91619Y209388D01*
X92731Y209388D01*
X93842Y209983D01*
X93842Y212364D01*
X98842Y210578D02*
X95508Y210578D01*
X98286Y212364D01*
X98286Y209388D01*
X97731Y209388D02*
X98842Y209388D01*
X114118Y222276D02*
X74118Y222276D01*
X114118Y232276D02*
X84118Y232276D01*
X74118Y232276D02*
X74118Y222276D01*
X81618Y232276D02*
X74118Y232276D01*
X83285Y232276D02*
X83285Y228942D01*
X82451Y231442D02*
X83285Y232276D01*
X114118Y232276D02*
X114118Y222276D01*
X86061Y240583D02*
X86061Y244520D01*
X87629Y244520D01*
X88413Y243732D01*
X88413Y243339D01*
X87629Y242551D01*
X86061Y242551D01*
X86453Y242551D02*
X88413Y240583D01*
X89589Y243732D02*
X90373Y244520D01*
X91157Y244520D01*
X91941Y243732D01*
X91941Y243339D01*
X89589Y240583D01*
X91941Y240583D01*
X91941Y240976D01*
X94292Y240583D02*
X94292Y242551D01*
X95468Y243732D01*
X95468Y244520D01*
X93116Y244520D01*
X93116Y243732D01*
X121841Y44496D02*
X121841Y48433D01*
X123409Y48433D01*
X124192Y47646D01*
X124192Y47252D01*
X123409Y46465D01*
X121841Y46465D01*
X122233Y46465D02*
X124192Y44496D01*
X127720Y48433D02*
X125368Y48433D01*
X125368Y46858D01*
X126936Y46858D01*
X127720Y46071D01*
X127720Y45283D01*
X126936Y44496D01*
X125368Y44496D01*
X131248Y48433D02*
X128896Y48433D01*
X128896Y46858D01*
X130464Y46858D01*
X131248Y46071D01*
X131248Y45283D01*
X130464Y44496D01*
X128896Y44496D01*
X132927Y44748D02*
X132927Y48685D01*
X134495Y48685D01*
X135279Y47898D01*
X135279Y47504D01*
X134495Y46717D01*
X132927Y46717D01*
X133319Y46717D02*
X135279Y44748D01*
X138807Y48685D02*
X136455Y48685D01*
X136455Y47110D01*
X138023Y47110D01*
X138807Y46323D01*
X138807Y45535D01*
X138023Y44748D01*
X136455Y44748D01*
X141942Y48685D02*
X140766Y48685D01*
X139983Y47898D01*
X139983Y46323D01*
X139983Y45535D01*
X140766Y44748D01*
X141550Y44748D01*
X142334Y45535D01*
X142334Y46323D01*
X141550Y47110D01*
X140766Y47110D01*
X139983Y46323D01*
X143762Y44748D02*
X143762Y48685D01*
X145330Y48685D01*
X146114Y47898D01*
X146114Y47504D01*
X145330Y46717D01*
X143762Y46717D01*
X144154Y46717D02*
X146114Y44748D01*
X149641Y48685D02*
X147290Y48685D01*
X147290Y47110D01*
X148857Y47110D01*
X149641Y46323D01*
X149641Y45535D01*
X148857Y44748D01*
X147290Y44748D01*
X152385Y44748D02*
X151601Y44748D01*
X150817Y45535D01*
X150817Y46323D01*
X151209Y46717D01*
X150817Y47110D01*
X150817Y47898D01*
X151601Y48685D01*
X152385Y48685D01*
X153169Y47898D01*
X153169Y47110D01*
X152777Y46717D01*
X153169Y46323D01*
X153169Y45535D01*
X152385Y44748D01*
X151209Y46717D02*
X152777Y46717D01*
X157213Y58682D02*
X156425Y59465D01*
X156425Y60249D01*
X157213Y61033D01*
X159575Y61033D01*
X160362Y60249D01*
X160362Y59465D01*
X159575Y58682D01*
X159969Y57114D02*
X160362Y56722D01*
X160362Y55938D01*
X159575Y55154D01*
X158787Y55154D01*
X158394Y55546D01*
X158000Y55154D01*
X157213Y55154D01*
X156425Y55938D01*
X156425Y56722D01*
X156819Y57114D01*
X158394Y56722D02*
X158394Y55546D01*
X158000Y51626D02*
X158000Y53978D01*
X160362Y52018D01*
X156425Y52018D01*
X156425Y52410D02*
X156425Y51626D01*
X178126Y88162D02*
X177339Y88946D01*
X177339Y89730D01*
X178126Y90514D01*
X180488Y90514D01*
X181276Y89730D01*
X181276Y88946D01*
X180488Y88162D01*
X180882Y86594D02*
X181276Y86202D01*
X181276Y85418D01*
X180488Y84634D01*
X179701Y84634D01*
X179307Y85026D01*
X178913Y84634D01*
X178126Y84634D01*
X177339Y85418D01*
X177339Y86202D01*
X177732Y86594D01*
X179307Y86202D02*
X179307Y85026D01*
X181276Y81107D02*
X181276Y83458D01*
X179701Y83458D01*
X179701Y81891D01*
X178913Y81107D01*
X178126Y81107D01*
X177339Y81891D01*
X177339Y83458D01*
X161148Y44496D02*
X161148Y48433D01*
X162716Y48433D01*
X163500Y47646D01*
X163500Y47252D01*
X162716Y46465D01*
X161148Y46465D01*
X161540Y46465D02*
X163500Y44496D01*
X164675Y45283D02*
X165459Y44496D01*
X166243Y44496D01*
X167027Y45283D01*
X167027Y46858D01*
X167027Y47646D01*
X166243Y48433D01*
X165459Y48433D01*
X164675Y47646D01*
X164675Y46858D01*
X165459Y46071D01*
X166243Y46071D01*
X167027Y46858D01*
X168595Y47646D02*
X169379Y48433D01*
X169379Y44496D01*
X168203Y44496D02*
X170555Y44496D01*
X172234Y44748D02*
X172234Y48685D01*
X173802Y48685D01*
X174586Y47898D01*
X174586Y47504D01*
X173802Y46717D01*
X172234Y46717D01*
X172626Y46717D02*
X174586Y44748D01*
X175762Y45535D02*
X176546Y44748D01*
X177330Y44748D01*
X178114Y45535D01*
X178114Y47110D01*
X178114Y47898D01*
X177330Y48685D01*
X176546Y48685D01*
X175762Y47898D01*
X175762Y47110D01*
X176546Y46323D01*
X177330Y46323D01*
X178114Y47110D01*
X179290Y47898D02*
X180073Y48685D01*
X180857Y48685D01*
X181641Y47898D01*
X181641Y47504D01*
X179290Y44748D01*
X181641Y44748D01*
X181641Y45142D01*
X183069Y44748D02*
X183069Y48685D01*
X184637Y48685D01*
X185421Y47898D01*
X185421Y47504D01*
X184637Y46717D01*
X183069Y46717D01*
X183461Y46717D02*
X185421Y44748D01*
X186597Y45535D02*
X187381Y44748D01*
X188164Y44748D01*
X188948Y45535D01*
X188948Y47110D01*
X188948Y47898D01*
X188164Y48685D01*
X187381Y48685D01*
X186597Y47898D01*
X186597Y47110D01*
X187381Y46323D01*
X188164Y46323D01*
X188948Y47110D01*
X192476Y46323D02*
X190124Y46323D01*
X192084Y48685D01*
X192084Y44748D01*
X191692Y44748D02*
X192476Y44748D01*
X196520Y58682D02*
X195732Y59465D01*
X195732Y60249D01*
X196520Y61033D01*
X198882Y61033D01*
X199669Y60249D01*
X199669Y59465D01*
X198882Y58682D01*
X197307Y55154D02*
X197307Y57506D01*
X199669Y55546D01*
X195732Y55546D01*
X195732Y55938D02*
X195732Y55154D01*
X199276Y53586D02*
X199669Y53194D01*
X199669Y52410D01*
X198882Y51626D01*
X198094Y51626D01*
X197701Y52018D01*
X197307Y51626D01*
X196520Y51626D01*
X195732Y52410D01*
X195732Y53194D01*
X196126Y53586D01*
X197701Y53194D02*
X197701Y52018D01*
X82081Y44496D02*
X82081Y48433D01*
X83649Y48433D01*
X84433Y47646D01*
X84433Y47252D01*
X83649Y46465D01*
X82081Y46465D01*
X82473Y46465D02*
X84433Y44496D01*
X86784Y44496D02*
X86784Y46465D01*
X87960Y47646D01*
X87960Y48433D01*
X85608Y48433D01*
X85608Y47646D01*
X89136Y45283D02*
X89920Y44496D01*
X90704Y44496D01*
X91488Y45283D01*
X91488Y46858D01*
X91488Y47646D01*
X90704Y48433D01*
X89920Y48433D01*
X89136Y47646D01*
X89136Y46858D01*
X89920Y46071D01*
X90704Y46071D01*
X91488Y46858D01*
X93168Y44748D02*
X93168Y48685D01*
X94735Y48685D01*
X95519Y47898D01*
X95519Y47504D01*
X94735Y46717D01*
X93168Y46717D01*
X93559Y46717D02*
X95519Y44748D01*
X98263Y44748D02*
X97479Y44748D01*
X96695Y45535D01*
X96695Y46323D01*
X97087Y46717D01*
X96695Y47110D01*
X96695Y47898D01*
X97479Y48685D01*
X98263Y48685D01*
X99047Y47898D01*
X99047Y47110D01*
X98655Y46717D01*
X99047Y46323D01*
X99047Y45535D01*
X98263Y44748D01*
X97087Y46717D02*
X98655Y46717D01*
X100223Y47898D02*
X101007Y48685D01*
X101790Y48685D01*
X102574Y47898D01*
X102574Y45535D01*
X101790Y44748D01*
X101007Y44748D01*
X100223Y45535D01*
X100223Y47898D01*
X102574Y47898D02*
X100223Y45535D01*
X104002Y44748D02*
X104002Y48685D01*
X105570Y48685D01*
X106354Y47898D01*
X106354Y47504D01*
X105570Y46717D01*
X104002Y46717D01*
X104394Y46717D02*
X106354Y44748D01*
X109098Y44748D02*
X108314Y44748D01*
X107530Y45535D01*
X107530Y46323D01*
X107922Y46717D01*
X107530Y47110D01*
X107530Y47898D01*
X108314Y48685D01*
X109098Y48685D01*
X109881Y47898D01*
X109881Y47110D01*
X109490Y46717D01*
X109881Y46323D01*
X109881Y45535D01*
X109098Y44748D01*
X107922Y46717D02*
X109490Y46717D01*
X111057Y47898D02*
X111841Y48685D01*
X112625Y48685D01*
X113409Y47898D01*
X113409Y47504D01*
X111057Y44748D01*
X113409Y44748D01*
X113409Y45142D01*
X117453Y58682D02*
X116665Y59465D01*
X116665Y60249D01*
X117453Y61033D01*
X119815Y61033D01*
X120602Y60249D01*
X120602Y59465D01*
X119815Y58682D01*
X118240Y55154D02*
X118240Y57506D01*
X120602Y55546D01*
X116665Y55546D01*
X116665Y55938D02*
X116665Y55154D01*
X119815Y53978D02*
X120602Y53194D01*
X120602Y52410D01*
X119815Y51626D01*
X117453Y51626D01*
X116665Y52410D01*
X116665Y53194D01*
X117453Y53978D01*
X119815Y53978D01*
X119815Y51626D02*
X117453Y53978D01*
X99008Y88414D02*
X98220Y89198D01*
X98220Y89982D01*
X99008Y90766D01*
X101370Y90766D01*
X102157Y89982D01*
X102157Y89198D01*
X101370Y88414D01*
X101764Y86846D02*
X102157Y86454D01*
X102157Y85670D01*
X101370Y84886D01*
X100583Y84886D01*
X100189Y85278D01*
X99795Y84886D01*
X99008Y84886D01*
X98220Y85670D01*
X98220Y86454D01*
X98614Y86846D01*
X100189Y86454D02*
X100189Y85278D01*
X101370Y83710D02*
X102157Y82927D01*
X102157Y82143D01*
X101370Y81359D01*
X100976Y81359D01*
X98220Y83710D01*
X98220Y81359D01*
X98614Y81359D01*
X38187Y103929D02*
X38187Y107866D01*
X39755Y107866D01*
X40539Y107079D01*
X40539Y106685D01*
X39755Y105898D01*
X38187Y105898D01*
X38579Y105898D02*
X40539Y103929D01*
X42891Y103929D02*
X42891Y105898D01*
X44066Y107079D01*
X44066Y107866D01*
X41715Y107866D01*
X41715Y107079D01*
X45634Y107472D02*
X46026Y107866D01*
X46810Y107866D01*
X47594Y107079D01*
X47594Y106291D01*
X47202Y105898D01*
X47594Y105504D01*
X47594Y104717D01*
X46810Y103929D01*
X46026Y103929D01*
X45634Y104323D01*
X46026Y105898D02*
X47202Y105898D01*
X59449Y89422D02*
X58661Y90206D01*
X58661Y90990D01*
X59449Y91773D01*
X61811Y91773D01*
X62598Y90990D01*
X62598Y90206D01*
X61811Y89422D01*
X62205Y87854D02*
X62598Y87462D01*
X62598Y86678D01*
X61811Y85894D01*
X61024Y85894D01*
X60630Y86286D01*
X60236Y85894D01*
X59449Y85894D01*
X58661Y86678D01*
X58661Y87462D01*
X59055Y87854D01*
X60630Y87462D02*
X60630Y86286D01*
X58661Y83150D02*
X58661Y83934D01*
X59449Y84718D01*
X60236Y84718D01*
X60630Y84326D01*
X61024Y84718D01*
X61811Y84718D01*
X62598Y83934D01*
X62598Y83150D01*
X61811Y82367D01*
X61024Y82367D01*
X60630Y82759D01*
X60236Y82367D01*
X59449Y82367D01*
X58661Y83150D01*
X60630Y84326D02*
X60630Y82759D01*
X16331Y84773D02*
X20268Y84773D01*
X20268Y83206D01*
X19480Y82422D01*
X19087Y82422D01*
X18299Y83206D01*
X18299Y84773D01*
X18299Y84381D02*
X16331Y82422D01*
X20268Y78894D02*
X20268Y81246D01*
X18693Y81246D01*
X18693Y79678D01*
X17906Y78894D01*
X17118Y78894D01*
X16331Y79678D01*
X16331Y81246D01*
X22565Y76299D02*
X22565Y80236D01*
X24133Y80236D01*
X24917Y79449D01*
X24917Y79055D01*
X24133Y78268D01*
X22565Y78268D01*
X22957Y78268D02*
X24917Y76299D01*
X27269Y76299D02*
X27269Y78268D01*
X28444Y79449D01*
X28444Y80236D01*
X26093Y80236D01*
X26093Y79449D01*
X30012Y79449D02*
X30796Y80236D01*
X30796Y76299D01*
X29620Y76299D02*
X31972Y76299D01*
X32896Y76047D02*
X32896Y79984D01*
X34464Y79984D01*
X35248Y79197D01*
X35248Y78803D01*
X34464Y78016D01*
X32896Y78016D01*
X33288Y78016D02*
X35248Y76047D01*
X37599Y76047D02*
X37599Y78016D01*
X38775Y79197D01*
X38775Y79984D01*
X36423Y79984D01*
X36423Y79197D01*
X39951Y79197D02*
X40735Y79984D01*
X41519Y79984D01*
X42303Y79197D01*
X42303Y78803D01*
X39951Y76047D01*
X42303Y76047D01*
X42303Y76441D01*
X49274Y76551D02*
X49274Y80488D01*
X50842Y80488D01*
X51626Y79701D01*
X51626Y79307D01*
X50842Y78520D01*
X49274Y78520D01*
X49666Y78520D02*
X51626Y76551D01*
X53977Y76551D02*
X53977Y78520D01*
X55153Y79701D01*
X55153Y80488D01*
X52801Y80488D01*
X52801Y79701D01*
X58681Y78126D02*
X56329Y78126D01*
X58289Y80488D01*
X58289Y76551D01*
X57897Y76551D02*
X58681Y76551D01*
X61116Y75795D02*
X61116Y79732D01*
X62684Y79732D01*
X63468Y78945D01*
X63468Y78551D01*
X62684Y77764D01*
X61116Y77764D01*
X61508Y77764D02*
X63468Y75795D01*
X66996Y77370D02*
X64644Y77370D01*
X66604Y79732D01*
X66604Y75795D01*
X66212Y75795D02*
X66996Y75795D01*
X69347Y75795D02*
X69347Y77764D01*
X70523Y78945D01*
X70523Y79732D01*
X68171Y79732D01*
X68171Y78945D01*
X71699Y76047D02*
X71699Y79984D01*
X73267Y79984D01*
X74051Y79197D01*
X74051Y78803D01*
X73267Y78016D01*
X71699Y78016D01*
X72091Y78016D02*
X74051Y76047D01*
X77578Y77622D02*
X75227Y77622D01*
X77186Y79984D01*
X77186Y76047D01*
X76794Y76047D02*
X77578Y76047D01*
X80322Y76047D02*
X79538Y76047D01*
X78754Y76835D01*
X78754Y77622D01*
X79146Y78016D01*
X78754Y78409D01*
X78754Y79197D01*
X79538Y79984D01*
X80322Y79984D01*
X81106Y79197D01*
X81106Y78409D01*
X80714Y78016D01*
X81106Y77622D01*
X81106Y76835D01*
X80322Y76047D01*
X79146Y78016D02*
X80714Y78016D01*
X88833Y75795D02*
X88833Y79732D01*
X90401Y79732D01*
X91185Y78945D01*
X91185Y78551D01*
X90401Y77764D01*
X88833Y77764D01*
X89225Y77764D02*
X91185Y75795D01*
X94712Y79732D02*
X92360Y79732D01*
X92360Y78157D01*
X93928Y78157D01*
X94712Y77370D01*
X94712Y76583D01*
X93928Y75795D01*
X92360Y75795D01*
X95888Y78945D02*
X96672Y79732D01*
X97456Y79732D01*
X98240Y78945D01*
X98240Y76583D01*
X97456Y75795D01*
X96672Y75795D01*
X95888Y76583D01*
X95888Y78945D01*
X98240Y78945D02*
X95888Y76583D01*
X95888Y71512D02*
X95888Y75449D01*
X97456Y75449D01*
X98240Y74661D01*
X98240Y74268D01*
X97456Y73480D01*
X95888Y73480D01*
X96280Y73480D02*
X98240Y71512D01*
X100983Y71512D02*
X100199Y71512D01*
X99416Y72299D01*
X99416Y73087D01*
X99808Y73480D01*
X99416Y73874D01*
X99416Y74661D01*
X100199Y75449D01*
X100983Y75449D01*
X101767Y74661D01*
X101767Y73874D01*
X101375Y73480D01*
X101767Y73087D01*
X101767Y72299D01*
X100983Y71512D01*
X99808Y73480D02*
X101375Y73480D01*
X103335Y74661D02*
X104119Y75449D01*
X104119Y71512D01*
X102943Y71512D02*
X105295Y71512D01*
X101431Y75795D02*
X101431Y79732D01*
X102999Y79732D01*
X103783Y78945D01*
X103783Y78551D01*
X102999Y77764D01*
X101431Y77764D01*
X101823Y77764D02*
X103783Y75795D01*
X106527Y75795D02*
X105743Y75795D01*
X104959Y76583D01*
X104959Y77370D01*
X105351Y77764D01*
X104959Y78157D01*
X104959Y78945D01*
X105743Y79732D01*
X106527Y79732D01*
X107311Y78945D01*
X107311Y78157D01*
X106919Y77764D01*
X107311Y77370D01*
X107311Y76583D01*
X106527Y75795D01*
X105351Y77764D02*
X106919Y77764D01*
X108878Y79339D02*
X109270Y79732D01*
X110054Y79732D01*
X110838Y78945D01*
X110838Y78157D01*
X110446Y77764D01*
X110838Y77370D01*
X110838Y76583D01*
X110054Y75795D01*
X109270Y75795D01*
X108878Y76189D01*
X109270Y77764D02*
X110446Y77764D01*
X111762Y75795D02*
X111762Y79732D01*
X113330Y79732D01*
X114114Y78945D01*
X114114Y78551D01*
X113330Y77764D01*
X111762Y77764D01*
X112154Y77764D02*
X114114Y75795D01*
X116857Y75795D02*
X116073Y75795D01*
X115290Y76583D01*
X115290Y77370D01*
X115682Y77764D01*
X115290Y78157D01*
X115290Y78945D01*
X116073Y79732D01*
X116857Y79732D01*
X117641Y78945D01*
X117641Y78157D01*
X117249Y77764D01*
X117641Y77370D01*
X117641Y76583D01*
X116857Y75795D01*
X115682Y77764D02*
X117249Y77764D01*
X121169Y77370D02*
X118817Y77370D01*
X120777Y79732D01*
X120777Y75795D01*
X120385Y75795D02*
X121169Y75795D01*
X129400Y93433D02*
X129400Y97370D01*
X130968Y97370D01*
X131752Y96583D01*
X131752Y96189D01*
X130968Y95402D01*
X129400Y95402D01*
X129792Y95402D02*
X131752Y93433D01*
X134495Y93433D02*
X133711Y93433D01*
X132927Y94220D01*
X132927Y95008D01*
X133319Y95402D01*
X132927Y95795D01*
X132927Y96583D01*
X133711Y97370D01*
X134495Y97370D01*
X135279Y96583D01*
X135279Y95795D01*
X134887Y95402D01*
X135279Y95008D01*
X135279Y94220D01*
X134495Y93433D01*
X133319Y95402D02*
X134887Y95402D01*
X138415Y97370D02*
X137239Y97370D01*
X136455Y96583D01*
X136455Y95008D01*
X136455Y94220D01*
X137239Y93433D01*
X138023Y93433D01*
X138807Y94220D01*
X138807Y95008D01*
X138023Y95795D01*
X137239Y95795D01*
X136455Y95008D01*
X139227Y75543D02*
X139227Y79480D01*
X140794Y79480D01*
X141578Y78693D01*
X141578Y78299D01*
X140794Y77512D01*
X139227Y77512D01*
X139619Y77512D02*
X141578Y75543D01*
X145106Y79480D02*
X142754Y79480D01*
X142754Y77906D01*
X144322Y77906D01*
X145106Y77118D01*
X145106Y76331D01*
X144322Y75543D01*
X142754Y75543D01*
X146282Y76331D02*
X147066Y75543D01*
X147850Y75543D01*
X148633Y76331D01*
X148633Y77906D01*
X148633Y78693D01*
X147850Y79480D01*
X147066Y79480D01*
X146282Y78693D01*
X146282Y77906D01*
X147066Y77118D01*
X147850Y77118D01*
X148633Y77906D01*
X149809Y74787D02*
X149809Y78724D01*
X151377Y78724D01*
X152161Y77937D01*
X152161Y77543D01*
X151377Y76756D01*
X149809Y76756D01*
X150201Y76756D02*
X152161Y74787D01*
X155297Y78724D02*
X154121Y78724D01*
X153337Y77937D01*
X153337Y76362D01*
X153337Y75575D01*
X154121Y74787D01*
X154905Y74787D01*
X155689Y75575D01*
X155689Y76362D01*
X154905Y77150D01*
X154121Y77150D01*
X153337Y76362D01*
X156864Y77937D02*
X157648Y78724D01*
X158432Y78724D01*
X159216Y77937D01*
X159216Y75575D01*
X158432Y74787D01*
X157648Y74787D01*
X156864Y75575D01*
X156864Y77937D01*
X159216Y77937D02*
X156864Y75575D01*
X168707Y75039D02*
X168707Y78976D01*
X170275Y78976D01*
X171059Y78189D01*
X171059Y77795D01*
X170275Y77008D01*
X168707Y77008D01*
X169099Y77008D02*
X171059Y75039D01*
X174194Y78976D02*
X173018Y78976D01*
X172234Y78189D01*
X172234Y76614D01*
X172234Y75827D01*
X173018Y75039D01*
X173802Y75039D01*
X174586Y75827D01*
X174586Y76614D01*
X173802Y77402D01*
X173018Y77402D01*
X172234Y76614D01*
X175762Y78189D02*
X176546Y78976D01*
X177330Y78976D01*
X178114Y78189D01*
X178114Y77795D01*
X175762Y75039D01*
X178114Y75039D01*
X178114Y75433D01*
X179038Y72772D02*
X179038Y76709D01*
X180605Y76709D01*
X181389Y75921D01*
X181389Y75528D01*
X180605Y74740D01*
X179038Y74740D01*
X179430Y74740D02*
X181389Y72772D01*
X182565Y73559D02*
X183349Y72772D01*
X184133Y72772D01*
X184917Y73559D01*
X184917Y75134D01*
X184917Y75921D01*
X184133Y76709D01*
X183349Y76709D01*
X182565Y75921D01*
X182565Y75134D01*
X183349Y74346D01*
X184133Y74346D01*
X184917Y75134D01*
X186485Y76315D02*
X186877Y76709D01*
X187661Y76709D01*
X188444Y75921D01*
X188444Y75134D01*
X188052Y74740D01*
X188444Y74346D01*
X188444Y73559D01*
X187661Y72772D01*
X186877Y72772D01*
X186485Y73165D01*
X186877Y74740D02*
X188052Y74740D01*
X138567Y88162D02*
X137780Y88946D01*
X137780Y89730D01*
X138567Y90514D01*
X140929Y90514D01*
X141717Y89730D01*
X141717Y88946D01*
X140929Y88162D01*
X139354Y84634D02*
X139354Y86986D01*
X141717Y85026D01*
X137780Y85026D01*
X137780Y85418D02*
X137780Y84634D01*
X140929Y83066D02*
X141717Y82283D01*
X137780Y82283D01*
X137780Y83458D02*
X137780Y81107D01*
X27623Y111926D02*
X28219Y113037D01*
X28219Y114148D01*
X27623Y115259D01*
X25243Y115259D01*
X28219Y119148D02*
X28219Y118037D01*
X27623Y116926D01*
X27028Y116926D01*
X26731Y117481D01*
X26433Y116926D01*
X25838Y116926D01*
X25243Y118037D01*
X25243Y119148D01*
X25838Y120259D01*
X26433Y120259D01*
X26731Y119703D01*
X27028Y120259D01*
X27623Y120259D01*
X28219Y119148D01*
X26731Y117481D02*
X26731Y119703D01*
X28181Y221740D02*
X28181Y172573D01*
X8181Y221740D02*
X8181Y173407D01*
X28181Y121740D02*
X8181Y121740D01*
X28181Y129240D02*
X28181Y121740D01*
X28181Y132573D02*
X28181Y168407D01*
X24848Y130907D02*
X25681Y130073D01*
X28181Y130907D02*
X24848Y130907D01*
X25681Y171740D02*
X25608Y171737D01*
X25536Y171727D01*
X25465Y171712D01*
X25396Y171690D01*
X25329Y171662D01*
X25264Y171628D01*
X25203Y171589D01*
X25145Y171545D01*
X25092Y171496D01*
X25043Y171442D01*
X24998Y171385D01*
X24959Y171323D01*
X24926Y171259D01*
X24898Y171192D01*
X24876Y171122D01*
X24860Y171051D01*
X24851Y170979D01*
X24848Y170907D01*
X24851Y170834D01*
X24860Y170762D01*
X24876Y170691D01*
X24898Y170622D01*
X24926Y170555D01*
X24959Y170490D01*
X24998Y170429D01*
X25043Y170371D01*
X25092Y170317D01*
X25145Y170268D01*
X25203Y170224D01*
X25264Y170185D01*
X25329Y170151D01*
X25396Y170124D01*
X25465Y170102D01*
X25536Y170086D01*
X25608Y170077D01*
X25681Y170073D01*
X25754Y170077D01*
X25826Y170086D01*
X25897Y170102D01*
X25966Y170124D01*
X26033Y170151D01*
X26098Y170185D01*
X26159Y170224D01*
X26217Y170268D01*
X26270Y170317D01*
X26319Y170371D01*
X26364Y170429D01*
X26403Y170490D01*
X26436Y170555D01*
X26464Y170622D01*
X26486Y170691D01*
X26502Y170762D01*
X26511Y170834D01*
X26514Y170907D01*
X26511Y170979D01*
X26502Y171051D01*
X26486Y171122D01*
X26464Y171192D01*
X26436Y171259D01*
X26403Y171323D01*
X26364Y171385D01*
X26319Y171442D01*
X26270Y171496D01*
X26217Y171545D01*
X26159Y171589D01*
X26098Y171628D01*
X26033Y171662D01*
X25966Y171690D01*
X25897Y171712D01*
X25826Y171727D01*
X25754Y171737D01*
X25681Y171740D01*
X27348Y170073D02*
X27420Y170077D01*
X27492Y170086D01*
X27563Y170102D01*
X27633Y170124D01*
X27700Y170151D01*
X27764Y170185D01*
X27826Y170224D01*
X27883Y170268D01*
X27937Y170317D01*
X27986Y170371D01*
X28030Y170429D01*
X28069Y170490D01*
X28103Y170555D01*
X28131Y170622D01*
X28153Y170691D01*
X28168Y170762D01*
X28178Y170834D01*
X28181Y170907D01*
X28178Y170979D01*
X28168Y171051D01*
X28153Y171122D01*
X28131Y171192D01*
X28103Y171259D01*
X28069Y171323D01*
X28030Y171385D01*
X27986Y171442D01*
X27937Y171496D01*
X27883Y171545D01*
X27826Y171589D01*
X27764Y171628D01*
X27700Y171662D01*
X27633Y171690D01*
X27563Y171712D01*
X27492Y171727D01*
X27420Y171737D01*
X27348Y171740D01*
X27348Y171740D01*
X25681Y171740D01*
X8181Y121740D02*
X8181Y129240D01*
X8181Y132573D02*
X8181Y168407D01*
X9848Y130907D02*
X9845Y130979D01*
X9835Y131051D01*
X9820Y131122D01*
X9798Y131192D01*
X9770Y131259D01*
X9736Y131323D01*
X9697Y131385D01*
X9653Y131442D01*
X9604Y131496D01*
X9550Y131545D01*
X9493Y131589D01*
X9431Y131628D01*
X9367Y131662D01*
X9300Y131690D01*
X9230Y131712D01*
X9159Y131727D01*
X9087Y131737D01*
X9015Y131740D01*
X8942Y131737D01*
X8870Y131727D01*
X8799Y131712D01*
X8730Y131690D01*
X8662Y131662D01*
X8598Y131628D01*
X8537Y131589D01*
X8479Y131545D01*
X8425Y131496D01*
X8376Y131442D01*
X8332Y131385D01*
X8293Y131323D01*
X8259Y131259D01*
X8231Y131192D01*
X8210Y131122D01*
X8194Y131051D01*
X8184Y130979D01*
X8181Y130907D01*
X8184Y130834D01*
X8194Y130762D01*
X8210Y130691D01*
X8231Y130622D01*
X8259Y130555D01*
X8293Y130490D01*
X8332Y130429D01*
X8376Y130371D01*
X8425Y130317D01*
X8479Y130268D01*
X8537Y130224D01*
X8598Y130185D01*
X8662Y130151D01*
X8730Y130124D01*
X8799Y130102D01*
X8870Y130086D01*
X8942Y130077D01*
X9015Y130073D01*
X9015Y130073D01*
X11514Y131740D02*
X11514Y130073D01*
X9848Y130907D02*
X9851Y130834D01*
X9860Y130762D01*
X9876Y130691D01*
X9898Y130622D01*
X9926Y130555D01*
X9959Y130490D01*
X9998Y130429D01*
X10043Y130371D01*
X10092Y130317D01*
X10145Y130268D01*
X10203Y130224D01*
X10264Y130185D01*
X10329Y130151D01*
X10396Y130124D01*
X10465Y130102D01*
X10536Y130086D01*
X10608Y130077D01*
X10681Y130073D01*
X10681Y130073D01*
X11514Y130073D02*
X10681Y130073D01*
X9014Y172573D02*
X10681Y170907D01*
X10754Y170910D01*
X10826Y170919D01*
X10897Y170935D01*
X10966Y170957D01*
X11033Y170985D01*
X11098Y171018D01*
X11159Y171058D01*
X11217Y171102D01*
X11270Y171151D01*
X11319Y171205D01*
X11364Y171262D01*
X11403Y171323D01*
X11436Y171388D01*
X11464Y171455D01*
X11486Y171524D01*
X11502Y171595D01*
X11511Y171668D01*
X11514Y171740D01*
X11511Y171813D01*
X11502Y171885D01*
X11486Y171956D01*
X11464Y172025D01*
X11436Y172092D01*
X11403Y172157D01*
X11364Y172218D01*
X11319Y172276D01*
X11270Y172329D01*
X11217Y172379D01*
X11159Y172423D01*
X11098Y172462D01*
X11033Y172495D01*
X10966Y172523D01*
X10897Y172545D01*
X10826Y172561D01*
X10754Y172570D01*
X10681Y172573D01*
X9015Y172573D02*
X8942Y172570D01*
X8870Y172561D01*
X8799Y172545D01*
X8730Y172523D01*
X8662Y172495D01*
X8598Y172462D01*
X8537Y172423D01*
X8479Y172379D01*
X8425Y172329D01*
X8376Y172276D01*
X8332Y172218D01*
X8293Y172157D01*
X8259Y172092D01*
X8231Y172025D01*
X8210Y171956D01*
X8194Y171885D01*
X8184Y171813D01*
X8181Y171740D01*
X8184Y171668D01*
X8194Y171595D01*
X8210Y171524D01*
X8231Y171455D01*
X8259Y171388D01*
X8293Y171323D01*
X8332Y171262D01*
X8376Y171205D01*
X8425Y171151D01*
X8479Y171102D01*
X8537Y171058D01*
X8598Y171018D01*
X8662Y170985D01*
X8730Y170957D01*
X8799Y170935D01*
X8870Y170919D01*
X8942Y170910D01*
X9015Y170907D01*
X9015Y170907D01*
X9014Y172573D02*
X10681Y172573D01*
X10681Y170907D02*
X9014Y170907D01*
X8181Y170073D02*
X9014Y169240D01*
X11514Y170073D02*
X8181Y170073D01*
X8181Y221740D02*
X28181Y221740D01*
X22537Y115953D02*
X22537Y112016D01*
X20969Y112016D01*
X20185Y112803D01*
X20185Y113197D01*
X20969Y113984D01*
X22537Y113984D01*
X22145Y113984D02*
X20185Y115953D01*
X19010Y115165D02*
X18226Y115953D01*
X17442Y115953D01*
X16658Y115165D01*
X16658Y113591D01*
X16658Y112803D01*
X17442Y112016D01*
X18226Y112016D01*
X19010Y112803D01*
X19010Y113591D01*
X18226Y114378D01*
X17442Y114378D01*
X16658Y113591D01*
X22537Y108142D02*
X22537Y104205D01*
X20969Y104205D01*
X20185Y104992D01*
X20185Y105386D01*
X20969Y106173D01*
X22537Y106173D01*
X22145Y106173D02*
X20185Y108142D01*
X17050Y104205D02*
X18226Y104205D01*
X19010Y104992D01*
X19010Y106567D01*
X19010Y107354D01*
X18226Y108142D01*
X17442Y108142D01*
X16658Y107354D01*
X16658Y106567D01*
X17442Y105780D01*
X18226Y105780D01*
X19010Y106567D01*
X147794Y66472D02*
X147794Y70409D01*
X149361Y70409D01*
X150145Y69622D01*
X150145Y69228D01*
X149361Y68441D01*
X147794Y68441D01*
X148185Y68441D02*
X150145Y66472D01*
X153673Y70409D02*
X151321Y70409D01*
X151321Y68835D01*
X152889Y68835D01*
X153673Y68047D01*
X153673Y67260D01*
X152889Y66472D01*
X151321Y66472D01*
X156024Y66472D02*
X156024Y68441D01*
X157200Y69622D01*
X157200Y70409D01*
X154849Y70409D01*
X154849Y69622D01*
X53809Y44803D02*
X53809Y48740D01*
X55377Y48740D01*
X56161Y47953D01*
X56161Y47559D01*
X55377Y46772D01*
X53809Y46772D01*
X54201Y46772D02*
X56161Y44803D01*
X59689Y46378D02*
X57337Y46378D01*
X59297Y48740D01*
X59297Y44803D01*
X58905Y44803D02*
X59689Y44803D01*
X63216Y46378D02*
X60864Y46378D01*
X62824Y48740D01*
X62824Y44803D01*
X62432Y44803D02*
X63216Y44803D01*
X117557Y252173D02*
X117557Y256110D01*
X119125Y256110D01*
X119909Y255323D01*
X119909Y254929D01*
X119125Y254142D01*
X117557Y254142D01*
X117949Y254142D02*
X119909Y252173D01*
X121085Y255323D02*
X121869Y256110D01*
X122653Y256110D01*
X123437Y255323D01*
X123437Y254929D01*
X121085Y252173D01*
X123437Y252173D01*
X123437Y252567D01*
X124612Y255323D02*
X125396Y256110D01*
X126180Y256110D01*
X126964Y255323D01*
X126964Y252961D01*
X126180Y252173D01*
X125396Y252173D01*
X124612Y252961D01*
X124612Y255323D01*
X126964Y255323D02*
X124612Y252961D01*
X117465Y269746D02*
X113528Y269746D01*
X113528Y271314D01*
X114315Y272098D01*
X114709Y272098D01*
X115496Y271314D01*
X115496Y269746D01*
X115496Y270138D02*
X117465Y272098D01*
X114315Y273666D02*
X113528Y274450D01*
X117465Y274450D01*
X117465Y273274D02*
X117465Y275626D01*
X113921Y277193D02*
X113528Y277585D01*
X113528Y278369D01*
X114315Y279153D01*
X115102Y279153D01*
X115496Y278761D01*
X115890Y279153D01*
X116677Y279153D01*
X117465Y278369D01*
X117465Y277585D01*
X117071Y277193D01*
X115496Y277585D02*
X115496Y278761D01*
X138630Y259416D02*
X134693Y259416D01*
X134693Y260983D01*
X135480Y261767D01*
X135874Y261767D01*
X136661Y260983D01*
X136661Y259416D01*
X136661Y259808D02*
X138630Y261767D01*
X135480Y262943D02*
X134693Y263727D01*
X134693Y264511D01*
X135480Y265295D01*
X135874Y265295D01*
X138630Y262943D01*
X138630Y265295D01*
X138236Y265295D01*
X135480Y266863D02*
X134693Y267647D01*
X138630Y267647D01*
X138630Y266471D02*
X138630Y268822D01*
X198661Y304994D02*
X194724Y304994D01*
X194724Y302642D01*
X194724Y301466D02*
X194724Y299899D01*
X195512Y299115D01*
X197874Y299115D01*
X198661Y299899D01*
X198661Y301466D01*
X198661Y301074D02*
X194724Y301074D01*
X198268Y297547D02*
X198661Y297155D01*
X198661Y296371D01*
X197874Y295587D01*
X197087Y295587D01*
X196693Y295979D01*
X196299Y295587D01*
X195512Y295587D01*
X194724Y296371D01*
X194724Y297155D01*
X195118Y297547D01*
X196693Y297155D02*
X196693Y295979D01*
X248803Y307010D02*
X244866Y307010D01*
X244866Y304658D01*
X244866Y303482D02*
X244866Y301914D01*
X245654Y301130D01*
X248016Y301130D01*
X248803Y301914D01*
X248803Y303482D01*
X248803Y303090D02*
X244866Y303090D01*
X248016Y299955D02*
X248803Y299171D01*
X248803Y298387D01*
X248016Y297603D01*
X247622Y297603D01*
X244866Y299955D01*
X244866Y297603D01*
X245260Y297603D01*
X139701Y320616D02*
X135764Y320616D01*
X135764Y318264D01*
X135764Y317088D02*
X135764Y315521D01*
X136551Y314737D01*
X138913Y314737D01*
X139701Y315521D01*
X139701Y317088D01*
X139701Y316696D02*
X135764Y316696D01*
X137339Y311209D02*
X137339Y313561D01*
X139701Y311601D01*
X135764Y311601D01*
X135764Y311993D02*
X135764Y311209D01*
X97792Y273402D02*
X98576Y274189D01*
X99360Y274189D01*
X100143Y273402D01*
X100143Y271039D01*
X99360Y270252D01*
X98576Y270252D01*
X97792Y271039D01*
X96616Y271039D02*
X95832Y270252D01*
X95048Y270252D01*
X94264Y271039D01*
X94264Y271433D01*
X96616Y274189D01*
X94264Y274189D01*
X94264Y273795D01*
X91129Y270252D02*
X92304Y270252D01*
X93088Y271039D01*
X93088Y272614D01*
X93088Y273402D01*
X92304Y274189D01*
X91521Y274189D01*
X90737Y273402D01*
X90737Y272614D01*
X91521Y271827D01*
X92304Y271827D01*
X93088Y272614D01*
X105118Y271762D02*
X101181Y271762D01*
X101181Y273330D01*
X101969Y274114D01*
X102362Y274114D01*
X103150Y273330D01*
X103150Y271762D01*
X103150Y272154D02*
X105118Y274114D01*
X101969Y275290D02*
X101181Y276073D01*
X101181Y276857D01*
X101969Y277641D01*
X102362Y277641D01*
X105118Y275290D01*
X105118Y277641D01*
X104724Y277641D01*
X105118Y280385D02*
X105118Y279601D01*
X104331Y278817D01*
X103543Y278817D01*
X103150Y279209D01*
X102756Y278817D01*
X101969Y278817D01*
X101181Y279601D01*
X101181Y280385D01*
X101969Y281169D01*
X102756Y281169D01*
X103150Y280777D01*
X103543Y281169D01*
X104331Y281169D01*
X105118Y280385D01*
X103150Y279209D02*
X103150Y280777D01*
X21529Y282756D02*
X21529Y278819D01*
X19962Y278819D01*
X19178Y279606D01*
X19178Y280000D01*
X19962Y280787D01*
X21529Y280787D01*
X21137Y280787D02*
X19178Y282756D01*
X18002Y279606D02*
X17218Y278819D01*
X16434Y278819D01*
X15650Y279606D01*
X15650Y280000D01*
X18002Y282756D01*
X15650Y282756D01*
X15650Y282362D01*
X14474Y281969D02*
X13690Y282756D01*
X12906Y282756D01*
X12122Y281969D01*
X12122Y280394D01*
X12122Y279606D01*
X12906Y278819D01*
X13690Y278819D01*
X14474Y279606D01*
X14474Y280394D01*
X13690Y281181D01*
X12906Y281181D01*
X12122Y280394D01*
X37907Y283008D02*
X37907Y279071D01*
X36339Y279071D01*
X35556Y279858D01*
X35556Y280252D01*
X36339Y281039D01*
X37907Y281039D01*
X37515Y281039D02*
X35556Y283008D01*
X34380Y279858D02*
X33596Y279071D01*
X32812Y279071D01*
X32028Y279858D01*
X32028Y280252D01*
X34380Y283008D01*
X32028Y283008D01*
X32028Y282614D01*
X28500Y281433D02*
X30852Y281433D01*
X28892Y279071D01*
X28892Y283008D01*
X29284Y283008D02*
X28500Y283008D01*
X57057Y283008D02*
X57057Y279071D01*
X55489Y279071D01*
X54705Y279858D01*
X54705Y280252D01*
X55489Y281039D01*
X57057Y281039D01*
X56665Y281039D02*
X54705Y283008D01*
X53137Y279858D02*
X52353Y279071D01*
X52353Y283008D01*
X53529Y283008D02*
X51178Y283008D01*
X50002Y282220D02*
X49218Y283008D01*
X48434Y283008D01*
X47650Y282220D01*
X47650Y280646D01*
X47650Y279858D01*
X48434Y279071D01*
X49218Y279071D01*
X50002Y279858D01*
X50002Y280646D01*
X49218Y281433D01*
X48434Y281433D01*
X47650Y280646D01*
X75703Y283512D02*
X75703Y279575D01*
X74135Y279575D01*
X73351Y280362D01*
X73351Y280756D01*
X74135Y281543D01*
X75703Y281543D01*
X75311Y281543D02*
X73351Y283512D01*
X71783Y280362D02*
X70999Y279575D01*
X70999Y283512D01*
X72175Y283512D02*
X69823Y283512D01*
X68647Y280362D02*
X67864Y279575D01*
X67080Y279575D01*
X66296Y280362D01*
X66296Y282724D01*
X67080Y283512D01*
X67864Y283512D01*
X68647Y282724D01*
X68647Y280362D01*
X66296Y280362D02*
X68647Y282724D01*
X142850Y161288D02*
X142063Y162072D01*
X142063Y162856D01*
X142850Y163640D01*
X145213Y163640D01*
X146000Y162856D01*
X146000Y162072D01*
X145213Y161288D01*
X145213Y159720D02*
X146000Y158936D01*
X142063Y158936D01*
X142063Y160112D02*
X142063Y157760D01*
X145213Y156584D02*
X146000Y155801D01*
X146000Y155017D01*
X145213Y154233D01*
X142850Y154233D01*
X142063Y155017D01*
X142063Y155801D01*
X142850Y156584D01*
X145213Y156584D01*
X145213Y154233D02*
X142850Y156584D01*
X134500Y138742D02*
X133388Y139337D01*
X132277Y139337D01*
X131166Y138742D01*
X131166Y136956D01*
X132277Y136361D01*
X133388Y136361D01*
X134500Y136956D01*
X134500Y138742D01*
X132277Y138742D02*
X131166Y139337D01*
X128944Y136956D02*
X127833Y136361D01*
X127833Y139337D01*
X129500Y139337D02*
X126166Y139337D01*
X132787Y161685D02*
X112787Y161685D01*
X132787Y141685D02*
X112787Y141685D01*
X125287Y153685D02*
X125287Y149685D01*
X132787Y141685D02*
X133659Y141723D01*
X134524Y141837D01*
X135376Y142026D01*
X136208Y142288D01*
X137014Y142622D01*
X137787Y143025D01*
X138523Y143494D01*
X139215Y144025D01*
X139858Y144614D01*
X140448Y145257D01*
X140979Y145949D01*
X141448Y146685D01*
X141850Y147459D01*
X142184Y148265D01*
X142447Y149097D01*
X142635Y149949D01*
X142749Y150813D01*
X142787Y151685D01*
X142749Y152557D01*
X142635Y153422D01*
X142447Y154273D01*
X142184Y155105D01*
X141850Y155911D01*
X141448Y156685D01*
X140979Y157421D01*
X140448Y158113D01*
X139858Y158756D01*
X139215Y159345D01*
X138523Y159877D01*
X137787Y160345D01*
X137014Y160748D01*
X136208Y161082D01*
X135376Y161344D01*
X134524Y161533D01*
X133659Y161647D01*
X132787Y161685D01*
X132787Y156685D02*
X132787Y160018D01*
X133621Y157518D02*
X132787Y156685D01*
X125787Y151685D02*
X127287Y151685D01*
X125787Y149685D02*
X125787Y153685D01*
X112787Y161685D02*
X111916Y161647D01*
X111051Y161533D01*
X110199Y161344D01*
X109367Y161082D01*
X108561Y160748D01*
X107787Y160345D01*
X107052Y159877D01*
X106360Y159345D01*
X105716Y158756D01*
X105127Y158113D01*
X104596Y157421D01*
X104127Y156685D01*
X103724Y155911D01*
X103390Y155105D01*
X103128Y154273D01*
X102939Y153422D01*
X102825Y152557D01*
X102787Y151685D01*
X102825Y150813D01*
X102939Y149949D01*
X103128Y149097D01*
X103390Y148265D01*
X103724Y147459D01*
X104127Y146685D01*
X104596Y145949D01*
X105127Y145257D01*
X105716Y144614D01*
X106360Y144025D01*
X107052Y143494D01*
X107787Y143025D01*
X108561Y142622D01*
X109367Y142288D01*
X110199Y142026D01*
X111051Y141837D01*
X111916Y141723D01*
X112787Y141685D01*
X112787Y141685D01*
X112787Y158352D02*
X112715Y158349D01*
X112643Y158339D01*
X112572Y158323D01*
X112502Y158302D01*
X112435Y158274D01*
X112371Y158240D01*
X112309Y158201D01*
X112252Y158157D01*
X112198Y158108D01*
X112149Y158054D01*
X112105Y157996D01*
X112066Y157935D01*
X112032Y157871D01*
X112004Y157804D01*
X111982Y157734D01*
X111967Y157663D01*
X111957Y157591D01*
X111954Y157519D01*
X111957Y157446D01*
X111967Y157374D01*
X111982Y157303D01*
X112004Y157233D01*
X112032Y157166D01*
X112066Y157102D01*
X112105Y157041D01*
X112149Y156983D01*
X112198Y156929D01*
X112252Y156880D01*
X112309Y156836D01*
X112371Y156797D01*
X112435Y156763D01*
X112502Y156735D01*
X112572Y156714D01*
X112643Y156698D01*
X112715Y156688D01*
X112787Y156685D01*
X112860Y156688D01*
X112932Y156698D01*
X113003Y156714D01*
X113072Y156735D01*
X113140Y156763D01*
X113204Y156797D01*
X113265Y156836D01*
X113323Y156880D01*
X113377Y156929D01*
X113426Y156983D01*
X113470Y157041D01*
X113509Y157102D01*
X113543Y157166D01*
X113570Y157233D01*
X113592Y157303D01*
X113608Y157374D01*
X113618Y157446D01*
X113621Y157519D01*
X111954Y160018D02*
X113621Y160018D01*
X113621Y159185D01*
X124287Y155185D02*
X121287Y155185D01*
X121287Y148185D02*
X124287Y148185D01*
X124287Y155185D01*
X119787Y151685D02*
X118287Y151685D01*
X119787Y149685D02*
X119787Y153685D01*
X120287Y149685D02*
X120287Y153685D01*
X121287Y148185D02*
X121287Y155185D01*
X112787Y158352D02*
X112860Y158355D01*
X112932Y158364D01*
X113003Y158380D01*
X113072Y158402D01*
X113140Y158430D01*
X113204Y158463D01*
X113265Y158502D01*
X113323Y158547D01*
X113377Y158596D01*
X113426Y158649D01*
X113470Y158707D01*
X113509Y158768D01*
X113543Y158833D01*
X113570Y158900D01*
X113592Y158969D01*
X113608Y159040D01*
X113618Y159112D01*
X113621Y159185D01*
X247732Y231195D02*
X243795Y231195D01*
X243795Y232763D01*
X244583Y233547D01*
X244976Y233547D01*
X245764Y232763D01*
X245764Y231195D01*
X245764Y231587D02*
X247732Y233547D01*
X244583Y235115D02*
X243795Y235899D01*
X247732Y235899D01*
X247732Y234723D02*
X247732Y237074D01*
X243795Y240210D02*
X243795Y239034D01*
X244583Y238250D01*
X246157Y238250D01*
X246945Y238250D01*
X247732Y239034D01*
X247732Y239818D01*
X246945Y240602D01*
X246157Y240602D01*
X245370Y239818D01*
X245370Y239034D01*
X246157Y238250D01*
X199102Y239006D02*
X195165Y239006D01*
X195165Y240574D01*
X195953Y241358D01*
X196346Y241358D01*
X197134Y240574D01*
X197134Y239006D01*
X197134Y239398D02*
X199102Y241358D01*
X195559Y242926D02*
X195165Y243318D01*
X195165Y244101D01*
X195953Y244885D01*
X196740Y244885D01*
X197134Y244493D01*
X197528Y244885D01*
X198315Y244885D01*
X199102Y244101D01*
X199102Y243318D01*
X198709Y242926D01*
X197134Y243318D02*
X197134Y244493D01*
X199102Y247237D02*
X197134Y247237D01*
X195953Y248413D01*
X195165Y248413D01*
X195165Y246061D01*
X195953Y246061D01*
X169967Y95197D02*
X169967Y99134D01*
X171535Y99134D01*
X172318Y98346D01*
X172318Y97953D01*
X171535Y97165D01*
X169967Y97165D01*
X170359Y97165D02*
X172318Y95197D01*
X175454Y99134D02*
X174278Y99134D01*
X173494Y98346D01*
X173494Y96772D01*
X173494Y95984D01*
X174278Y95197D01*
X175062Y95197D01*
X175846Y95984D01*
X175846Y96772D01*
X175062Y97559D01*
X174278Y97559D01*
X173494Y96772D01*
X177414Y98346D02*
X178198Y99134D01*
X178198Y95197D01*
X177022Y95197D02*
X179374Y95197D01*
X114030Y102252D02*
X114030Y106189D01*
X115598Y106189D01*
X116381Y105402D01*
X116381Y105008D01*
X115598Y104220D01*
X114030Y104220D01*
X114422Y104220D02*
X116381Y102252D01*
X119125Y102252D02*
X118341Y102252D01*
X117557Y103039D01*
X117557Y103827D01*
X117949Y104220D01*
X117557Y104614D01*
X117557Y105402D01*
X118341Y106189D01*
X119125Y106189D01*
X119909Y105402D01*
X119909Y104614D01*
X119517Y104220D01*
X119909Y103827D01*
X119909Y103039D01*
X119125Y102252D01*
X117949Y104220D02*
X119517Y104220D01*
X123437Y106189D02*
X121085Y106189D01*
X121085Y104614D01*
X122653Y104614D01*
X123437Y103827D01*
X123437Y103039D01*
X122653Y102252D01*
X121085Y102252D01*
X73715Y103260D02*
X73715Y107197D01*
X75283Y107197D01*
X76066Y106409D01*
X76066Y106016D01*
X75283Y105228D01*
X73715Y105228D01*
X74107Y105228D02*
X76066Y103260D01*
X79594Y104835D02*
X77242Y104835D01*
X79202Y107197D01*
X79202Y103260D01*
X78810Y103260D02*
X79594Y103260D01*
X80770Y104047D02*
X81554Y103260D01*
X82338Y103260D01*
X83122Y104047D01*
X83122Y105622D01*
X83122Y106409D01*
X82338Y107197D01*
X81554Y107197D01*
X80770Y106409D01*
X80770Y105622D01*
X81554Y104835D01*
X82338Y104835D01*
X83122Y105622D01*
X150724Y187857D02*
X150724Y189424D01*
X149937Y190208D01*
X147575Y190208D01*
X146787Y189424D01*
X146787Y187857D01*
X146787Y188248D02*
X150724Y188248D01*
X150724Y191384D02*
X150724Y192952D01*
X149937Y193736D01*
X147575Y193736D01*
X146787Y192952D01*
X146787Y191384D01*
X146787Y191776D02*
X150724Y191776D01*
X147575Y194912D02*
X146787Y195696D01*
X146787Y196479D01*
X147575Y197263D01*
X147969Y197263D01*
X150724Y194912D01*
X150724Y197263D01*
X150331Y197263D01*
X137805Y176400D02*
X113789Y176400D01*
X113789Y200415D02*
X137805Y200415D01*
X137805Y176400D01*
X113789Y176400D02*
X113789Y200415D01*
X169811Y159020D02*
X169024Y159804D01*
X169024Y160588D01*
X169811Y161372D01*
X172173Y161372D01*
X172961Y160588D01*
X172961Y159804D01*
X172173Y159020D01*
X170598Y155493D02*
X170598Y157845D01*
X172961Y155885D01*
X169024Y155885D01*
X169024Y156277D02*
X169024Y155493D01*
G54D12*
X217669Y2283D02*
X225669Y2283D01*
X225669Y5283D01*
X217669Y5283D01*
X217669Y2283D01*
X231669Y2283D02*
X239669Y2283D01*
X239669Y5283D01*
X231669Y5283D01*
X231669Y2283D01*
X10815Y70638D02*
X13374Y70638D01*
X13374Y82055D02*
X10815Y82055D01*
X10815Y70638D01*
X13374Y70638D02*
X13374Y82055D01*
X224232Y255079D02*
X226791Y255079D01*
X226791Y266496D02*
X224232Y266496D01*
X224232Y255079D01*
X226791Y255079D02*
X226791Y266496D01*
X47118Y64787D02*
X49677Y64787D01*
X49677Y76205D02*
X47118Y76205D01*
X47118Y64787D01*
X49677Y64787D02*
X49677Y76205D01*
X232992Y56984D02*
X232992Y36512D01*
X243228Y56984D02*
X243228Y36512D01*
X215150Y57126D02*
X215150Y35866D01*
X229323Y57126D02*
X229323Y35866D01*
X216528Y57126D02*
X215150Y57126D01*
X227945Y57126D02*
X229323Y57126D01*
X215150Y35866D02*
X216528Y35866D01*
X229323Y35866D02*
X227945Y35866D01*
X126236Y64787D02*
X128795Y64787D01*
X128795Y76205D02*
X126236Y76205D01*
X126236Y64787D01*
X128795Y64787D02*
X128795Y76205D01*
X147150Y94268D02*
X149709Y94268D01*
X149709Y105685D02*
X147150Y105685D01*
X147150Y94268D01*
X149709Y94268D02*
X149709Y105685D01*
X165543Y64787D02*
X168102Y64787D01*
X168102Y76205D02*
X165543Y76205D01*
X165543Y64787D01*
X168102Y64787D02*
X168102Y76205D01*
X68031Y94520D02*
X70591Y94520D01*
X70591Y105937D02*
X68031Y105937D01*
X68031Y94520D01*
X70591Y94520D02*
X70591Y105937D01*
X28472Y95528D02*
X31031Y95528D01*
X31031Y106945D02*
X28472Y106945D01*
X28472Y95528D01*
X31031Y95528D02*
X31031Y106945D01*
X14276Y92220D02*
X2858Y92220D01*
X86476Y64787D02*
X89035Y64787D01*
X89035Y76205D02*
X86476Y76205D01*
X86476Y64787D01*
X89035Y64787D02*
X89035Y76205D01*
X107591Y94268D02*
X110150Y94268D01*
X110150Y105685D02*
X107591Y105685D01*
X107591Y94268D01*
X110150Y94268D02*
X110150Y105685D01*
X98339Y145528D02*
X98339Y157339D01*
X79047Y157339D02*
X79047Y145528D01*
X98339Y145528D01*
X79047Y146315D02*
X79835Y145528D01*
X79047Y147102D02*
X80622Y145528D01*
X79047Y147890D02*
X81409Y145528D01*
X79047Y148677D02*
X82197Y145528D01*
X79047Y149465D02*
X82984Y145528D01*
X98339Y157339D02*
X79047Y157339D01*
X10185Y263264D02*
X10185Y242004D01*
X24358Y263264D02*
X24358Y242004D01*
X11563Y263264D02*
X10185Y263264D01*
X22980Y263264D02*
X24358Y263264D01*
X10185Y242004D02*
X11563Y242004D01*
X24358Y242004D02*
X22980Y242004D01*
X29335Y263264D02*
X29335Y242004D01*
X43508Y263264D02*
X43508Y242004D01*
X30713Y263264D02*
X29335Y263264D01*
X42130Y263264D02*
X43508Y263264D01*
X29335Y242004D02*
X30713Y242004D01*
X43508Y242004D02*
X42130Y242004D01*
X48484Y263264D02*
X48484Y242004D01*
X62657Y263264D02*
X62657Y242004D01*
X49862Y263264D02*
X48484Y263264D01*
X61280Y263264D02*
X62657Y263264D01*
X48484Y242004D02*
X49862Y242004D01*
X62657Y242004D02*
X61280Y242004D01*
X67634Y263264D02*
X67634Y242004D01*
X81807Y263264D02*
X81807Y242004D01*
X69012Y263264D02*
X67634Y263264D01*
X80429Y263264D02*
X81807Y263264D01*
X67634Y242004D02*
X69012Y242004D01*
X81807Y242004D02*
X80429Y242004D01*
X222559Y232063D02*
X222559Y244661D01*
X203268Y244661D02*
X203268Y232063D01*
X222559Y232063D01*
X222559Y244661D02*
X203268Y244661D01*
G54D13*
X213669Y10283D02*
X214669Y10283D01*
X214669Y8283D01*
X213669Y8283D01*
X213669Y10283D01*
X242984Y23339D02*
X243984Y23339D01*
X243984Y21339D01*
X242984Y21339D01*
X242984Y23339D01*
G54D14*
X5751Y68143D02*
X5751Y66576D01*
X6538Y65792D01*
X8901Y65792D01*
X9688Y66576D01*
X9688Y68143D01*
X9688Y67752D02*
X5751Y67752D01*
X8901Y64224D02*
X9688Y63440D01*
X5751Y63440D01*
X5751Y64616D02*
X5751Y62264D01*
X5751Y59913D02*
X7720Y59913D01*
X8901Y58737D01*
X9688Y58737D01*
X9688Y61088D01*
X8901Y61088D01*
X222376Y249173D02*
X223944Y249173D01*
X224728Y249961D01*
X224728Y252323D01*
X223944Y253110D01*
X222376Y253110D01*
X222768Y253110D02*
X222768Y249173D01*
X228255Y250748D02*
X225904Y250748D01*
X227864Y253110D01*
X227864Y249173D01*
X227472Y249173D02*
X228255Y249173D01*
X42054Y62293D02*
X42054Y60725D01*
X42842Y59941D01*
X45204Y59941D01*
X45991Y60725D01*
X45991Y62293D01*
X45991Y61901D02*
X42054Y61901D01*
X45204Y58374D02*
X45991Y57590D01*
X42054Y57590D01*
X42054Y58766D02*
X42054Y56414D01*
X45204Y54846D02*
X45991Y54062D01*
X42054Y54062D01*
X42054Y55238D02*
X42054Y52886D01*
X233780Y49750D02*
X233780Y48182D01*
X234567Y47398D01*
X236929Y47398D01*
X237717Y48182D01*
X237717Y49750D01*
X237717Y49358D02*
X233780Y49358D01*
X236929Y45830D02*
X237717Y45046D01*
X233780Y45046D01*
X233780Y46222D02*
X233780Y43871D01*
X215386Y49750D02*
X215386Y48182D01*
X216173Y47398D01*
X218535Y47398D01*
X219323Y48182D01*
X219323Y49750D01*
X219323Y49358D02*
X215386Y49358D01*
X218929Y45830D02*
X219323Y45438D01*
X219323Y44654D01*
X218535Y43871D01*
X217748Y43871D01*
X217354Y44262D01*
X216961Y43871D01*
X216173Y43871D01*
X215386Y44654D01*
X215386Y45438D01*
X215780Y45830D01*
X217354Y45438D02*
X217354Y44262D01*
X121172Y62293D02*
X121172Y60725D01*
X121960Y59941D01*
X124322Y59941D01*
X125109Y60725D01*
X125109Y62293D01*
X125109Y61901D02*
X121172Y61901D01*
X124322Y58374D02*
X125109Y57590D01*
X121172Y57590D01*
X121172Y58766D02*
X121172Y56414D01*
X122747Y52886D02*
X122747Y55238D01*
X125109Y53278D01*
X121172Y53278D01*
X121172Y53670D02*
X121172Y52886D01*
X142086Y91773D02*
X142086Y90206D01*
X142873Y89422D01*
X145235Y89422D01*
X146023Y90206D01*
X146023Y91773D01*
X146023Y91381D02*
X142086Y91381D01*
X145235Y87854D02*
X146023Y87070D01*
X142086Y87070D01*
X142086Y88246D02*
X142086Y85894D01*
X146023Y82367D02*
X146023Y84718D01*
X144448Y84718D01*
X144448Y83150D01*
X143661Y82367D01*
X142873Y82367D01*
X142086Y83150D01*
X142086Y84718D01*
X160479Y62293D02*
X160479Y60725D01*
X161267Y59941D01*
X163629Y59941D01*
X164416Y60725D01*
X164416Y62293D01*
X164416Y61901D02*
X160479Y61901D01*
X163629Y58766D02*
X164416Y57982D01*
X164416Y57198D01*
X163629Y56414D01*
X163235Y56414D01*
X160479Y58766D01*
X160479Y56414D01*
X160873Y56414D01*
X164023Y54846D02*
X164416Y54454D01*
X164416Y53670D01*
X163629Y52886D01*
X162842Y52886D01*
X162448Y53278D01*
X162054Y52886D01*
X161267Y52886D01*
X160479Y53670D01*
X160479Y54454D01*
X160873Y54846D01*
X162448Y54454D02*
X162448Y53278D01*
X62968Y92025D02*
X62968Y90458D01*
X63755Y89674D01*
X66117Y89674D01*
X66905Y90458D01*
X66905Y92025D01*
X66905Y91633D02*
X62968Y91633D01*
X66117Y88106D02*
X66905Y87322D01*
X62968Y87322D01*
X62968Y88498D02*
X62968Y86146D01*
X66117Y84970D02*
X66905Y84186D01*
X66905Y83402D01*
X66117Y82619D01*
X65724Y82619D01*
X62968Y84970D01*
X62968Y82619D01*
X63361Y82619D01*
X23409Y93033D02*
X23409Y91465D01*
X24196Y90682D01*
X26558Y90682D01*
X27346Y91465D01*
X27346Y93033D01*
X27346Y92641D02*
X23409Y92641D01*
X26558Y89114D02*
X27346Y88330D01*
X23409Y88330D01*
X23409Y89506D02*
X23409Y87154D01*
X23409Y84410D02*
X23409Y85194D01*
X24196Y85978D01*
X24983Y85978D01*
X25377Y85586D01*
X25771Y85978D01*
X26558Y85978D01*
X27346Y85194D01*
X27346Y84410D01*
X26558Y83626D01*
X25771Y83626D01*
X25377Y84018D01*
X24983Y83626D01*
X24196Y83626D01*
X23409Y84410D01*
X25377Y85586D02*
X25377Y84018D01*
X10724Y94880D02*
X13874Y94880D01*
X14661Y95664D01*
X14661Y96448D01*
X13874Y97232D01*
X10724Y97232D01*
X11118Y98800D02*
X10724Y99192D01*
X10724Y99976D01*
X11512Y100759D01*
X12299Y100759D01*
X12693Y100367D01*
X13087Y100759D01*
X13874Y100759D01*
X14661Y99976D01*
X14661Y99192D01*
X14268Y98800D01*
X12693Y99192D02*
X12693Y100367D01*
X81843Y64364D02*
X81843Y62796D01*
X82630Y62012D01*
X84992Y62012D01*
X85780Y62796D01*
X85780Y64364D01*
X85780Y63972D02*
X81843Y63972D01*
X84992Y60836D02*
X85780Y60052D01*
X85780Y59269D01*
X84992Y58485D01*
X84598Y58485D01*
X81843Y60836D01*
X81843Y58485D01*
X82236Y58485D01*
X84992Y57309D02*
X85780Y56525D01*
X85780Y55741D01*
X84992Y54957D01*
X82630Y54957D01*
X81843Y55741D01*
X81843Y56525D01*
X82630Y57309D01*
X84992Y57309D01*
X84992Y54957D02*
X82630Y57309D01*
X102527Y91773D02*
X102527Y90206D01*
X103314Y89422D01*
X105676Y89422D01*
X106464Y90206D01*
X106464Y91773D01*
X106464Y91381D02*
X102527Y91381D01*
X105676Y88246D02*
X106464Y87462D01*
X106464Y86678D01*
X105676Y85894D01*
X105283Y85894D01*
X102527Y88246D01*
X102527Y85894D01*
X102920Y85894D01*
X105676Y84326D02*
X106464Y83542D01*
X102527Y83542D01*
X102527Y84718D02*
X102527Y82367D01*
X78334Y173339D02*
X77550Y172551D01*
X76766Y172551D01*
X75983Y173339D01*
X75983Y175701D01*
X76766Y176488D01*
X77550Y176488D01*
X78334Y175701D01*
X79902Y175701D02*
X80686Y176488D01*
X80686Y172551D01*
X79510Y172551D02*
X81862Y172551D01*
X77402Y147290D02*
X77402Y148857D01*
X76614Y149641D01*
X74252Y149641D01*
X73465Y148857D01*
X73465Y147290D01*
X73465Y147682D02*
X77402Y147682D01*
X77402Y150817D02*
X77402Y152385D01*
X76614Y153169D01*
X74252Y153169D01*
X73465Y152385D01*
X73465Y150817D01*
X73465Y151209D02*
X77402Y151209D01*
X74252Y154737D02*
X73465Y155521D01*
X77402Y155521D01*
X77402Y154345D02*
X77402Y156696D01*
X13998Y250913D02*
X15566Y250913D01*
X16350Y251701D01*
X16350Y254063D01*
X15566Y254850D01*
X13998Y254850D01*
X14390Y254850D02*
X14390Y250913D01*
X19094Y250913D02*
X18310Y250913D01*
X17526Y251701D01*
X17526Y252488D01*
X17918Y252882D01*
X17526Y253276D01*
X17526Y254063D01*
X18310Y254850D01*
X19094Y254850D01*
X19878Y254063D01*
X19878Y253276D01*
X19486Y252882D01*
X19878Y252488D01*
X19878Y251701D01*
X19094Y250913D01*
X17918Y252882D02*
X19486Y252882D01*
X33400Y250913D02*
X34968Y250913D01*
X35752Y251701D01*
X35752Y254063D01*
X34968Y254850D01*
X33400Y254850D01*
X33792Y254850D02*
X33792Y250913D01*
X38103Y250913D02*
X38103Y252882D01*
X39279Y254063D01*
X39279Y254850D01*
X36927Y254850D01*
X36927Y254063D01*
X52801Y251165D02*
X54369Y251165D01*
X55153Y251953D01*
X55153Y254315D01*
X54369Y255102D01*
X52801Y255102D01*
X53193Y255102D02*
X53193Y251165D01*
X58289Y255102D02*
X57113Y255102D01*
X56329Y254315D01*
X56329Y252740D01*
X56329Y251953D01*
X57113Y251165D01*
X57897Y251165D01*
X58681Y251953D01*
X58681Y252740D01*
X57897Y253528D01*
X57113Y253528D01*
X56329Y252740D01*
X71951Y251165D02*
X73519Y251165D01*
X74303Y251953D01*
X74303Y254315D01*
X73519Y255102D01*
X71951Y255102D01*
X72343Y255102D02*
X72343Y251165D01*
X77830Y255102D02*
X75479Y255102D01*
X75479Y253528D01*
X77046Y253528D01*
X77830Y252740D01*
X77830Y251953D01*
X77046Y251165D01*
X75479Y251165D01*
X115417Y211626D02*
X116205Y210842D01*
X116205Y210058D01*
X115417Y209274D01*
X113055Y209274D01*
X112268Y210058D01*
X112268Y210842D01*
X113055Y211626D01*
X113055Y212801D02*
X112268Y213585D01*
X112268Y214369D01*
X113055Y215153D01*
X113449Y215153D01*
X116205Y212801D01*
X116205Y215153D01*
X115811Y215153D01*
X113055Y216721D02*
X112268Y217505D01*
X116205Y217505D01*
X116205Y216329D02*
X116205Y218681D01*
X102075Y178661D02*
X102859Y179449D01*
X103643Y179449D01*
X104427Y178661D01*
X104427Y176299D01*
X103643Y175512D01*
X102859Y175512D01*
X102075Y176299D01*
X100507Y176299D02*
X99724Y175512D01*
X99724Y179449D01*
X100899Y179449D02*
X98548Y179449D01*
X97372Y178661D02*
X96588Y179449D01*
X95804Y179449D01*
X95020Y178661D01*
X95020Y177087D01*
X95020Y176299D01*
X95804Y175512D01*
X96588Y175512D01*
X97372Y176299D01*
X97372Y177087D01*
X96588Y177874D01*
X95804Y177874D01*
X95020Y177087D01*
X150441Y171059D02*
X151228Y170275D01*
X151228Y169491D01*
X150441Y168707D01*
X148079Y168707D01*
X147291Y169491D01*
X147291Y170275D01*
X148079Y171059D01*
X147291Y174586D02*
X147291Y172234D01*
X148866Y172234D01*
X148866Y173802D01*
X149654Y174586D01*
X150441Y174586D01*
X151228Y173802D01*
X151228Y172234D01*
X146114Y210378D02*
X145330Y209591D01*
X144546Y209591D01*
X143762Y210378D01*
X143762Y212740D01*
X144546Y213528D01*
X145330Y213528D01*
X146114Y212740D01*
X147290Y212740D02*
X148073Y213528D01*
X148857Y213528D01*
X149641Y212740D01*
X149641Y212346D01*
X147290Y209591D01*
X149641Y209591D01*
X149641Y209984D01*
X150817Y212740D02*
X151601Y213528D01*
X152385Y213528D01*
X153169Y212740D01*
X153169Y210378D01*
X152385Y209591D01*
X151601Y209591D01*
X150817Y210378D01*
X150817Y212740D01*
X153169Y212740D02*
X150817Y210378D01*
X240898Y238334D02*
X241685Y237550D01*
X241685Y236766D01*
X240898Y235983D01*
X238535Y235983D01*
X237748Y236766D01*
X237748Y237550D01*
X238535Y238334D01*
X237748Y241470D02*
X237748Y240294D01*
X238535Y239510D01*
X240110Y239510D01*
X240898Y239510D01*
X241685Y240294D01*
X241685Y241078D01*
X240898Y241862D01*
X240110Y241862D01*
X239323Y241078D01*
X239323Y240294D01*
X240110Y239510D01*
X229339Y225148D02*
X229339Y226716D01*
X228551Y227500D01*
X226189Y227500D01*
X225402Y226716D01*
X225402Y225148D01*
X225402Y225540D02*
X229339Y225540D01*
X229339Y228675D02*
X229339Y230243D01*
X228551Y231027D01*
X226189Y231027D01*
X225402Y230243D01*
X225402Y228675D01*
X225402Y229067D02*
X229339Y229067D01*
X225795Y232595D02*
X225402Y232987D01*
X225402Y233771D01*
X226189Y234555D01*
X226976Y234555D01*
X227370Y234163D01*
X227764Y234555D01*
X228551Y234555D01*
X229339Y233771D01*
X229339Y232987D01*
X228945Y232595D01*
X227370Y232987D02*
X227370Y234163D01*
G54D15*
X219508Y267677D02*
G75*
D01*
G02X219508Y267677I492J0*
G01*
X42394Y77386D02*
G75*
D01*
G02X42394Y77386I492J0*
G01*
X233335Y54547D02*
G75*
D01*
G02X233335Y54547I492J0*
G01*
X215193Y54043D02*
G75*
D01*
G02X215193Y54043I492J0*
G01*
X121512Y77386D02*
G75*
D01*
G02X121512Y77386I492J0*
G01*
X142425Y106866D02*
G75*
D01*
G02X142425Y106866I492J0*
G01*
X160819Y77386D02*
G75*
D01*
G02X160819Y77386I492J0*
G01*
X63307Y107118D02*
G75*
D01*
G02X63307Y107118I492J0*
G01*
X23748Y108126D02*
G75*
D01*
G02X23748Y108126I492J0*
G01*
X1185Y86512D02*
G75*
D01*
G02X1185Y86512I492J0*
G01*
X81752Y77386D02*
G75*
D01*
G02X81752Y77386I492J0*
G01*
X102866Y106866D02*
G75*
D01*
G02X102866Y106866I492J0*
G01*
X77374Y138835D02*
G75*
D01*
G02X77374Y138835I492J0*
G01*
X16780Y267791D02*
G75*
D01*
G02X16780Y267791I492J0*
G01*
X35929Y267791D02*
G75*
D01*
G02X35929Y267791I492J0*
G01*
X55079Y267791D02*
G75*
D01*
G02X55079Y267791I492J0*
G01*
X74228Y267791D02*
G75*
D01*
G02X74228Y267791I492J0*
G01*
X201594Y225764D02*
G75*
D01*
G02X201594Y225764I493J0*
G01*
G54D16*
G36*
X63169Y233636D02*
X63169Y233636D01*
X62644Y237113D01*
X62644Y233636D01*
X63169Y233636D01*
D02*
G37*
X62644Y237113D01*
X62644Y233636D01*
X63169Y233636D01*
G36*
X62644Y237113D02*
X62644Y237113D01*
X63169Y233636D01*
X63169Y237113D01*
X62644Y237113D01*
D02*
G37*
X63169Y233636D01*
X63169Y237113D01*
X62644Y237113D01*
G36*
X63169Y237113D02*
X63169Y237113D01*
X64474Y237582D01*
X62644Y237113D01*
X63169Y237113D01*
D02*
G37*
X64474Y237582D01*
X62644Y237113D01*
X63169Y237113D01*
G36*
X64474Y237582D02*
X64474Y237582D01*
X63169Y237113D01*
X64474Y237113D01*
X64474Y237582D01*
D02*
G37*
X63169Y237113D01*
X64474Y237113D01*
X64474Y237582D01*
G36*
X61349Y237582D02*
X61349Y237582D01*
X61349Y237113D01*
X62644Y237113D01*
X61349Y237582D01*
D02*
G37*
X61349Y237113D01*
X62644Y237113D01*
X61349Y237582D01*
G36*
X61349Y237582D01*
X62644Y237113D01*
X64474Y237582D01*
X61349Y237582D01*
D02*
G37*
X62644Y237113D01*
X64474Y237582D01*
X61349Y237582D01*
G36*
X66137Y235714D02*
X66137Y235714D01*
X64622Y233636D01*
X65263Y233636D01*
X66137Y235714D01*
D02*
G37*
X64622Y233636D01*
X65263Y233636D01*
X66137Y235714D01*
G36*
X66137Y235714D01*
X65263Y233636D01*
X66436Y235308D01*
X66137Y235714D01*
D02*
G37*
X65263Y233636D01*
X66436Y235308D01*
X66137Y235714D01*
G36*
X66137Y235714D01*
X66436Y235308D01*
X66431Y236123D01*
X66137Y235714D01*
D02*
G37*
X66436Y235308D01*
X66431Y236123D01*
X66137Y235714D01*
G36*
X66137Y235714D01*
X66431Y236123D01*
X65411Y237582D01*
X66137Y235714D01*
D02*
G37*
X66431Y236123D01*
X65411Y237582D01*
X66137Y235714D01*
G36*
X66137Y235714D01*
X65411Y237582D01*
X64773Y237582D01*
X66137Y235714D01*
D02*
G37*
X65411Y237582D01*
X64773Y237582D01*
X66137Y235714D01*
G36*
X66724Y235714D02*
X66724Y235714D01*
X68094Y237582D01*
X67456Y237582D01*
X66724Y235714D01*
D02*
G37*
X68094Y237582D01*
X67456Y237582D01*
X66724Y235714D01*
G36*
X66724Y235714D01*
X67456Y237582D01*
X66436Y235308D01*
X66724Y235714D01*
D02*
G37*
X67456Y237582D01*
X66436Y235308D01*
X66724Y235714D01*
G36*
X66724Y235714D01*
X66436Y235308D01*
X67604Y233636D01*
X66724Y235714D01*
D02*
G37*
X66436Y235308D01*
X67604Y233636D01*
X66724Y235714D01*
G36*
X66724Y235714D01*
X67604Y233636D01*
X68245Y233636D01*
X66724Y235714D01*
D02*
G37*
X67604Y233636D01*
X68245Y233636D01*
X66724Y235714D01*
G36*
X66431Y236123D02*
X66431Y236123D01*
X66436Y235308D01*
X67456Y237582D01*
X66431Y236123D01*
D02*
G37*
X66436Y235308D01*
X67456Y237582D01*
X66431Y236123D01*
G36*
X54949Y236815D02*
X54949Y236815D01*
X54935Y236100D01*
X54994Y236476D01*
X54949Y236815D01*
D02*
G37*
X54935Y236100D01*
X54994Y236476D01*
X54949Y236815D01*
G36*
X54935Y236100D02*
X54935Y236100D01*
X54949Y236815D01*
X54811Y237119D01*
X54935Y236100D01*
D02*
G37*
X54949Y236815D01*
X54811Y237119D01*
X54935Y236100D01*
G36*
X54811Y237119D02*
X54811Y237119D01*
X54758Y235792D01*
X54935Y236100D01*
X54811Y237119D01*
D02*
G37*
X54758Y235792D01*
X54935Y236100D01*
X54811Y237119D01*
G36*
X54758Y235792D02*
X54758Y235792D01*
X54811Y237119D01*
X54602Y237355D01*
X54758Y235792D01*
D02*
G37*
X54811Y237119D01*
X54602Y237355D01*
X54758Y235792D01*
G36*
X54602Y237355D02*
X54602Y237355D01*
X54477Y235565D01*
X54758Y235792D01*
X54602Y237355D01*
D02*
G37*
X54477Y235565D01*
X54758Y235792D01*
X54602Y237355D01*
G36*
X54477Y235565D02*
X54477Y235565D01*
X54602Y237355D01*
X54456Y236476D01*
X54477Y235565D01*
D02*
G37*
X54602Y237355D01*
X54456Y236476D01*
X54477Y235565D01*
G36*
X54456Y236476D02*
X54456Y236476D01*
X54401Y236155D01*
X54477Y235565D01*
X54456Y236476D01*
D02*
G37*
X54401Y236155D01*
X54477Y235565D01*
X54456Y236476D01*
G36*
X54403Y236770D02*
X54403Y236770D01*
X54456Y236476D01*
X54602Y237355D01*
X54403Y236770D01*
D02*
G37*
X54456Y236476D01*
X54602Y237355D01*
X54403Y236770D01*
G36*
X54403Y236770D01*
X54602Y237355D01*
X54338Y237493D01*
X54403Y236770D01*
D02*
G37*
X54602Y237355D01*
X54338Y237493D01*
X54403Y236770D01*
G36*
X54403Y236770D01*
X54338Y237493D01*
X54005Y237560D01*
X54403Y236770D01*
D02*
G37*
X54338Y237493D01*
X54005Y237560D01*
X54403Y236770D01*
G36*
X54403Y236770D01*
X54005Y237560D01*
X53981Y237106D01*
X54403Y236770D01*
D02*
G37*
X54005Y237560D01*
X53981Y237106D01*
X54403Y236770D01*
G36*
X52365Y233636D02*
X52365Y233636D01*
X51843Y237582D01*
X51843Y233636D01*
X52365Y233636D01*
D02*
G37*
X51843Y237582D01*
X51843Y233636D01*
X52365Y233636D01*
G36*
X51843Y237582D02*
X51843Y237582D01*
X52365Y233636D01*
X52365Y237148D01*
X51843Y237582D01*
D02*
G37*
X52365Y233636D01*
X52365Y237148D01*
X51843Y237582D01*
G36*
X52365Y237148D02*
X52365Y237148D01*
X53590Y237582D01*
X51843Y237582D01*
X52365Y237148D01*
D02*
G37*
X53590Y237582D01*
X51843Y237582D01*
X52365Y237148D01*
G36*
X53590Y237582D02*
X53590Y237582D01*
X52365Y237148D01*
X53611Y237148D01*
X53590Y237582D01*
D02*
G37*
X52365Y237148D01*
X53611Y237148D01*
X53590Y237582D01*
G36*
X53611Y237148D02*
X53611Y237148D01*
X54005Y237560D01*
X53590Y237582D01*
X53611Y237148D01*
D02*
G37*
X54005Y237560D01*
X53590Y237582D01*
X53611Y237148D01*
G36*
X54005Y237560D02*
X54005Y237560D01*
X53611Y237148D01*
X53981Y237106D01*
X54005Y237560D01*
D02*
G37*
X53611Y237148D01*
X53981Y237106D01*
X54005Y237560D01*
G36*
X52365Y235324D02*
X52365Y235324D01*
X52365Y237148D01*
X52365Y235324D01*
D02*
G37*
X52365Y237148D01*
X52365Y235324D01*
G36*
X52365Y235792D02*
X52365Y235792D01*
X52365Y235324D01*
X53331Y235324D01*
X52365Y235792D01*
D02*
G37*
X52365Y235324D01*
X53331Y235324D01*
X52365Y235792D01*
G36*
X53331Y235324D02*
X53331Y235324D01*
X53530Y235792D01*
X52365Y235792D01*
X53331Y235324D01*
D02*
G37*
X53530Y235792D01*
X52365Y235792D01*
X53331Y235324D01*
G36*
X53530Y235792D02*
X53530Y235792D01*
X53331Y235324D01*
X53615Y235279D01*
X53530Y235792D01*
D02*
G37*
X53331Y235324D01*
X53615Y235279D01*
X53530Y235792D01*
G36*
X53615Y235279D02*
X53615Y235279D01*
X53951Y235830D01*
X53530Y235792D01*
X53615Y235279D01*
D02*
G37*
X53951Y235830D01*
X53530Y235792D01*
X53615Y235279D01*
G36*
X53951Y235830D02*
X53951Y235830D01*
X53615Y235279D01*
X53864Y235146D01*
X53951Y235830D01*
D02*
G37*
X53615Y235279D01*
X53864Y235146D01*
X53951Y235830D01*
G36*
X53864Y235146D02*
X53864Y235146D01*
X54063Y234943D01*
X53951Y235830D01*
X53864Y235146D01*
D02*
G37*
X54063Y234943D01*
X53951Y235830D01*
X53864Y235146D01*
G36*
X54237Y235945D02*
X54237Y235945D01*
X53951Y235830D01*
X54109Y235434D01*
X54237Y235945D01*
D02*
G37*
X53951Y235830D01*
X54109Y235434D01*
X54237Y235945D01*
G36*
X54237Y235945D01*
X54109Y235434D01*
X54477Y235565D01*
X54237Y235945D01*
D02*
G37*
X54109Y235434D01*
X54477Y235565D01*
X54237Y235945D01*
G36*
X54237Y235945D01*
X54477Y235565D01*
X54401Y236155D01*
X54237Y235945D01*
D02*
G37*
X54477Y235565D01*
X54401Y236155D01*
X54237Y235945D01*
G36*
X54063Y234943D02*
X54063Y234943D01*
X54109Y235423D01*
X54109Y235434D01*
X54063Y234943D01*
D02*
G37*
X54109Y235423D01*
X54109Y235434D01*
X54063Y234943D01*
G36*
X54109Y235423D02*
X54109Y235423D01*
X54063Y234943D01*
X54195Y234689D01*
X54109Y235423D01*
D02*
G37*
X54063Y234943D01*
X54195Y234689D01*
X54109Y235423D01*
G36*
X54195Y234689D02*
X54195Y234689D01*
X54303Y235329D01*
X54109Y235423D01*
X54195Y234689D01*
D02*
G37*
X54303Y235329D01*
X54109Y235423D01*
X54195Y234689D01*
G36*
X54303Y235329D02*
X54303Y235329D01*
X54195Y234689D01*
X54567Y233636D01*
X54303Y235329D01*
D02*
G37*
X54195Y234689D01*
X54567Y233636D01*
X54303Y235329D01*
G36*
X54567Y233636D02*
X54567Y233636D01*
X54616Y234973D01*
X54303Y235329D01*
X54567Y233636D01*
D02*
G37*
X54616Y234973D01*
X54303Y235329D01*
X54567Y233636D01*
G36*
X54616Y234973D02*
X54616Y234973D01*
X54567Y233636D01*
X55132Y233636D01*
X54616Y234973D01*
D02*
G37*
X54567Y233636D01*
X55132Y233636D01*
X54616Y234973D01*
G36*
X55132Y233636D02*
X55132Y233636D01*
X54736Y234710D01*
X54616Y234973D01*
X55132Y233636D01*
D02*
G37*
X54736Y234710D01*
X54616Y234973D01*
X55132Y233636D01*
G36*
X53951Y235830D02*
X53951Y235830D01*
X54063Y234943D01*
X54109Y235434D01*
X53951Y235830D01*
D02*
G37*
X54063Y234943D01*
X54109Y235434D01*
X53951Y235830D01*
G36*
X52365Y237148D02*
X52365Y237148D01*
X52365Y233636D01*
X52365Y235324D01*
X52365Y237148D01*
D02*
G37*
X52365Y233636D01*
X52365Y235324D01*
X52365Y237148D01*
G36*
X56924Y235714D02*
X56924Y235714D01*
X55409Y233636D01*
X56049Y233636D01*
X56924Y235714D01*
D02*
G37*
X55409Y233636D01*
X56049Y233636D01*
X56924Y235714D01*
G36*
X56924Y235714D01*
X56049Y233636D01*
X57223Y235308D01*
X56924Y235714D01*
D02*
G37*
X56049Y233636D01*
X57223Y235308D01*
X56924Y235714D01*
G36*
X56924Y235714D01*
X57223Y235308D01*
X57218Y236123D01*
X56924Y235714D01*
D02*
G37*
X57223Y235308D01*
X57218Y236123D01*
X56924Y235714D01*
G36*
X56924Y235714D01*
X57218Y236123D01*
X56197Y237582D01*
X56924Y235714D01*
D02*
G37*
X57218Y236123D01*
X56197Y237582D01*
X56924Y235714D01*
G36*
X56924Y235714D01*
X56197Y237582D01*
X55560Y237582D01*
X56924Y235714D01*
D02*
G37*
X56197Y237582D01*
X55560Y237582D01*
X56924Y235714D01*
G36*
X57511Y235714D02*
X57511Y235714D01*
X58881Y237582D01*
X58243Y237582D01*
X57511Y235714D01*
D02*
G37*
X58881Y237582D01*
X58243Y237582D01*
X57511Y235714D01*
G36*
X57511Y235714D01*
X58243Y237582D01*
X57223Y235308D01*
X57511Y235714D01*
D02*
G37*
X58243Y237582D01*
X57223Y235308D01*
X57511Y235714D01*
G36*
X57511Y235714D01*
X57223Y235308D01*
X58391Y233636D01*
X57511Y235714D01*
D02*
G37*
X57223Y235308D01*
X58391Y233636D01*
X57511Y235714D01*
G36*
X57511Y235714D01*
X58391Y233636D01*
X59031Y233636D01*
X57511Y235714D01*
D02*
G37*
X58391Y233636D01*
X59031Y233636D01*
X57511Y235714D01*
G36*
X57218Y236123D02*
X57218Y236123D01*
X57223Y235308D01*
X58243Y237582D01*
X57218Y236123D01*
D02*
G37*
X57223Y235308D01*
X58243Y237582D01*
X57218Y236123D01*
G36*
X41194Y236887D02*
X41194Y236887D01*
X41646Y234277D01*
X41646Y236887D01*
X41194Y236887D01*
D02*
G37*
X41646Y234277D01*
X41646Y236887D01*
X41194Y236887D01*
G36*
X41646Y234277D02*
X41646Y234277D01*
X41194Y236887D01*
X41194Y235808D01*
X41646Y234277D01*
D02*
G37*
X41194Y236887D01*
X41194Y235808D01*
X41646Y234277D01*
G36*
X41194Y235808D02*
X41194Y235808D01*
X41194Y235356D01*
X41646Y234277D01*
X41194Y235808D01*
D02*
G37*
X41194Y235356D01*
X41646Y234277D01*
X41194Y235808D01*
G36*
X41194Y235356D02*
X41194Y235356D01*
X41194Y235808D01*
X40115Y235808D01*
X41194Y235356D01*
D02*
G37*
X41194Y235808D01*
X40115Y235808D01*
X41194Y235356D01*
G36*
X40115Y235808D02*
X40115Y235808D01*
X40115Y235356D01*
X41194Y235356D01*
X40115Y235808D01*
D02*
G37*
X40115Y235356D01*
X41194Y235356D01*
X40115Y235808D01*
G36*
X41646Y235356D02*
X41646Y235356D01*
X42726Y235356D01*
X41646Y235808D01*
X41646Y235356D01*
D02*
G37*
X42726Y235356D01*
X41646Y235808D01*
X41646Y235356D01*
G36*
X41646Y235356D01*
X41646Y236887D01*
X41646Y235356D01*
D02*
G37*
X41646Y236887D01*
X41646Y235356D01*
G36*
X41646Y235356D01*
X41646Y236887D01*
X41646Y234277D01*
X41646Y235356D01*
D02*
G37*
X41646Y236887D01*
X41646Y234277D01*
X41646Y235356D01*
G36*
X41646Y235808D02*
X41646Y235808D01*
X42726Y235356D01*
X42726Y235808D01*
X41646Y235808D01*
D02*
G37*
X42726Y235356D01*
X42726Y235808D01*
X41646Y235808D01*
G36*
X41646Y234277D02*
X41646Y234277D01*
X41194Y235356D01*
X41194Y234277D01*
X41646Y234277D01*
D02*
G37*
X41194Y235356D01*
X41194Y234277D01*
X41646Y234277D01*
G36*
X44004Y237113D02*
X44004Y237113D01*
X45686Y237113D01*
X45686Y237582D01*
X44004Y237113D01*
D02*
G37*
X45686Y237113D01*
X45686Y237582D01*
X44004Y237113D01*
G36*
X44004Y237113D01*
X45686Y237582D01*
X43571Y237582D01*
X44004Y237113D01*
D02*
G37*
X45686Y237582D01*
X43571Y237582D01*
X44004Y237113D01*
G36*
X44004Y237113D01*
X43571Y237582D01*
X43802Y235499D01*
X44004Y237113D01*
D02*
G37*
X43571Y237582D01*
X43802Y235499D01*
X44004Y237113D01*
G36*
X44004Y237113D01*
X43802Y235499D01*
X43918Y236018D01*
X44004Y237113D01*
D02*
G37*
X43802Y235499D01*
X43918Y236018D01*
X44004Y237113D01*
G36*
X45852Y235253D02*
X45852Y235253D01*
X45852Y234685D01*
X45875Y234977D01*
X45852Y235253D01*
D02*
G37*
X45852Y234685D01*
X45875Y234977D01*
X45852Y235253D01*
G36*
X45852Y234685D02*
X45852Y234685D01*
X45852Y235253D01*
X45669Y235718D01*
X45852Y234685D01*
D02*
G37*
X45852Y235253D01*
X45669Y235718D01*
X45852Y234685D01*
G36*
X45669Y235718D02*
X45669Y235718D01*
X45668Y234181D01*
X45852Y234685D01*
X45669Y235718D01*
D02*
G37*
X45668Y234181D01*
X45852Y234685D01*
X45669Y235718D01*
G36*
X45668Y234181D02*
X45668Y234181D01*
X45669Y235718D01*
X45509Y235906D01*
X45668Y234181D01*
D02*
G37*
X45669Y235718D01*
X45509Y235906D01*
X45668Y234181D01*
G36*
X45509Y235906D02*
X45509Y235906D01*
X45507Y233969D01*
X45668Y234181D01*
X45509Y235906D01*
D02*
G37*
X45507Y233969D01*
X45668Y234181D01*
X45509Y235906D01*
G36*
X45507Y233969D02*
X45507Y233969D01*
X45509Y235906D01*
X45350Y234931D01*
X45507Y233969D01*
D02*
G37*
X45509Y235906D01*
X45350Y234931D01*
X45507Y233969D01*
G36*
X45350Y234931D02*
X45350Y234931D01*
X45308Y233794D01*
X45507Y233969D01*
X45350Y234931D01*
D02*
G37*
X45308Y233794D01*
X45507Y233969D01*
X45350Y234931D01*
G36*
X45308Y233794D02*
X45308Y233794D01*
X45350Y234931D01*
X45293Y234555D01*
X45308Y233794D01*
D02*
G37*
X45350Y234931D01*
X45293Y234555D01*
X45308Y233794D01*
G36*
X45293Y234555D02*
X45293Y234555D01*
X45122Y234244D01*
X45308Y233794D01*
X45293Y234555D01*
D02*
G37*
X45122Y234244D01*
X45308Y233794D01*
X45293Y234555D01*
G36*
X44128Y235743D02*
X44128Y235743D01*
X44248Y236196D01*
X43918Y236018D01*
X44128Y235743D01*
D02*
G37*
X44248Y236196D01*
X43918Y236018D01*
X44128Y235743D01*
G36*
X44248Y236196D02*
X44248Y236196D01*
X44128Y235743D01*
X44518Y235824D01*
X44248Y236196D01*
D02*
G37*
X44128Y235743D01*
X44518Y235824D01*
X44248Y236196D01*
G36*
X44518Y235824D02*
X44518Y235824D01*
X44650Y236255D01*
X44248Y236196D01*
X44518Y235824D01*
D02*
G37*
X44650Y236255D01*
X44248Y236196D01*
X44518Y235824D01*
G36*
X44650Y236255D02*
X44650Y236255D01*
X44518Y235824D01*
X44853Y235764D01*
X44650Y236255D01*
D02*
G37*
X44518Y235824D01*
X44853Y235764D01*
X44650Y236255D01*
G36*
X44853Y235764D02*
X44853Y235764D01*
X45111Y236168D01*
X44650Y236255D01*
X44853Y235764D01*
D02*
G37*
X45111Y236168D01*
X44650Y236255D01*
X44853Y235764D01*
G36*
X45111Y236168D02*
X45111Y236168D01*
X44853Y235764D01*
X45118Y235585D01*
X45111Y236168D01*
D02*
G37*
X44853Y235764D01*
X45118Y235585D01*
X45111Y236168D01*
G36*
X45118Y235585D02*
X45118Y235585D01*
X45509Y235906D01*
X45111Y236168D01*
X45118Y235585D01*
D02*
G37*
X45509Y235906D01*
X45111Y236168D01*
X45118Y235585D01*
G36*
X45509Y235906D02*
X45509Y235906D01*
X45118Y235585D01*
X45292Y235302D01*
X45509Y235906D01*
D02*
G37*
X45118Y235585D01*
X45292Y235302D01*
X45509Y235906D01*
G36*
X45292Y235302D02*
X45292Y235302D01*
X45350Y234931D01*
X45509Y235906D01*
X45292Y235302D01*
D02*
G37*
X45350Y234931D01*
X45509Y235906D01*
X45292Y235302D01*
G36*
X44065Y233638D02*
X44065Y233638D01*
X44261Y234011D01*
X44035Y234141D01*
X44065Y233638D01*
D02*
G37*
X44261Y234011D01*
X44035Y234141D01*
X44065Y233638D01*
G36*
X44261Y234011D02*
X44261Y234011D01*
X44065Y233638D01*
X44529Y233569D01*
X44261Y234011D01*
D02*
G37*
X44065Y233638D01*
X44529Y233569D01*
X44261Y234011D01*
G36*
X44529Y233569D02*
X44529Y233569D01*
X44529Y233967D01*
X44261Y234011D01*
X44529Y233569D01*
D02*
G37*
X44529Y233967D01*
X44261Y234011D01*
X44529Y233569D01*
G36*
X44529Y233967D02*
X44529Y233967D01*
X44529Y233569D01*
X44819Y233594D01*
X44529Y233967D01*
D02*
G37*
X44529Y233569D01*
X44819Y233594D01*
X44529Y233967D01*
G36*
X44819Y233594D02*
X44819Y233594D01*
X44860Y234037D01*
X44529Y233967D01*
X44819Y233594D01*
D02*
G37*
X44860Y234037D01*
X44529Y233967D01*
X44819Y233594D01*
G36*
X44860Y234037D02*
X44860Y234037D01*
X44819Y233594D01*
X45308Y233794D01*
X44860Y234037D01*
D02*
G37*
X44819Y233594D01*
X45308Y233794D01*
X44860Y234037D01*
G36*
X45308Y233794D02*
X45308Y233794D01*
X45122Y234244D01*
X44860Y234037D01*
X45308Y233794D01*
D02*
G37*
X45122Y234244D01*
X44860Y234037D01*
X45308Y233794D01*
G36*
X43392Y234191D02*
X43392Y234191D01*
X43786Y234672D01*
X43261Y234672D01*
X43392Y234191D01*
D02*
G37*
X43786Y234672D01*
X43261Y234672D01*
X43392Y234191D01*
G36*
X43786Y234672D02*
X43786Y234672D01*
X43392Y234191D01*
X43673Y233846D01*
X43786Y234672D01*
D02*
G37*
X43392Y234191D01*
X43673Y233846D01*
X43786Y234672D01*
G36*
X43673Y233846D02*
X43673Y233846D01*
X43870Y234361D01*
X43786Y234672D01*
X43673Y233846D01*
D02*
G37*
X43870Y234361D01*
X43786Y234672D01*
X43673Y233846D01*
G36*
X43870Y234361D02*
X43870Y234361D01*
X43673Y233846D01*
X44065Y233638D01*
X43870Y234361D01*
D02*
G37*
X43673Y233846D01*
X44065Y233638D01*
X43870Y234361D01*
G36*
X44065Y233638D02*
X44065Y233638D01*
X44035Y234141D01*
X43870Y234361D01*
X44065Y233638D01*
D02*
G37*
X44035Y234141D01*
X43870Y234361D01*
X44065Y233638D01*
G36*
X44128Y235743D02*
X44128Y235743D01*
X43918Y236018D01*
X43802Y235499D01*
X44128Y235743D01*
D02*
G37*
X43918Y236018D01*
X43802Y235499D01*
X44128Y235743D01*
G36*
X43802Y235499D02*
X43802Y235499D01*
X43571Y237582D01*
X43404Y235499D01*
X43802Y235499D01*
D02*
G37*
X43571Y237582D01*
X43404Y235499D01*
X43802Y235499D01*
G36*
X49177Y237582D02*
X49177Y237582D01*
X48200Y233636D01*
X49734Y237582D01*
X49177Y237582D01*
D02*
G37*
X48200Y233636D01*
X49734Y237582D01*
X49177Y237582D01*
G36*
X48200Y233636D02*
X48200Y233636D01*
X49177Y237582D01*
X47931Y234199D01*
X48200Y233636D01*
D02*
G37*
X49177Y237582D01*
X47931Y234199D01*
X48200Y233636D01*
G36*
X47931Y234199D02*
X47931Y234199D01*
X47662Y233636D01*
X48200Y233636D01*
X47931Y234199D01*
D02*
G37*
X47662Y233636D01*
X48200Y233636D01*
X47931Y234199D01*
G36*
X47662Y233636D02*
X47662Y233636D01*
X47931Y234199D01*
X46685Y237582D01*
X47662Y233636D01*
D02*
G37*
X47931Y234199D01*
X46685Y237582D01*
X47662Y233636D01*
G36*
X46685Y237582D02*
X46685Y237582D01*
X46128Y237582D01*
X47662Y233636D01*
X46685Y237582D01*
D02*
G37*
X46128Y237582D01*
X47662Y233636D01*
X46685Y237582D01*
G36*
X29025Y236354D02*
X29025Y236354D01*
X29037Y237274D01*
X28922Y236695D01*
X29025Y236354D01*
D02*
G37*
X29037Y237274D01*
X28922Y236695D01*
X29025Y236354D01*
G36*
X29037Y237274D02*
X29037Y237274D01*
X29025Y236354D01*
X29566Y236354D01*
X29037Y237274D01*
D02*
G37*
X29025Y236354D01*
X29566Y236354D01*
X29037Y237274D01*
G36*
X29566Y236354D02*
X29566Y236354D01*
X29247Y237087D01*
X29037Y237274D01*
X29566Y236354D01*
D02*
G37*
X29247Y237087D01*
X29037Y237274D01*
X29566Y236354D01*
G36*
X29247Y237087D02*
X29247Y237087D01*
X29566Y236354D01*
X29511Y236628D01*
X29247Y237087D01*
D02*
G37*
X29566Y236354D01*
X29511Y236628D01*
X29247Y237087D01*
G36*
X28785Y237424D02*
X28785Y237424D01*
X28193Y237595D01*
X28318Y237116D01*
X28785Y237424D01*
D02*
G37*
X28193Y237595D01*
X28318Y237116D01*
X28785Y237424D01*
G36*
X28785Y237424D01*
X28318Y237116D01*
X28680Y236953D01*
X28785Y237424D01*
D02*
G37*
X28318Y237116D01*
X28680Y236953D01*
X28785Y237424D01*
G36*
X28785Y237424D01*
X28680Y236953D01*
X28922Y236695D01*
X28785Y237424D01*
D02*
G37*
X28680Y236953D01*
X28922Y236695D01*
X28785Y237424D01*
G36*
X28785Y237424D01*
X28922Y236695D01*
X29037Y237274D01*
X28785Y237424D01*
D02*
G37*
X28922Y236695D01*
X29037Y237274D01*
X28785Y237424D01*
G36*
X27074Y236935D02*
X27074Y236935D01*
X27448Y237582D01*
X26873Y236753D01*
X27074Y236935D01*
D02*
G37*
X27448Y237582D01*
X26873Y236753D01*
X27074Y236935D01*
G36*
X27448Y237582D02*
X27448Y237582D01*
X27074Y236935D01*
X27566Y237144D01*
X27448Y237582D01*
D02*
G37*
X27074Y236935D01*
X27566Y237144D01*
X27448Y237582D01*
G36*
X27566Y237144D02*
X27566Y237144D01*
X27851Y237617D01*
X27448Y237582D01*
X27566Y237144D01*
D02*
G37*
X27851Y237617D01*
X27448Y237582D01*
X27566Y237144D01*
G36*
X27851Y237617D02*
X27851Y237617D01*
X27566Y237144D01*
X27857Y237170D01*
X27851Y237617D01*
D02*
G37*
X27566Y237144D01*
X27857Y237170D01*
X27851Y237617D01*
G36*
X27857Y237170D02*
X27857Y237170D01*
X28193Y237595D01*
X27851Y237617D01*
X27857Y237170D01*
D02*
G37*
X28193Y237595D01*
X27851Y237617D01*
X27857Y237170D01*
G36*
X28193Y237595D02*
X28193Y237595D01*
X27857Y237170D01*
X28318Y237116D01*
X28193Y237595D01*
D02*
G37*
X27857Y237170D01*
X28318Y237116D01*
X28193Y237595D01*
G36*
X26763Y237304D02*
X26763Y237304D01*
X26481Y237061D01*
X26523Y235935D01*
X26763Y237304D01*
D02*
G37*
X26481Y237061D01*
X26523Y235935D01*
X26763Y237304D01*
G36*
X26763Y237304D01*
X26523Y235935D01*
X26710Y236523D01*
X26763Y237304D01*
D02*
G37*
X26523Y235935D01*
X26710Y236523D01*
X26763Y237304D01*
G36*
X26763Y237304D01*
X26710Y236523D01*
X26873Y236753D01*
X26763Y237304D01*
D02*
G37*
X26710Y236523D01*
X26873Y236753D01*
X26763Y237304D01*
G36*
X26763Y237304D01*
X26873Y236753D01*
X27448Y237582D01*
X26763Y237304D01*
D02*
G37*
X26873Y236753D01*
X27448Y237582D01*
X26763Y237304D01*
G36*
X26712Y234632D02*
X26712Y234632D01*
X26773Y233850D01*
X26877Y234402D01*
X26712Y234632D01*
D02*
G37*
X26773Y233850D01*
X26877Y234402D01*
X26712Y234632D01*
G36*
X26773Y233850D02*
X26773Y233850D01*
X26712Y234632D01*
X26524Y235220D01*
X26773Y233850D01*
D02*
G37*
X26712Y234632D01*
X26524Y235220D01*
X26773Y233850D01*
G36*
X26524Y235220D02*
X26524Y235220D01*
X26488Y234094D01*
X26773Y233850D01*
X26524Y235220D01*
D02*
G37*
X26488Y234094D01*
X26773Y233850D01*
X26524Y235220D01*
G36*
X26488Y234094D02*
X26488Y234094D01*
X26524Y235220D01*
X26500Y235577D01*
X26488Y234094D01*
D02*
G37*
X26524Y235220D01*
X26500Y235577D01*
X26488Y234094D01*
G36*
X26500Y235577D02*
X26500Y235577D01*
X26481Y237061D01*
X26488Y234094D01*
X26500Y235577D01*
D02*
G37*
X26481Y237061D01*
X26488Y234094D01*
X26500Y235577D01*
G36*
X26481Y237061D02*
X26481Y237061D01*
X26500Y235577D01*
X26523Y235935D01*
X26481Y237061D01*
D02*
G37*
X26500Y235577D01*
X26523Y235935D01*
X26481Y237061D01*
G36*
X26481Y237061D01*
X26257Y234395D01*
X26488Y234094D01*
X26481Y237061D01*
D02*
G37*
X26257Y234395D01*
X26488Y234094D01*
X26481Y237061D01*
G36*
X26257Y234395D02*
X26257Y234395D01*
X26481Y237061D01*
X26253Y236760D01*
X26257Y234395D01*
D02*
G37*
X26481Y237061D01*
X26253Y236760D01*
X26257Y234395D01*
G36*
X26253Y236760D02*
X26253Y236760D01*
X25992Y235137D01*
X26257Y234395D01*
X26253Y236760D01*
D02*
G37*
X25992Y235137D01*
X26257Y234395D01*
X26253Y236760D01*
G36*
X25992Y235137D02*
X25992Y235137D01*
X26253Y236760D01*
X25992Y236018D01*
X25992Y235137D01*
D02*
G37*
X26253Y236760D01*
X25992Y236018D01*
X25992Y235137D01*
G36*
X25992Y236018D02*
X25992Y236018D01*
X25959Y235577D01*
X25992Y235137D01*
X25992Y236018D01*
D02*
G37*
X25959Y235577D01*
X25992Y235137D01*
X25992Y236018D01*
G36*
X29267Y233604D02*
X29267Y233604D01*
X29635Y233604D01*
X29635Y235617D01*
X29267Y233604D01*
D02*
G37*
X29635Y233604D01*
X29635Y235617D01*
X29267Y233604D01*
G36*
X29267Y233604D01*
X29635Y235617D01*
X29130Y235146D01*
X29267Y233604D01*
D02*
G37*
X29635Y235617D01*
X29130Y235146D01*
X29267Y233604D01*
G36*
X29267Y233604D01*
X29130Y235146D01*
X29130Y234546D01*
X29267Y233604D01*
D02*
G37*
X29130Y235146D01*
X29130Y234546D01*
X29267Y233604D01*
G36*
X29267Y233604D01*
X29130Y234546D01*
X29130Y234018D01*
X29267Y233604D01*
D02*
G37*
X29130Y234546D01*
X29130Y234018D01*
X29267Y233604D01*
G36*
X28088Y235617D02*
X28088Y235617D01*
X28088Y235146D01*
X29130Y235146D01*
X28088Y235617D01*
D02*
G37*
X28088Y235146D01*
X29130Y235146D01*
X28088Y235617D01*
G36*
X28088Y235617D01*
X29130Y235146D01*
X29635Y235617D01*
X28088Y235617D01*
D02*
G37*
X29130Y235146D01*
X29635Y235617D01*
X28088Y235617D01*
G36*
X29130Y234546D02*
X29130Y234546D01*
X28900Y233808D01*
X29130Y234018D01*
X29130Y234546D01*
D02*
G37*
X28900Y233808D01*
X29130Y234018D01*
X29130Y234546D01*
G36*
X28900Y233808D02*
X28900Y233808D01*
X29130Y234546D01*
X28895Y234300D01*
X28900Y233808D01*
D02*
G37*
X29130Y234546D01*
X28895Y234300D01*
X28900Y233808D01*
G36*
X28895Y234300D02*
X28895Y234300D01*
X28269Y233567D01*
X28900Y233808D01*
X28895Y234300D01*
D02*
G37*
X28269Y233567D01*
X28900Y233808D01*
X28895Y234300D01*
G36*
X28269Y233567D02*
X28269Y233567D01*
X28895Y234300D01*
X28261Y234019D01*
X28269Y233567D01*
D02*
G37*
X28895Y234300D01*
X28261Y234019D01*
X28269Y233567D01*
G36*
X28261Y234019D02*
X28261Y234019D01*
X27867Y233537D01*
X28269Y233567D01*
X28261Y234019D01*
D02*
G37*
X27867Y233537D01*
X28269Y233567D01*
X28261Y234019D01*
G36*
X27867Y233537D02*
X27867Y233537D01*
X28261Y234019D01*
X27862Y233983D01*
X27867Y233537D01*
D02*
G37*
X28261Y234019D01*
X27862Y233983D01*
X27867Y233537D01*
G36*
X27862Y233983D02*
X27862Y233983D01*
X27572Y234010D01*
X27867Y233537D01*
X27862Y233983D01*
D02*
G37*
X27572Y234010D01*
X27867Y233537D01*
X27862Y233983D01*
G36*
X27462Y233572D02*
X27462Y233572D01*
X27867Y233537D01*
X27572Y234010D01*
X27462Y233572D01*
D02*
G37*
X27867Y233537D01*
X27572Y234010D01*
X27462Y233572D01*
G36*
X27462Y233572D01*
X27572Y234010D01*
X27080Y234219D01*
X27462Y233572D01*
D02*
G37*
X27572Y234010D01*
X27080Y234219D01*
X27462Y233572D01*
G36*
X27462Y233572D01*
X27080Y234219D01*
X26877Y234402D01*
X27462Y233572D01*
D02*
G37*
X27080Y234219D01*
X26877Y234402D01*
X27462Y233572D01*
G36*
X27462Y233572D01*
X26877Y234402D01*
X26773Y233850D01*
X27462Y233572D01*
D02*
G37*
X26877Y234402D01*
X26773Y233850D01*
X27462Y233572D01*
G36*
X30925Y233604D02*
X30925Y233604D01*
X30429Y237549D01*
X30429Y233604D01*
X30925Y233604D01*
D02*
G37*
X30429Y237549D01*
X30429Y233604D01*
X30925Y233604D01*
G36*
X30429Y237549D02*
X30429Y237549D01*
X30925Y233604D01*
X30925Y236718D01*
X30429Y237549D01*
D02*
G37*
X30925Y233604D01*
X30925Y236718D01*
X30429Y237549D01*
G36*
X30925Y236718D02*
X30925Y236718D01*
X30962Y237549D01*
X30429Y237549D01*
X30925Y236718D01*
D02*
G37*
X30962Y237549D01*
X30429Y237549D01*
X30925Y236718D01*
G36*
X30962Y237549D02*
X30962Y237549D01*
X30925Y236718D01*
X32992Y233604D01*
X30962Y237549D01*
D02*
G37*
X30925Y236718D01*
X32992Y233604D01*
X30962Y237549D01*
G36*
X32992Y233604D02*
X32992Y233604D01*
X33029Y234436D01*
X30962Y237549D01*
X32992Y233604D01*
D02*
G37*
X33029Y234436D01*
X30962Y237549D01*
X32992Y233604D01*
G36*
X33029Y234436D02*
X33029Y234436D01*
X32992Y233604D01*
X33527Y233604D01*
X33029Y234436D01*
D02*
G37*
X32992Y233604D01*
X33527Y233604D01*
X33029Y234436D01*
G36*
X33527Y233604D02*
X33527Y233604D01*
X33029Y237549D01*
X33029Y234436D01*
X33527Y233604D01*
D02*
G37*
X33029Y237549D01*
X33029Y234436D01*
X33527Y233604D01*
G36*
X33029Y237549D02*
X33029Y237549D01*
X33527Y233604D01*
X33527Y237549D01*
X33029Y237549D01*
D02*
G37*
X33527Y233604D01*
X33527Y237549D01*
X33029Y237549D01*
G36*
X37640Y236056D02*
X37640Y236056D01*
X37640Y235131D01*
X37672Y235598D01*
X37640Y236056D01*
D02*
G37*
X37640Y235131D01*
X37672Y235598D01*
X37640Y236056D01*
G36*
X37640Y235131D02*
X37640Y235131D01*
X37640Y236056D01*
X37389Y236787D01*
X37640Y235131D01*
D02*
G37*
X37640Y236056D01*
X37389Y236787D01*
X37640Y235131D01*
G36*
X37389Y236787D02*
X37389Y236787D01*
X37389Y234383D01*
X37640Y235131D01*
X37389Y236787D01*
D02*
G37*
X37389Y234383D01*
X37640Y235131D01*
X37389Y236787D01*
G36*
X37389Y234383D02*
X37389Y234383D01*
X37389Y236787D01*
X37133Y235598D01*
X37389Y234383D01*
D02*
G37*
X37389Y236787D01*
X37133Y235598D01*
X37389Y234383D01*
G36*
X37133Y235598D02*
X37133Y235598D01*
X37055Y234953D01*
X37389Y234383D01*
X37133Y235598D01*
D02*
G37*
X37055Y234953D01*
X37389Y234383D01*
X37133Y235598D01*
G36*
X36823Y236694D02*
X36823Y236694D01*
X36886Y237275D01*
X36633Y236863D01*
X36823Y236694D01*
D02*
G37*
X36886Y237275D01*
X36633Y236863D01*
X36823Y236694D01*
G36*
X36886Y237275D02*
X36886Y237275D01*
X36823Y236694D01*
X37056Y236226D01*
X36886Y237275D01*
D02*
G37*
X36823Y236694D01*
X37056Y236226D01*
X36886Y237275D01*
G36*
X37056Y236226D02*
X37056Y236226D01*
X37389Y236787D01*
X36886Y237275D01*
X37056Y236226D01*
D02*
G37*
X37389Y236787D01*
X36886Y237275D01*
X37056Y236226D01*
G36*
X37389Y236787D02*
X37389Y236787D01*
X37056Y236226D01*
X37133Y235598D01*
X37389Y236787D01*
D02*
G37*
X37056Y236226D01*
X37133Y235598D01*
X37389Y236787D01*
G36*
X35651Y237081D02*
X35651Y237081D01*
X35661Y237549D01*
X34932Y237081D01*
X35651Y237081D01*
D02*
G37*
X35661Y237549D01*
X34932Y237081D01*
X35651Y237081D01*
G36*
X35661Y237549D02*
X35661Y237549D01*
X35651Y237081D01*
X36047Y237057D01*
X35661Y237549D01*
D02*
G37*
X35651Y237081D01*
X36047Y237057D01*
X35661Y237549D01*
G36*
X36047Y237057D02*
X36047Y237057D01*
X36133Y237519D01*
X35661Y237549D01*
X36047Y237057D01*
D02*
G37*
X36133Y237519D01*
X35661Y237549D01*
X36047Y237057D01*
G36*
X36133Y237519D02*
X36133Y237519D01*
X36047Y237057D01*
X36633Y236863D01*
X36133Y237519D01*
D02*
G37*
X36047Y237057D01*
X36633Y236863D01*
X36133Y237519D01*
G36*
X36633Y236863D02*
X36633Y236863D01*
X36886Y237275D01*
X36133Y237519D01*
X36633Y236863D01*
D02*
G37*
X36886Y237275D01*
X36133Y237519D01*
X36633Y236863D01*
G36*
X34932Y234072D02*
X34932Y234072D01*
X34932Y237081D01*
X34410Y237549D01*
X34932Y234072D01*
D02*
G37*
X34932Y237081D01*
X34410Y237549D01*
X34932Y234072D01*
G36*
X34932Y234072D01*
X34410Y237549D01*
X34410Y233604D01*
X34932Y234072D01*
D02*
G37*
X34410Y237549D01*
X34410Y233604D01*
X34932Y234072D01*
G36*
X34932Y234072D01*
X34410Y233604D01*
X35661Y233604D01*
X34932Y234072D01*
D02*
G37*
X34410Y233604D01*
X35661Y233604D01*
X34932Y234072D01*
G36*
X34932Y234072D01*
X35661Y233604D01*
X35651Y234072D01*
X34932Y234072D01*
D02*
G37*
X35661Y233604D01*
X35651Y234072D01*
X34932Y234072D01*
G36*
X36886Y233884D02*
X36886Y233884D01*
X37389Y234383D01*
X37055Y234953D01*
X36886Y233884D01*
D02*
G37*
X37389Y234383D01*
X37055Y234953D01*
X36886Y233884D01*
G36*
X36886Y233884D01*
X37055Y234953D01*
X36821Y234472D01*
X36886Y233884D01*
D02*
G37*
X37055Y234953D01*
X36821Y234472D01*
X36886Y233884D01*
G36*
X36886Y233884D01*
X36821Y234472D01*
X36631Y234297D01*
X36886Y233884D01*
D02*
G37*
X36821Y234472D01*
X36631Y234297D01*
X36886Y233884D01*
G36*
X36886Y233884D01*
X36631Y234297D01*
X36133Y233635D01*
X36886Y233884D01*
D02*
G37*
X36631Y234297D01*
X36133Y233635D01*
X36886Y233884D01*
G36*
X36046Y234097D02*
X36046Y234097D01*
X35651Y234072D01*
X35661Y233604D01*
X36046Y234097D01*
D02*
G37*
X35651Y234072D01*
X35661Y233604D01*
X36046Y234097D01*
G36*
X36046Y234097D01*
X35661Y233604D01*
X36133Y233635D01*
X36046Y234097D01*
D02*
G37*
X35661Y233604D01*
X36133Y233635D01*
X36046Y234097D01*
G36*
X36046Y234097D01*
X36133Y233635D01*
X36631Y234297D01*
X36046Y234097D01*
D02*
G37*
X36133Y233635D01*
X36631Y234297D01*
X36046Y234097D01*
G36*
X34410Y237549D02*
X34410Y237549D01*
X34932Y237081D01*
X35661Y237549D01*
X34410Y237549D01*
D02*
G37*
X34932Y237081D01*
X35661Y237549D01*
X34410Y237549D01*
G36*
X75135Y236354D02*
X75135Y236354D01*
X75147Y237274D01*
X75033Y236695D01*
X75135Y236354D01*
D02*
G37*
X75147Y237274D01*
X75033Y236695D01*
X75135Y236354D01*
G36*
X75147Y237274D02*
X75147Y237274D01*
X75135Y236354D01*
X75676Y236354D01*
X75147Y237274D01*
D02*
G37*
X75135Y236354D01*
X75676Y236354D01*
X75147Y237274D01*
G36*
X75676Y236354D02*
X75676Y236354D01*
X75357Y237087D01*
X75147Y237274D01*
X75676Y236354D01*
D02*
G37*
X75357Y237087D01*
X75147Y237274D01*
X75676Y236354D01*
G36*
X75357Y237087D02*
X75357Y237087D01*
X75676Y236354D01*
X75621Y236628D01*
X75357Y237087D01*
D02*
G37*
X75676Y236354D01*
X75621Y236628D01*
X75357Y237087D01*
G36*
X74896Y237424D02*
X74896Y237424D01*
X74303Y237595D01*
X74428Y237116D01*
X74896Y237424D01*
D02*
G37*
X74303Y237595D01*
X74428Y237116D01*
X74896Y237424D01*
G36*
X74896Y237424D01*
X74428Y237116D01*
X74790Y236953D01*
X74896Y237424D01*
D02*
G37*
X74428Y237116D01*
X74790Y236953D01*
X74896Y237424D01*
G36*
X74896Y237424D01*
X74790Y236953D01*
X75033Y236695D01*
X74896Y237424D01*
D02*
G37*
X74790Y236953D01*
X75033Y236695D01*
X74896Y237424D01*
G36*
X74896Y237424D01*
X75033Y236695D01*
X75147Y237274D01*
X74896Y237424D01*
D02*
G37*
X75033Y236695D01*
X75147Y237274D01*
X74896Y237424D01*
G36*
X73184Y236935D02*
X73184Y236935D01*
X73558Y237582D01*
X72983Y236753D01*
X73184Y236935D01*
D02*
G37*
X73558Y237582D01*
X72983Y236753D01*
X73184Y236935D01*
G36*
X73558Y237582D02*
X73558Y237582D01*
X73184Y236935D01*
X73676Y237144D01*
X73558Y237582D01*
D02*
G37*
X73184Y236935D01*
X73676Y237144D01*
X73558Y237582D01*
G36*
X73676Y237144D02*
X73676Y237144D01*
X73961Y237617D01*
X73558Y237582D01*
X73676Y237144D01*
D02*
G37*
X73961Y237617D01*
X73558Y237582D01*
X73676Y237144D01*
G36*
X73961Y237617D02*
X73961Y237617D01*
X73676Y237144D01*
X73967Y237170D01*
X73961Y237617D01*
D02*
G37*
X73676Y237144D01*
X73967Y237170D01*
X73961Y237617D01*
G36*
X73967Y237170D02*
X73967Y237170D01*
X74303Y237595D01*
X73961Y237617D01*
X73967Y237170D01*
D02*
G37*
X74303Y237595D01*
X73961Y237617D01*
X73967Y237170D01*
G36*
X74303Y237595D02*
X74303Y237595D01*
X73967Y237170D01*
X74428Y237116D01*
X74303Y237595D01*
D02*
G37*
X73967Y237170D01*
X74428Y237116D01*
X74303Y237595D01*
G36*
X72873Y237304D02*
X72873Y237304D01*
X72592Y237061D01*
X72634Y235935D01*
X72873Y237304D01*
D02*
G37*
X72592Y237061D01*
X72634Y235935D01*
X72873Y237304D01*
G36*
X72873Y237304D01*
X72634Y235935D01*
X72820Y236523D01*
X72873Y237304D01*
D02*
G37*
X72634Y235935D01*
X72820Y236523D01*
X72873Y237304D01*
G36*
X72873Y237304D01*
X72820Y236523D01*
X72983Y236753D01*
X72873Y237304D01*
D02*
G37*
X72820Y236523D01*
X72983Y236753D01*
X72873Y237304D01*
G36*
X72873Y237304D01*
X72983Y236753D01*
X73558Y237582D01*
X72873Y237304D01*
D02*
G37*
X72983Y236753D01*
X73558Y237582D01*
X72873Y237304D01*
G36*
X72822Y234632D02*
X72822Y234632D01*
X72883Y233850D01*
X72987Y234402D01*
X72822Y234632D01*
D02*
G37*
X72883Y233850D01*
X72987Y234402D01*
X72822Y234632D01*
G36*
X72883Y233850D02*
X72883Y233850D01*
X72822Y234632D01*
X72634Y235220D01*
X72883Y233850D01*
D02*
G37*
X72822Y234632D01*
X72634Y235220D01*
X72883Y233850D01*
G36*
X72634Y235220D02*
X72634Y235220D01*
X72598Y234094D01*
X72883Y233850D01*
X72634Y235220D01*
D02*
G37*
X72598Y234094D01*
X72883Y233850D01*
X72634Y235220D01*
G36*
X72598Y234094D02*
X72598Y234094D01*
X72634Y235220D01*
X72610Y235577D01*
X72598Y234094D01*
D02*
G37*
X72634Y235220D01*
X72610Y235577D01*
X72598Y234094D01*
G36*
X72610Y235577D02*
X72610Y235577D01*
X72592Y237061D01*
X72598Y234094D01*
X72610Y235577D01*
D02*
G37*
X72592Y237061D01*
X72598Y234094D01*
X72610Y235577D01*
G36*
X72592Y237061D02*
X72592Y237061D01*
X72610Y235577D01*
X72634Y235935D01*
X72592Y237061D01*
D02*
G37*
X72610Y235577D01*
X72634Y235935D01*
X72592Y237061D01*
G36*
X72592Y237061D01*
X72367Y234395D01*
X72598Y234094D01*
X72592Y237061D01*
D02*
G37*
X72367Y234395D01*
X72598Y234094D01*
X72592Y237061D01*
G36*
X72367Y234395D02*
X72367Y234395D01*
X72592Y237061D01*
X72363Y236760D01*
X72367Y234395D01*
D02*
G37*
X72592Y237061D01*
X72363Y236760D01*
X72367Y234395D01*
G36*
X72363Y236760D02*
X72363Y236760D01*
X72102Y235137D01*
X72367Y234395D01*
X72363Y236760D01*
D02*
G37*
X72102Y235137D01*
X72367Y234395D01*
X72363Y236760D01*
G36*
X72102Y235137D02*
X72102Y235137D01*
X72363Y236760D01*
X72102Y236018D01*
X72102Y235137D01*
D02*
G37*
X72363Y236760D01*
X72102Y236018D01*
X72102Y235137D01*
G36*
X72102Y236018D02*
X72102Y236018D01*
X72069Y235577D01*
X72102Y235137D01*
X72102Y236018D01*
D02*
G37*
X72069Y235577D01*
X72102Y235137D01*
X72102Y236018D01*
G36*
X75377Y233604D02*
X75377Y233604D01*
X75746Y233604D01*
X75746Y235617D01*
X75377Y233604D01*
D02*
G37*
X75746Y233604D01*
X75746Y235617D01*
X75377Y233604D01*
G36*
X75377Y233604D01*
X75746Y235617D01*
X75240Y235146D01*
X75377Y233604D01*
D02*
G37*
X75746Y235617D01*
X75240Y235146D01*
X75377Y233604D01*
G36*
X75377Y233604D01*
X75240Y235146D01*
X75240Y234546D01*
X75377Y233604D01*
D02*
G37*
X75240Y235146D01*
X75240Y234546D01*
X75377Y233604D01*
G36*
X75377Y233604D01*
X75240Y234546D01*
X75240Y234018D01*
X75377Y233604D01*
D02*
G37*
X75240Y234546D01*
X75240Y234018D01*
X75377Y233604D01*
G36*
X74198Y235617D02*
X74198Y235617D01*
X74198Y235146D01*
X75240Y235146D01*
X74198Y235617D01*
D02*
G37*
X74198Y235146D01*
X75240Y235146D01*
X74198Y235617D01*
G36*
X74198Y235617D01*
X75240Y235146D01*
X75746Y235617D01*
X74198Y235617D01*
D02*
G37*
X75240Y235146D01*
X75746Y235617D01*
X74198Y235617D01*
G36*
X75240Y234546D02*
X75240Y234546D01*
X75010Y233808D01*
X75240Y234018D01*
X75240Y234546D01*
D02*
G37*
X75010Y233808D01*
X75240Y234018D01*
X75240Y234546D01*
G36*
X75010Y233808D02*
X75010Y233808D01*
X75240Y234546D01*
X75005Y234300D01*
X75010Y233808D01*
D02*
G37*
X75240Y234546D01*
X75005Y234300D01*
X75010Y233808D01*
G36*
X75005Y234300D02*
X75005Y234300D01*
X74379Y233567D01*
X75010Y233808D01*
X75005Y234300D01*
D02*
G37*
X74379Y233567D01*
X75010Y233808D01*
X75005Y234300D01*
G36*
X74379Y233567D02*
X74379Y233567D01*
X75005Y234300D01*
X74371Y234019D01*
X74379Y233567D01*
D02*
G37*
X75005Y234300D01*
X74371Y234019D01*
X74379Y233567D01*
G36*
X74371Y234019D02*
X74371Y234019D01*
X73978Y233537D01*
X74379Y233567D01*
X74371Y234019D01*
D02*
G37*
X73978Y233537D01*
X74379Y233567D01*
X74371Y234019D01*
G36*
X73978Y233537D02*
X73978Y233537D01*
X74371Y234019D01*
X73972Y233983D01*
X73978Y233537D01*
D02*
G37*
X74371Y234019D01*
X73972Y233983D01*
X73978Y233537D01*
G36*
X73972Y233983D02*
X73972Y233983D01*
X73682Y234010D01*
X73978Y233537D01*
X73972Y233983D01*
D02*
G37*
X73682Y234010D01*
X73978Y233537D01*
X73972Y233983D01*
G36*
X73572Y233572D02*
X73572Y233572D01*
X73978Y233537D01*
X73682Y234010D01*
X73572Y233572D01*
D02*
G37*
X73978Y233537D01*
X73682Y234010D01*
X73572Y233572D01*
G36*
X73572Y233572D01*
X73682Y234010D01*
X73190Y234219D01*
X73572Y233572D01*
D02*
G37*
X73682Y234010D01*
X73190Y234219D01*
X73572Y233572D01*
G36*
X73572Y233572D01*
X73190Y234219D01*
X72987Y234402D01*
X73572Y233572D01*
D02*
G37*
X73190Y234219D01*
X72987Y234402D01*
X73572Y233572D01*
G36*
X73572Y233572D01*
X72987Y234402D01*
X72883Y233850D01*
X73572Y233572D01*
D02*
G37*
X72987Y234402D01*
X72883Y233850D01*
X73572Y233572D01*
G36*
X77035Y233604D02*
X77035Y233604D01*
X76540Y237549D01*
X76540Y233604D01*
X77035Y233604D01*
D02*
G37*
X76540Y237549D01*
X76540Y233604D01*
X77035Y233604D01*
G36*
X76540Y237549D02*
X76540Y237549D01*
X77035Y233604D01*
X77035Y236718D01*
X76540Y237549D01*
D02*
G37*
X77035Y233604D01*
X77035Y236718D01*
X76540Y237549D01*
G36*
X77035Y236718D02*
X77035Y236718D01*
X77073Y237549D01*
X76540Y237549D01*
X77035Y236718D01*
D02*
G37*
X77073Y237549D01*
X76540Y237549D01*
X77035Y236718D01*
G36*
X77073Y237549D02*
X77073Y237549D01*
X77035Y236718D01*
X79102Y233604D01*
X77073Y237549D01*
D02*
G37*
X77035Y236718D01*
X79102Y233604D01*
X77073Y237549D01*
G36*
X79102Y233604D02*
X79102Y233604D01*
X79139Y234436D01*
X77073Y237549D01*
X79102Y233604D01*
D02*
G37*
X79139Y234436D01*
X77073Y237549D01*
X79102Y233604D01*
G36*
X79139Y234436D02*
X79139Y234436D01*
X79102Y233604D01*
X79637Y233604D01*
X79139Y234436D01*
D02*
G37*
X79102Y233604D01*
X79637Y233604D01*
X79139Y234436D01*
G36*
X79637Y233604D02*
X79637Y233604D01*
X79139Y237549D01*
X79139Y234436D01*
X79637Y233604D01*
D02*
G37*
X79139Y237549D01*
X79139Y234436D01*
X79637Y233604D01*
G36*
X79139Y237549D02*
X79139Y237549D01*
X79637Y233604D01*
X79637Y237549D01*
X79139Y237549D01*
D02*
G37*
X79637Y233604D01*
X79637Y237549D01*
X79139Y237549D01*
G36*
X83751Y236056D02*
X83751Y236056D01*
X83751Y235131D01*
X83782Y235598D01*
X83751Y236056D01*
D02*
G37*
X83751Y235131D01*
X83782Y235598D01*
X83751Y236056D01*
G36*
X83751Y235131D02*
X83751Y235131D01*
X83751Y236056D01*
X83499Y236787D01*
X83751Y235131D01*
D02*
G37*
X83751Y236056D01*
X83499Y236787D01*
X83751Y235131D01*
G36*
X83499Y236787D02*
X83499Y236787D01*
X83499Y234383D01*
X83751Y235131D01*
X83499Y236787D01*
D02*
G37*
X83499Y234383D01*
X83751Y235131D01*
X83499Y236787D01*
G36*
X83499Y234383D02*
X83499Y234383D01*
X83499Y236787D01*
X83244Y235598D01*
X83499Y234383D01*
D02*
G37*
X83499Y236787D01*
X83244Y235598D01*
X83499Y234383D01*
G36*
X83244Y235598D02*
X83244Y235598D01*
X83166Y234953D01*
X83499Y234383D01*
X83244Y235598D01*
D02*
G37*
X83166Y234953D01*
X83499Y234383D01*
X83244Y235598D01*
G36*
X82933Y236694D02*
X82933Y236694D01*
X82997Y237275D01*
X82743Y236863D01*
X82933Y236694D01*
D02*
G37*
X82997Y237275D01*
X82743Y236863D01*
X82933Y236694D01*
G36*
X82997Y237275D02*
X82997Y237275D01*
X82933Y236694D01*
X83166Y236226D01*
X82997Y237275D01*
D02*
G37*
X82933Y236694D01*
X83166Y236226D01*
X82997Y237275D01*
G36*
X83166Y236226D02*
X83166Y236226D01*
X83499Y236787D01*
X82997Y237275D01*
X83166Y236226D01*
D02*
G37*
X83499Y236787D01*
X82997Y237275D01*
X83166Y236226D01*
G36*
X83499Y236787D02*
X83499Y236787D01*
X83166Y236226D01*
X83244Y235598D01*
X83499Y236787D01*
D02*
G37*
X83166Y236226D01*
X83244Y235598D01*
X83499Y236787D01*
G36*
X81761Y237081D02*
X81761Y237081D01*
X81772Y237549D01*
X81042Y237081D01*
X81761Y237081D01*
D02*
G37*
X81772Y237549D01*
X81042Y237081D01*
X81761Y237081D01*
G36*
X81772Y237549D02*
X81772Y237549D01*
X81761Y237081D01*
X82157Y237057D01*
X81772Y237549D01*
D02*
G37*
X81761Y237081D01*
X82157Y237057D01*
X81772Y237549D01*
G36*
X82157Y237057D02*
X82157Y237057D01*
X82243Y237519D01*
X81772Y237549D01*
X82157Y237057D01*
D02*
G37*
X82243Y237519D01*
X81772Y237549D01*
X82157Y237057D01*
G36*
X82243Y237519D02*
X82243Y237519D01*
X82157Y237057D01*
X82743Y236863D01*
X82243Y237519D01*
D02*
G37*
X82157Y237057D01*
X82743Y236863D01*
X82243Y237519D01*
G36*
X82743Y236863D02*
X82743Y236863D01*
X82997Y237275D01*
X82243Y237519D01*
X82743Y236863D01*
D02*
G37*
X82997Y237275D01*
X82243Y237519D01*
X82743Y236863D01*
G36*
X81042Y234072D02*
X81042Y234072D01*
X81042Y237081D01*
X80520Y237549D01*
X81042Y234072D01*
D02*
G37*
X81042Y237081D01*
X80520Y237549D01*
X81042Y234072D01*
G36*
X81042Y234072D01*
X80520Y237549D01*
X80520Y233604D01*
X81042Y234072D01*
D02*
G37*
X80520Y237549D01*
X80520Y233604D01*
X81042Y234072D01*
G36*
X81042Y234072D01*
X80520Y233604D01*
X81772Y233604D01*
X81042Y234072D01*
D02*
G37*
X80520Y233604D01*
X81772Y233604D01*
X81042Y234072D01*
G36*
X81042Y234072D01*
X81772Y233604D01*
X81761Y234072D01*
X81042Y234072D01*
D02*
G37*
X81772Y233604D01*
X81761Y234072D01*
X81042Y234072D01*
G36*
X82997Y233884D02*
X82997Y233884D01*
X83499Y234383D01*
X83166Y234953D01*
X82997Y233884D01*
D02*
G37*
X83499Y234383D01*
X83166Y234953D01*
X82997Y233884D01*
G36*
X82997Y233884D01*
X83166Y234953D01*
X82932Y234472D01*
X82997Y233884D01*
D02*
G37*
X83166Y234953D01*
X82932Y234472D01*
X82997Y233884D01*
G36*
X82997Y233884D01*
X82932Y234472D01*
X82741Y234297D01*
X82997Y233884D01*
D02*
G37*
X82932Y234472D01*
X82741Y234297D01*
X82997Y233884D01*
G36*
X82997Y233884D01*
X82741Y234297D01*
X82243Y233635D01*
X82997Y233884D01*
D02*
G37*
X82741Y234297D01*
X82243Y233635D01*
X82997Y233884D01*
G36*
X82156Y234097D02*
X82156Y234097D01*
X81761Y234072D01*
X81772Y233604D01*
X82156Y234097D01*
D02*
G37*
X81761Y234072D01*
X81772Y233604D01*
X82156Y234097D01*
G36*
X82156Y234097D01*
X81772Y233604D01*
X82243Y233635D01*
X82156Y234097D01*
D02*
G37*
X81772Y233604D01*
X82243Y233635D01*
X82156Y234097D01*
G36*
X82156Y234097D01*
X82243Y233635D01*
X82741Y234297D01*
X82156Y234097D01*
D02*
G37*
X82243Y233635D01*
X82741Y234297D01*
X82156Y234097D01*
G36*
X80520Y237549D02*
X80520Y237549D01*
X81042Y237081D01*
X81772Y237549D01*
X80520Y237549D01*
D02*
G37*
X81042Y237081D01*
X81772Y237549D01*
X80520Y237549D01*
G36*
X85987Y219871D02*
X85987Y219871D01*
X86017Y220786D01*
X85890Y220207D01*
X85987Y219871D01*
D02*
G37*
X86017Y220786D01*
X85890Y220207D01*
X85987Y219871D01*
G36*
X86017Y220786D02*
X86017Y220786D01*
X85987Y219871D01*
X86526Y219871D01*
X86017Y220786D01*
D02*
G37*
X85987Y219871D01*
X86526Y219871D01*
X86017Y220786D01*
G36*
X86526Y219871D02*
X86526Y219871D01*
X86218Y220599D01*
X86017Y220786D01*
X86526Y219871D01*
D02*
G37*
X86218Y220599D01*
X86017Y220786D01*
X86526Y219871D01*
G36*
X86218Y220599D02*
X86218Y220599D01*
X86526Y219871D01*
X86473Y220141D01*
X86218Y220599D01*
D02*
G37*
X86526Y219871D01*
X86473Y220141D01*
X86218Y220599D01*
G36*
X85333Y220631D02*
X85333Y220631D01*
X85517Y221046D01*
X84927Y220686D01*
X85333Y220631D01*
D02*
G37*
X85517Y221046D01*
X84927Y220686D01*
X85333Y220631D01*
G36*
X85517Y221046D02*
X85517Y221046D01*
X85333Y220631D01*
X85663Y220466D01*
X85517Y221046D01*
D02*
G37*
X85333Y220631D01*
X85663Y220466D01*
X85517Y221046D01*
G36*
X85663Y220466D02*
X85663Y220466D01*
X86017Y220786D01*
X85517Y221046D01*
X85663Y220466D01*
D02*
G37*
X86017Y220786D01*
X85517Y221046D01*
X85663Y220466D01*
G36*
X86017Y220786D02*
X86017Y220786D01*
X85663Y220466D01*
X85890Y220207D01*
X86017Y220786D01*
D02*
G37*
X85663Y220466D01*
X85890Y220207D01*
X86017Y220786D01*
G36*
X84168Y220454D02*
X84168Y220454D01*
X84524Y221099D01*
X83977Y220273D01*
X84168Y220454D01*
D02*
G37*
X84524Y221099D01*
X83977Y220273D01*
X84168Y220454D01*
G36*
X84524Y221099D02*
X84524Y221099D01*
X84168Y220454D01*
X84643Y220661D01*
X84524Y221099D01*
D02*
G37*
X84168Y220454D01*
X84643Y220661D01*
X84524Y221099D01*
G36*
X84643Y220661D02*
X84643Y220661D01*
X84922Y221133D01*
X84524Y221099D01*
X84643Y220661D01*
D02*
G37*
X84922Y221133D01*
X84524Y221099D01*
X84643Y220661D01*
G36*
X84922Y221133D02*
X84922Y221133D01*
X84643Y220661D01*
X84927Y220686D01*
X84922Y221133D01*
D02*
G37*
X84643Y220661D01*
X84927Y220686D01*
X84922Y221133D01*
G36*
X84927Y220686D02*
X84927Y220686D01*
X85517Y221046D01*
X84922Y221133D01*
X84927Y220686D01*
D02*
G37*
X85517Y221046D01*
X84922Y221133D01*
X84927Y220686D01*
G36*
X83856Y220824D02*
X83856Y220824D01*
X83585Y220583D01*
X83649Y219455D01*
X83856Y220824D01*
D02*
G37*
X83585Y220583D01*
X83649Y219455D01*
X83856Y220824D01*
G36*
X83856Y220824D01*
X83649Y219455D01*
X83824Y220045D01*
X83856Y220824D01*
D02*
G37*
X83649Y219455D01*
X83824Y220045D01*
X83856Y220824D01*
G36*
X83856Y220824D01*
X83824Y220045D01*
X83977Y220273D01*
X83856Y220824D01*
D02*
G37*
X83824Y220045D01*
X83977Y220273D01*
X83856Y220824D01*
G36*
X83856Y220824D01*
X83977Y220273D01*
X84524Y221099D01*
X83856Y220824D01*
D02*
G37*
X83977Y220273D01*
X84524Y221099D01*
X83856Y220824D01*
G36*
X83117Y218648D02*
X83117Y218648D01*
X83117Y219538D01*
X83086Y219093D01*
X83117Y218648D01*
D02*
G37*
X83117Y219538D01*
X83086Y219093D01*
X83117Y218648D01*
G36*
X83117Y219538D02*
X83117Y219538D01*
X83117Y218648D01*
X83367Y217903D01*
X83117Y219538D01*
D02*
G37*
X83117Y218648D01*
X83367Y217903D01*
X83117Y219538D01*
G36*
X83367Y217903D02*
X83367Y217903D01*
X83367Y220283D01*
X83117Y219538D01*
X83367Y217903D01*
D02*
G37*
X83367Y220283D01*
X83117Y219538D01*
X83367Y217903D01*
G36*
X83367Y220283D02*
X83367Y220283D01*
X83367Y217903D01*
X83585Y217604D01*
X83367Y220283D01*
D02*
G37*
X83367Y217903D01*
X83585Y217604D01*
X83367Y220283D01*
G36*
X83585Y217604D02*
X83585Y217604D01*
X83585Y220583D01*
X83367Y220283D01*
X83585Y217604D01*
D02*
G37*
X83585Y220583D01*
X83367Y220283D01*
X83585Y217604D01*
G36*
X83585Y220583D02*
X83585Y220583D01*
X83585Y217604D01*
X83627Y219093D01*
X83585Y220583D01*
D02*
G37*
X83585Y217604D01*
X83627Y219093D01*
X83585Y220583D01*
G36*
X83627Y219093D02*
X83627Y219093D01*
X83649Y219455D01*
X83585Y220583D01*
X83627Y219093D01*
D02*
G37*
X83649Y219455D01*
X83585Y220583D01*
X83627Y219093D01*
G36*
X86526Y218372D02*
X86526Y218372D01*
X85987Y218372D01*
X86031Y217398D01*
X86526Y218372D01*
D02*
G37*
X85987Y218372D01*
X86031Y217398D01*
X86526Y218372D01*
G36*
X86526Y218372D01*
X86031Y217398D01*
X86226Y217588D01*
X86526Y218372D01*
D02*
G37*
X86031Y217398D01*
X86226Y217588D01*
X86526Y218372D01*
G36*
X86526Y218372D01*
X86226Y217588D01*
X86474Y218075D01*
X86526Y218372D01*
D02*
G37*
X86226Y217588D01*
X86474Y218075D01*
X86526Y218372D01*
G36*
X85888Y218000D02*
X85888Y218000D01*
X85665Y217726D01*
X85797Y217247D01*
X85888Y218000D01*
D02*
G37*
X85665Y217726D01*
X85797Y217247D01*
X85888Y218000D01*
G36*
X85888Y218000D01*
X85797Y217247D01*
X86031Y217398D01*
X85888Y218000D01*
D02*
G37*
X85797Y217247D01*
X86031Y217398D01*
X85888Y218000D01*
G36*
X85888Y218000D01*
X86031Y217398D01*
X85987Y218372D01*
X85888Y218000D01*
D02*
G37*
X86031Y217398D01*
X85987Y218372D01*
X85888Y218000D01*
G36*
X85335Y217556D02*
X85335Y217556D01*
X84916Y217500D01*
X84922Y217053D01*
X85335Y217556D01*
D02*
G37*
X84916Y217500D01*
X84922Y217053D01*
X85335Y217556D01*
G36*
X85335Y217556D01*
X84922Y217053D01*
X85242Y217075D01*
X85335Y217556D01*
D02*
G37*
X84922Y217053D01*
X85242Y217075D01*
X85335Y217556D01*
G36*
X85335Y217556D01*
X85242Y217075D01*
X85797Y217247D01*
X85335Y217556D01*
D02*
G37*
X85242Y217075D01*
X85797Y217247D01*
X85335Y217556D01*
G36*
X85335Y217556D01*
X85797Y217247D01*
X85665Y217726D01*
X85335Y217556D01*
D02*
G37*
X85797Y217247D01*
X85665Y217726D01*
X85335Y217556D01*
G36*
X84634Y217526D02*
X84634Y217526D01*
X84163Y217733D01*
X84524Y217088D01*
X84634Y217526D01*
D02*
G37*
X84163Y217733D01*
X84524Y217088D01*
X84634Y217526D01*
G36*
X84634Y217526D01*
X84524Y217088D01*
X84922Y217053D01*
X84634Y217526D01*
D02*
G37*
X84524Y217088D01*
X84922Y217053D01*
X84634Y217526D01*
G36*
X84634Y217526D01*
X84922Y217053D01*
X84916Y217500D01*
X84634Y217526D01*
D02*
G37*
X84922Y217053D01*
X84916Y217500D01*
X84634Y217526D01*
G36*
X83974Y217914D02*
X83974Y217914D01*
X83822Y218143D01*
X83856Y217363D01*
X83974Y217914D01*
D02*
G37*
X83822Y218143D01*
X83856Y217363D01*
X83974Y217914D01*
G36*
X83974Y217914D01*
X83856Y217363D01*
X84524Y217088D01*
X83974Y217914D01*
D02*
G37*
X83856Y217363D01*
X84524Y217088D01*
X83974Y217914D01*
G36*
X83974Y217914D01*
X84524Y217088D01*
X84163Y217733D01*
X83974Y217914D01*
D02*
G37*
X84524Y217088D01*
X84163Y217733D01*
X83974Y217914D01*
G36*
X83649Y218733D02*
X83649Y218733D01*
X83627Y219093D01*
X83585Y217604D01*
X83649Y218733D01*
D02*
G37*
X83627Y219093D01*
X83585Y217604D01*
X83649Y218733D01*
G36*
X83649Y218733D01*
X83585Y217604D01*
X83856Y217363D01*
X83649Y218733D01*
D02*
G37*
X83585Y217604D01*
X83856Y217363D01*
X83649Y218733D01*
G36*
X83649Y218733D01*
X83856Y217363D01*
X83822Y218143D01*
X83649Y218733D01*
D02*
G37*
X83856Y217363D01*
X83822Y218143D01*
X83649Y218733D01*
G36*
X87772Y217589D02*
X87772Y217589D01*
X87772Y221066D01*
X87250Y221066D01*
X87772Y217589D01*
D02*
G37*
X87772Y221066D01*
X87250Y221066D01*
X87772Y217589D01*
G36*
X87772Y217589D01*
X87250Y221066D01*
X87250Y217120D01*
X87772Y217589D01*
D02*
G37*
X87250Y221066D01*
X87250Y217120D01*
X87772Y217589D01*
G36*
X87772Y217589D01*
X87250Y217120D01*
X89691Y217120D01*
X87772Y217589D01*
D02*
G37*
X87250Y217120D01*
X89691Y217120D01*
X87772Y217589D01*
G36*
X87772Y217589D01*
X89691Y217120D01*
X89691Y217589D01*
X87772Y217589D01*
D02*
G37*
X89691Y217120D01*
X89691Y217589D01*
X87772Y217589D01*
G36*
X90837Y217120D02*
X90837Y217120D01*
X90837Y221066D01*
X90315Y221066D01*
X90837Y217120D01*
D02*
G37*
X90837Y221066D01*
X90315Y221066D01*
X90837Y217120D01*
G36*
X90837Y221066D02*
X90837Y221066D01*
X90837Y217120D01*
X90837Y218488D01*
X90837Y221066D01*
D02*
G37*
X90837Y217120D01*
X90837Y218488D01*
X90837Y221066D01*
G36*
X90837Y218488D02*
X90837Y218488D01*
X90837Y221066D01*
X90837Y218488D01*
D02*
G37*
X90837Y221066D01*
X90837Y218488D01*
G36*
X90837Y219109D02*
X90837Y219109D01*
X90837Y218488D01*
X91451Y219088D01*
X90837Y219109D01*
D02*
G37*
X90837Y218488D01*
X91451Y219088D01*
X90837Y219109D01*
G36*
X91451Y219088D02*
X91451Y219088D01*
X92762Y221066D01*
X90837Y219109D01*
X91451Y219088D01*
D02*
G37*
X92762Y221066D01*
X90837Y219109D01*
X91451Y219088D01*
G36*
X92762Y221066D02*
X92762Y221066D01*
X91451Y219088D01*
X91814Y219446D01*
X92762Y221066D01*
D02*
G37*
X91451Y219088D01*
X91814Y219446D01*
X92762Y221066D01*
G36*
X91814Y219446D02*
X91814Y219446D01*
X93467Y221066D01*
X92762Y221066D01*
X91814Y219446D01*
D02*
G37*
X93467Y221066D01*
X92762Y221066D01*
X91814Y219446D01*
G36*
X91814Y219446D01*
X91451Y219088D01*
X92850Y217120D01*
X91814Y219446D01*
D02*
G37*
X91451Y219088D01*
X92850Y217120D01*
X91814Y219446D01*
G36*
X91814Y219446D01*
X92850Y217120D01*
X93539Y217120D01*
X91814Y219446D01*
D02*
G37*
X92850Y217120D01*
X93539Y217120D01*
X91814Y219446D01*
G36*
X90837Y217120D02*
X90837Y217120D01*
X90315Y221066D01*
X90315Y217120D01*
X90837Y217120D01*
D02*
G37*
X90315Y221066D01*
X90315Y217120D01*
X90837Y217120D01*
G36*
X99420Y219678D02*
X99420Y219678D01*
X99420Y218753D01*
X99451Y219220D01*
X99420Y219678D01*
D02*
G37*
X99420Y218753D01*
X99451Y219220D01*
X99420Y219678D01*
G36*
X99420Y218753D02*
X99420Y218753D01*
X99420Y219678D01*
X99169Y220409D01*
X99420Y218753D01*
D02*
G37*
X99420Y219678D01*
X99169Y220409D01*
X99420Y218753D01*
G36*
X99169Y220409D02*
X99169Y220409D01*
X99169Y218005D01*
X99420Y218753D01*
X99169Y220409D01*
D02*
G37*
X99169Y218005D01*
X99420Y218753D01*
X99169Y220409D01*
G36*
X99169Y218005D02*
X99169Y218005D01*
X99169Y220409D01*
X98913Y219220D01*
X99169Y218005D01*
D02*
G37*
X99169Y220409D01*
X98913Y219220D01*
X99169Y218005D01*
G36*
X98913Y219220D02*
X98913Y219220D01*
X98835Y218575D01*
X99169Y218005D01*
X98913Y219220D01*
D02*
G37*
X98835Y218575D01*
X99169Y218005D01*
X98913Y219220D01*
G36*
X98602Y220316D02*
X98602Y220316D01*
X98666Y220897D01*
X98412Y220485D01*
X98602Y220316D01*
D02*
G37*
X98666Y220897D01*
X98412Y220485D01*
X98602Y220316D01*
G36*
X98666Y220897D02*
X98666Y220897D01*
X98602Y220316D01*
X98835Y219848D01*
X98666Y220897D01*
D02*
G37*
X98602Y220316D01*
X98835Y219848D01*
X98666Y220897D01*
G36*
X98835Y219848D02*
X98835Y219848D01*
X99169Y220409D01*
X98666Y220897D01*
X98835Y219848D01*
D02*
G37*
X99169Y220409D01*
X98666Y220897D01*
X98835Y219848D01*
G36*
X99169Y220409D02*
X99169Y220409D01*
X98835Y219848D01*
X98913Y219220D01*
X99169Y220409D01*
D02*
G37*
X98835Y219848D01*
X98913Y219220D01*
X99169Y220409D01*
G36*
X97430Y220703D02*
X97430Y220703D01*
X97441Y221171D01*
X96712Y220703D01*
X97430Y220703D01*
D02*
G37*
X97441Y221171D01*
X96712Y220703D01*
X97430Y220703D01*
G36*
X97441Y221171D02*
X97441Y221171D01*
X97430Y220703D01*
X97826Y220679D01*
X97441Y221171D01*
D02*
G37*
X97430Y220703D01*
X97826Y220679D01*
X97441Y221171D01*
G36*
X97826Y220679D02*
X97826Y220679D01*
X97912Y221141D01*
X97441Y221171D01*
X97826Y220679D01*
D02*
G37*
X97912Y221141D01*
X97441Y221171D01*
X97826Y220679D01*
G36*
X97912Y221141D02*
X97912Y221141D01*
X97826Y220679D01*
X98412Y220485D01*
X97912Y221141D01*
D02*
G37*
X97826Y220679D01*
X98412Y220485D01*
X97912Y221141D01*
G36*
X98412Y220485D02*
X98412Y220485D01*
X98666Y220897D01*
X97912Y221141D01*
X98412Y220485D01*
D02*
G37*
X98666Y220897D01*
X97912Y221141D01*
X98412Y220485D01*
G36*
X96712Y217694D02*
X96712Y217694D01*
X96712Y220703D01*
X96189Y221171D01*
X96712Y217694D01*
D02*
G37*
X96712Y220703D01*
X96189Y221171D01*
X96712Y217694D01*
G36*
X96712Y217694D01*
X96189Y221171D01*
X96189Y217226D01*
X96712Y217694D01*
D02*
G37*
X96189Y221171D01*
X96189Y217226D01*
X96712Y217694D01*
G36*
X96712Y217694D01*
X96189Y217226D01*
X97441Y217226D01*
X96712Y217694D01*
D02*
G37*
X96189Y217226D01*
X97441Y217226D01*
X96712Y217694D01*
G36*
X96712Y217694D01*
X97441Y217226D01*
X97430Y217694D01*
X96712Y217694D01*
D02*
G37*
X97441Y217226D01*
X97430Y217694D01*
X96712Y217694D01*
G36*
X98666Y217506D02*
X98666Y217506D01*
X99169Y218005D01*
X98835Y218575D01*
X98666Y217506D01*
D02*
G37*
X99169Y218005D01*
X98835Y218575D01*
X98666Y217506D01*
G36*
X98666Y217506D01*
X98835Y218575D01*
X98601Y218094D01*
X98666Y217506D01*
D02*
G37*
X98835Y218575D01*
X98601Y218094D01*
X98666Y217506D01*
G36*
X98666Y217506D01*
X98601Y218094D01*
X98411Y217919D01*
X98666Y217506D01*
D02*
G37*
X98601Y218094D01*
X98411Y217919D01*
X98666Y217506D01*
G36*
X98666Y217506D01*
X98411Y217919D01*
X97912Y217257D01*
X98666Y217506D01*
D02*
G37*
X98411Y217919D01*
X97912Y217257D01*
X98666Y217506D01*
G36*
X97825Y217719D02*
X97825Y217719D01*
X97430Y217694D01*
X97441Y217226D01*
X97825Y217719D01*
D02*
G37*
X97430Y217694D01*
X97441Y217226D01*
X97825Y217719D01*
G36*
X97825Y217719D01*
X97441Y217226D01*
X97912Y217257D01*
X97825Y217719D01*
D02*
G37*
X97441Y217226D01*
X97912Y217257D01*
X97825Y217719D01*
G36*
X97825Y217719D01*
X97912Y217257D01*
X98411Y217919D01*
X97825Y217719D01*
D02*
G37*
X97912Y217257D01*
X98411Y217919D01*
X97825Y217719D01*
G36*
X96189Y221171D02*
X96189Y221171D01*
X96712Y220703D01*
X97441Y221171D01*
X96189Y221171D01*
D02*
G37*
X96712Y220703D01*
X97441Y221171D01*
X96189Y221171D01*
G36*
X100759Y217226D02*
X100759Y217226D01*
X100759Y221171D01*
X100234Y221171D01*
X100759Y217226D01*
D02*
G37*
X100759Y221171D01*
X100234Y221171D01*
X100759Y217226D01*
G36*
X100759Y217226D01*
X100234Y221171D01*
X100234Y217226D01*
X100759Y217226D01*
D02*
G37*
X100234Y221171D01*
X100234Y217226D01*
X100759Y217226D01*
G36*
X105261Y219636D02*
X105261Y219636D01*
X105261Y218761D01*
X105294Y219199D01*
X105261Y219636D01*
D02*
G37*
X105261Y218761D01*
X105294Y219199D01*
X105261Y219636D01*
G36*
X105261Y218761D02*
X105261Y218761D01*
X105261Y219636D01*
X104997Y220377D01*
X105261Y218761D01*
D02*
G37*
X105261Y219636D01*
X104997Y220377D01*
X105261Y218761D01*
G36*
X104997Y220377D02*
X104997Y220377D01*
X104997Y218021D01*
X105261Y218761D01*
X104997Y220377D01*
D02*
G37*
X104997Y218021D01*
X105261Y218761D01*
X104997Y220377D01*
G36*
X104997Y218021D02*
X104997Y218021D01*
X104997Y220377D01*
X104767Y220679D01*
X104997Y218021D01*
D02*
G37*
X104997Y220377D01*
X104767Y220679D01*
X104997Y218021D01*
G36*
X104767Y220679D02*
X104767Y220679D01*
X104767Y217719D01*
X104997Y218021D01*
X104767Y220679D01*
D02*
G37*
X104767Y217719D01*
X104997Y218021D01*
X104767Y220679D01*
G36*
X104767Y217719D02*
X104767Y217719D01*
X104767Y220679D01*
X104753Y219199D01*
X104767Y217719D01*
D02*
G37*
X104767Y220679D01*
X104753Y219199D01*
X104767Y217719D01*
G36*
X104753Y219199D02*
X104753Y219199D01*
X104730Y218843D01*
X104767Y217719D01*
X104753Y219199D01*
D02*
G37*
X104730Y218843D01*
X104767Y217719D01*
X104753Y219199D01*
G36*
X104376Y220372D02*
X104376Y220372D01*
X104484Y220924D01*
X104175Y220556D01*
X104376Y220372D01*
D02*
G37*
X104484Y220924D01*
X104175Y220556D01*
X104376Y220372D01*
G36*
X104484Y220924D02*
X104484Y220924D01*
X104376Y220372D01*
X104541Y220141D01*
X104484Y220924D01*
D02*
G37*
X104376Y220372D01*
X104541Y220141D01*
X104484Y220924D01*
G36*
X104541Y220141D02*
X104541Y220141D01*
X104767Y220679D01*
X104484Y220924D01*
X104541Y220141D01*
D02*
G37*
X104767Y220679D01*
X104484Y220924D01*
X104541Y220141D01*
G36*
X104767Y220679D02*
X104767Y220679D01*
X104541Y220141D01*
X104730Y219555D01*
X104767Y220679D01*
D02*
G37*
X104541Y220141D01*
X104730Y219555D01*
X104767Y220679D01*
G36*
X104730Y219555D02*
X104730Y219555D01*
X104753Y219199D01*
X104767Y220679D01*
X104730Y219555D01*
D02*
G37*
X104753Y219199D01*
X104767Y220679D01*
X104730Y219555D01*
G36*
X103806Y221204D02*
X103806Y221204D01*
X103410Y221239D01*
X103416Y220792D01*
X103806Y221204D01*
D02*
G37*
X103410Y221239D01*
X103416Y220792D01*
X103806Y221204D01*
G36*
X103806Y221204D01*
X103416Y220792D01*
X103695Y220766D01*
X103806Y221204D01*
D02*
G37*
X103416Y220792D01*
X103695Y220766D01*
X103806Y221204D01*
G36*
X103806Y221204D01*
X103695Y220766D01*
X104175Y220556D01*
X103806Y221204D01*
D02*
G37*
X103695Y220766D01*
X104175Y220556D01*
X103806Y221204D01*
G36*
X103806Y221204D01*
X104175Y220556D01*
X104484Y220924D01*
X103806Y221204D01*
D02*
G37*
X104175Y220556D01*
X104484Y220924D01*
X103806Y221204D01*
G36*
X102644Y220556D02*
X102644Y220556D01*
X103013Y221204D01*
X102440Y220372D01*
X102644Y220556D01*
D02*
G37*
X103013Y221204D01*
X102440Y220372D01*
X102644Y220556D01*
G36*
X103013Y221204D02*
X103013Y221204D01*
X102644Y220556D01*
X103132Y220766D01*
X103013Y221204D01*
D02*
G37*
X102644Y220556D01*
X103132Y220766D01*
X103013Y221204D01*
G36*
X103132Y220766D02*
X103132Y220766D01*
X103410Y221239D01*
X103013Y221204D01*
X103132Y220766D01*
D02*
G37*
X103410Y221239D01*
X103013Y221204D01*
X103132Y220766D01*
G36*
X103410Y221239D02*
X103410Y221239D01*
X103132Y220766D01*
X103416Y220792D01*
X103410Y221239D01*
D02*
G37*
X103132Y220766D01*
X103416Y220792D01*
X103410Y221239D01*
G36*
X102332Y220924D02*
X102332Y220924D01*
X102048Y220679D01*
X102083Y219555D01*
X102332Y220924D01*
D02*
G37*
X102048Y220679D01*
X102083Y219555D01*
X102332Y220924D01*
G36*
X102332Y220924D01*
X102083Y219555D01*
X102273Y220141D01*
X102332Y220924D01*
D02*
G37*
X102083Y219555D01*
X102273Y220141D01*
X102332Y220924D01*
G36*
X102332Y220924D01*
X102273Y220141D01*
X102440Y220372D01*
X102332Y220924D01*
D02*
G37*
X102273Y220141D01*
X102440Y220372D01*
X102332Y220924D01*
G36*
X102332Y220924D01*
X102440Y220372D01*
X103013Y221204D01*
X102332Y220924D01*
D02*
G37*
X102440Y220372D01*
X103013Y221204D01*
X102332Y220924D01*
G36*
X101551Y218762D02*
X101551Y218762D01*
X101551Y219636D01*
X101518Y219199D01*
X101551Y218762D01*
D02*
G37*
X101551Y219636D01*
X101518Y219199D01*
X101551Y218762D01*
G36*
X101551Y219636D02*
X101551Y219636D01*
X101551Y218762D01*
X101816Y218023D01*
X101551Y219636D01*
D02*
G37*
X101551Y218762D01*
X101816Y218023D01*
X101551Y219636D01*
G36*
X101816Y218023D02*
X101816Y218023D01*
X101816Y220377D01*
X101551Y219636D01*
X101816Y218023D01*
D02*
G37*
X101816Y220377D01*
X101551Y219636D01*
X101816Y218023D01*
G36*
X101816Y220377D02*
X101816Y220377D01*
X101816Y218023D01*
X102048Y217720D01*
X101816Y220377D01*
D02*
G37*
X101816Y218023D01*
X102048Y217720D01*
X101816Y220377D01*
G36*
X102048Y217720D02*
X102048Y217720D01*
X102048Y220679D01*
X101816Y220377D01*
X102048Y217720D01*
D02*
G37*
X102048Y220679D01*
X101816Y220377D01*
X102048Y217720D01*
G36*
X102048Y220679D02*
X102048Y220679D01*
X102048Y217720D01*
X102059Y219199D01*
X102048Y220679D01*
D02*
G37*
X102048Y217720D01*
X102059Y219199D01*
X102048Y220679D01*
G36*
X102059Y219199D02*
X102059Y219199D01*
X102083Y219555D01*
X102048Y220679D01*
X102059Y219199D01*
D02*
G37*
X102083Y219555D01*
X102048Y220679D01*
X102059Y219199D01*
G36*
X104540Y218256D02*
X104540Y218256D01*
X104375Y218025D01*
X104484Y217474D01*
X104540Y218256D01*
D02*
G37*
X104375Y218025D01*
X104484Y217474D01*
X104540Y218256D01*
G36*
X104540Y218256D01*
X104484Y217474D01*
X104767Y217719D01*
X104540Y218256D01*
D02*
G37*
X104484Y217474D01*
X104767Y217719D01*
X104540Y218256D01*
G36*
X104540Y218256D01*
X104767Y217719D01*
X104730Y218843D01*
X104540Y218256D01*
D02*
G37*
X104767Y217719D01*
X104730Y218843D01*
X104540Y218256D01*
G36*
X103410Y217159D02*
X103410Y217159D01*
X103687Y217632D01*
X103405Y217605D01*
X103410Y217159D01*
D02*
G37*
X103687Y217632D01*
X103405Y217605D01*
X103410Y217159D01*
G36*
X103687Y217632D02*
X103687Y217632D01*
X103410Y217159D01*
X103806Y217194D01*
X103687Y217632D01*
D02*
G37*
X103410Y217159D01*
X103806Y217194D01*
X103687Y217632D01*
G36*
X103806Y217194D02*
X103806Y217194D01*
X104173Y217842D01*
X103687Y217632D01*
X103806Y217194D01*
D02*
G37*
X104173Y217842D01*
X103687Y217632D01*
X103806Y217194D01*
G36*
X104173Y217842D02*
X104173Y217842D01*
X103806Y217194D01*
X104484Y217474D01*
X104173Y217842D01*
D02*
G37*
X103806Y217194D01*
X104484Y217474D01*
X104173Y217842D01*
G36*
X104484Y217474D02*
X104484Y217474D01*
X104375Y218025D01*
X104173Y217842D01*
X104484Y217474D01*
D02*
G37*
X104375Y218025D01*
X104173Y217842D01*
X104484Y217474D01*
G36*
X103124Y217632D02*
X103124Y217632D01*
X102641Y217842D01*
X103013Y217194D01*
X103124Y217632D01*
D02*
G37*
X102641Y217842D01*
X103013Y217194D01*
X103124Y217632D01*
G36*
X103124Y217632D01*
X103013Y217194D01*
X103410Y217159D01*
X103124Y217632D01*
D02*
G37*
X103013Y217194D01*
X103410Y217159D01*
X103124Y217632D01*
G36*
X103124Y217632D01*
X103410Y217159D01*
X103405Y217605D01*
X103124Y217632D01*
D02*
G37*
X103410Y217159D01*
X103405Y217605D01*
X103124Y217632D01*
G36*
X102439Y218027D02*
X102439Y218027D01*
X102273Y218258D01*
X102332Y217474D01*
X102439Y218027D01*
D02*
G37*
X102273Y218258D01*
X102332Y217474D01*
X102439Y218027D01*
G36*
X102439Y218027D01*
X102332Y217474D01*
X103013Y217194D01*
X102439Y218027D01*
D02*
G37*
X102332Y217474D01*
X103013Y217194D01*
X102439Y218027D01*
G36*
X102439Y218027D01*
X103013Y217194D01*
X102641Y217842D01*
X102439Y218027D01*
D02*
G37*
X103013Y217194D01*
X102641Y217842D01*
X102439Y218027D01*
G36*
X102083Y218844D02*
X102083Y218844D01*
X102059Y219199D01*
X102048Y217720D01*
X102083Y218844D01*
D02*
G37*
X102059Y219199D01*
X102048Y217720D01*
X102083Y218844D01*
G36*
X102083Y218844D01*
X102048Y217720D01*
X102332Y217474D01*
X102083Y218844D01*
D02*
G37*
X102048Y217720D01*
X102332Y217474D01*
X102083Y218844D01*
G36*
X102083Y218844D01*
X102332Y217474D01*
X102273Y218258D01*
X102083Y218844D01*
D02*
G37*
X102332Y217474D01*
X102273Y218258D01*
X102083Y218844D01*
G36*
X109374Y236783D02*
X109374Y236783D01*
X109360Y236068D01*
X109420Y236443D01*
X109374Y236783D01*
D02*
G37*
X109360Y236068D01*
X109420Y236443D01*
X109374Y236783D01*
G36*
X109360Y236068D02*
X109360Y236068D01*
X109374Y236783D01*
X109237Y237087D01*
X109360Y236068D01*
D02*
G37*
X109374Y236783D01*
X109237Y237087D01*
X109360Y236068D01*
G36*
X109237Y237087D02*
X109237Y237087D01*
X109183Y235760D01*
X109360Y236068D01*
X109237Y237087D01*
D02*
G37*
X109183Y235760D01*
X109360Y236068D01*
X109237Y237087D01*
G36*
X109183Y235760D02*
X109183Y235760D01*
X109237Y237087D01*
X109027Y237323D01*
X109183Y235760D01*
D02*
G37*
X109237Y237087D01*
X109027Y237323D01*
X109183Y235760D01*
G36*
X109027Y237323D02*
X109027Y237323D01*
X108902Y235533D01*
X109183Y235760D01*
X109027Y237323D01*
D02*
G37*
X108902Y235533D01*
X109183Y235760D01*
X109027Y237323D01*
G36*
X108902Y235533D02*
X108902Y235533D01*
X109027Y237323D01*
X108881Y236443D01*
X108902Y235533D01*
D02*
G37*
X109027Y237323D01*
X108881Y236443D01*
X108902Y235533D01*
G36*
X108881Y236443D02*
X108881Y236443D01*
X108827Y236122D01*
X108902Y235533D01*
X108881Y236443D01*
D02*
G37*
X108827Y236122D01*
X108902Y235533D01*
X108881Y236443D01*
G36*
X108829Y236738D02*
X108829Y236738D01*
X108881Y236443D01*
X109027Y237323D01*
X108829Y236738D01*
D02*
G37*
X108881Y236443D01*
X109027Y237323D01*
X108829Y236738D01*
G36*
X108829Y236738D01*
X109027Y237323D01*
X108763Y237461D01*
X108829Y236738D01*
D02*
G37*
X109027Y237323D01*
X108763Y237461D01*
X108829Y236738D01*
G36*
X108829Y236738D01*
X108763Y237461D01*
X108431Y237527D01*
X108829Y236738D01*
D02*
G37*
X108763Y237461D01*
X108431Y237527D01*
X108829Y236738D01*
G36*
X108829Y236738D01*
X108431Y237527D01*
X108406Y237074D01*
X108829Y236738D01*
D02*
G37*
X108431Y237527D01*
X108406Y237074D01*
X108829Y236738D01*
G36*
X106790Y233604D02*
X106790Y233604D01*
X106268Y237549D01*
X106268Y233604D01*
X106790Y233604D01*
D02*
G37*
X106268Y237549D01*
X106268Y233604D01*
X106790Y233604D01*
G36*
X106268Y237549D02*
X106268Y237549D01*
X106790Y233604D01*
X106790Y237116D01*
X106268Y237549D01*
D02*
G37*
X106790Y233604D01*
X106790Y237116D01*
X106268Y237549D01*
G36*
X106790Y237116D02*
X106790Y237116D01*
X108015Y237549D01*
X106268Y237549D01*
X106790Y237116D01*
D02*
G37*
X108015Y237549D01*
X106268Y237549D01*
X106790Y237116D01*
G36*
X108015Y237549D02*
X108015Y237549D01*
X106790Y237116D01*
X108036Y237116D01*
X108015Y237549D01*
D02*
G37*
X106790Y237116D01*
X108036Y237116D01*
X108015Y237549D01*
G36*
X108036Y237116D02*
X108036Y237116D01*
X108431Y237527D01*
X108015Y237549D01*
X108036Y237116D01*
D02*
G37*
X108431Y237527D01*
X108015Y237549D01*
X108036Y237116D01*
G36*
X108431Y237527D02*
X108431Y237527D01*
X108036Y237116D01*
X108406Y237074D01*
X108431Y237527D01*
D02*
G37*
X108036Y237116D01*
X108406Y237074D01*
X108431Y237527D01*
G36*
X106790Y235291D02*
X106790Y235291D01*
X106790Y237116D01*
X106790Y235291D01*
D02*
G37*
X106790Y237116D01*
X106790Y235291D01*
G36*
X106790Y235760D02*
X106790Y235760D01*
X106790Y235291D01*
X107756Y235291D01*
X106790Y235760D01*
D02*
G37*
X106790Y235291D01*
X107756Y235291D01*
X106790Y235760D01*
G36*
X107756Y235291D02*
X107756Y235291D01*
X107956Y235760D01*
X106790Y235760D01*
X107756Y235291D01*
D02*
G37*
X107956Y235760D01*
X106790Y235760D01*
X107756Y235291D01*
G36*
X107956Y235760D02*
X107956Y235760D01*
X107756Y235291D01*
X108040Y235247D01*
X107956Y235760D01*
D02*
G37*
X107756Y235291D01*
X108040Y235247D01*
X107956Y235760D01*
G36*
X108040Y235247D02*
X108040Y235247D01*
X108376Y235798D01*
X107956Y235760D01*
X108040Y235247D01*
D02*
G37*
X108376Y235798D01*
X107956Y235760D01*
X108040Y235247D01*
G36*
X108376Y235798D02*
X108376Y235798D01*
X108040Y235247D01*
X108289Y235114D01*
X108376Y235798D01*
D02*
G37*
X108040Y235247D01*
X108289Y235114D01*
X108376Y235798D01*
G36*
X108289Y235114D02*
X108289Y235114D01*
X108488Y234911D01*
X108376Y235798D01*
X108289Y235114D01*
D02*
G37*
X108488Y234911D01*
X108376Y235798D01*
X108289Y235114D01*
G36*
X108662Y235913D02*
X108662Y235913D01*
X108376Y235798D01*
X108534Y235402D01*
X108662Y235913D01*
D02*
G37*
X108376Y235798D01*
X108534Y235402D01*
X108662Y235913D01*
G36*
X108662Y235913D01*
X108534Y235402D01*
X108902Y235533D01*
X108662Y235913D01*
D02*
G37*
X108534Y235402D01*
X108902Y235533D01*
X108662Y235913D01*
G36*
X108662Y235913D01*
X108902Y235533D01*
X108827Y236122D01*
X108662Y235913D01*
D02*
G37*
X108902Y235533D01*
X108827Y236122D01*
X108662Y235913D01*
G36*
X108488Y234911D02*
X108488Y234911D01*
X108534Y235391D01*
X108534Y235402D01*
X108488Y234911D01*
D02*
G37*
X108534Y235391D01*
X108534Y235402D01*
X108488Y234911D01*
G36*
X108534Y235391D02*
X108534Y235391D01*
X108488Y234911D01*
X108620Y234656D01*
X108534Y235391D01*
D02*
G37*
X108488Y234911D01*
X108620Y234656D01*
X108534Y235391D01*
G36*
X108620Y234656D02*
X108620Y234656D01*
X108728Y235297D01*
X108534Y235391D01*
X108620Y234656D01*
D02*
G37*
X108728Y235297D01*
X108534Y235391D01*
X108620Y234656D01*
G36*
X108728Y235297D02*
X108728Y235297D01*
X108620Y234656D01*
X108992Y233604D01*
X108728Y235297D01*
D02*
G37*
X108620Y234656D01*
X108992Y233604D01*
X108728Y235297D01*
G36*
X108992Y233604D02*
X108992Y233604D01*
X109041Y234940D01*
X108728Y235297D01*
X108992Y233604D01*
D02*
G37*
X109041Y234940D01*
X108728Y235297D01*
X108992Y233604D01*
G36*
X109041Y234940D02*
X109041Y234940D01*
X108992Y233604D01*
X109557Y233604D01*
X109041Y234940D01*
D02*
G37*
X108992Y233604D01*
X109557Y233604D01*
X109041Y234940D01*
G36*
X109557Y233604D02*
X109557Y233604D01*
X109161Y234678D01*
X109041Y234940D01*
X109557Y233604D01*
D02*
G37*
X109161Y234678D01*
X109041Y234940D01*
X109557Y233604D01*
G36*
X108376Y235798D02*
X108376Y235798D01*
X108488Y234911D01*
X108534Y235402D01*
X108376Y235798D01*
D02*
G37*
X108488Y234911D01*
X108534Y235402D01*
X108376Y235798D01*
G36*
X106790Y237116D02*
X106790Y237116D01*
X106790Y233604D01*
X106790Y235291D01*
X106790Y237116D01*
D02*
G37*
X106790Y233604D01*
X106790Y235291D01*
X106790Y237116D01*
G36*
X112595Y236433D02*
X112595Y236433D01*
X112671Y237307D01*
X112505Y236746D01*
X112595Y236433D01*
D02*
G37*
X112671Y237307D01*
X112505Y236746D01*
X112595Y236433D01*
G36*
X112671Y237307D02*
X112671Y237307D01*
X112595Y236433D01*
X113104Y236433D01*
X112671Y237307D01*
D02*
G37*
X112595Y236433D01*
X113104Y236433D01*
X112671Y237307D01*
G36*
X113104Y236433D02*
X113104Y236433D01*
X112851Y237136D01*
X112671Y237307D01*
X113104Y236433D01*
D02*
G37*
X112851Y237136D01*
X112671Y237307D01*
X113104Y236433D01*
G36*
X112851Y237136D02*
X112851Y237136D01*
X113104Y236433D01*
X113068Y236699D01*
X112851Y237136D01*
D02*
G37*
X113104Y236433D01*
X113068Y236699D01*
X112851Y237136D01*
G36*
X112197Y237539D02*
X112197Y237539D01*
X111594Y237617D01*
X111616Y237148D01*
X112197Y237539D01*
D02*
G37*
X111594Y237617D01*
X111616Y237148D01*
X112197Y237539D01*
G36*
X112197Y237539D01*
X111616Y237148D01*
X112015Y237104D01*
X112197Y237539D01*
D02*
G37*
X111616Y237148D01*
X112015Y237104D01*
X112197Y237539D01*
G36*
X112197Y237539D01*
X112015Y237104D01*
X112505Y236746D01*
X112197Y237539D01*
D02*
G37*
X112015Y237104D01*
X112505Y236746D01*
X112197Y237539D01*
G36*
X112197Y237539D01*
X112505Y236746D01*
X112671Y237307D01*
X112197Y237539D01*
D02*
G37*
X112505Y236746D01*
X112671Y237307D01*
X112197Y237539D01*
G36*
X110940Y236984D02*
X110940Y236984D01*
X111022Y237540D01*
X110761Y236793D01*
X110940Y236984D01*
D02*
G37*
X111022Y237540D01*
X110761Y236793D01*
X110940Y236984D01*
G36*
X111022Y237540D02*
X111022Y237540D01*
X110940Y236984D01*
X111229Y237107D01*
X111022Y237540D01*
D02*
G37*
X110940Y236984D01*
X111229Y237107D01*
X111022Y237540D01*
G36*
X111229Y237107D02*
X111229Y237107D01*
X111594Y237617D01*
X111022Y237540D01*
X111229Y237107D01*
D02*
G37*
X111594Y237617D01*
X111022Y237540D01*
X111229Y237107D01*
G36*
X111594Y237617D02*
X111594Y237617D01*
X111229Y237107D01*
X111616Y237148D01*
X111594Y237617D01*
D02*
G37*
X111229Y237107D01*
X111616Y237148D01*
X111594Y237617D01*
G36*
X110266Y236141D02*
X110266Y236141D01*
X110408Y237146D01*
X110216Y236753D01*
X110266Y236141D01*
D02*
G37*
X110408Y237146D01*
X110216Y236753D01*
X110266Y236141D01*
G36*
X110408Y237146D02*
X110408Y237146D01*
X110266Y236141D01*
X110487Y235843D01*
X110408Y237146D01*
D02*
G37*
X110266Y236141D01*
X110487Y235843D01*
X110408Y237146D01*
G36*
X110487Y235843D02*
X110487Y235843D01*
X110576Y237310D01*
X110408Y237146D01*
X110487Y235843D01*
D02*
G37*
X110576Y237310D01*
X110408Y237146D01*
X110487Y235843D01*
G36*
X110576Y237310D02*
X110576Y237310D01*
X110487Y235843D01*
X110701Y236548D01*
X110576Y237310D01*
D02*
G37*
X110487Y235843D01*
X110701Y236548D01*
X110576Y237310D01*
G36*
X110701Y236548D02*
X110701Y236548D01*
X110761Y236793D01*
X110576Y237310D01*
X110701Y236548D01*
D02*
G37*
X110761Y236793D01*
X110576Y237310D01*
X110701Y236548D01*
G36*
X112575Y233726D02*
X112575Y233726D01*
X112623Y234401D01*
X112422Y234188D01*
X112575Y233726D01*
D02*
G37*
X112623Y234401D01*
X112422Y234188D01*
X112575Y233726D01*
G36*
X112623Y234401D02*
X112623Y234401D01*
X112575Y233726D01*
X112793Y233873D01*
X112623Y234401D01*
D02*
G37*
X112575Y233726D01*
X112793Y233873D01*
X112623Y234401D01*
G36*
X112793Y233873D02*
X112793Y233873D01*
X112690Y234678D01*
X112623Y234401D01*
X112793Y233873D01*
D02*
G37*
X112690Y234678D01*
X112623Y234401D01*
X112793Y233873D01*
G36*
X112690Y234678D02*
X112690Y234678D01*
X112793Y233873D01*
X112735Y235564D01*
X112690Y234678D01*
D02*
G37*
X112793Y233873D01*
X112735Y235564D01*
X112690Y234678D01*
G36*
X112735Y235564D02*
X112735Y235564D01*
X112620Y234959D01*
X112690Y234678D01*
X112735Y235564D01*
D02*
G37*
X112620Y234959D01*
X112690Y234678D01*
X112735Y235564D01*
G36*
X112620Y234959D02*
X112620Y234959D01*
X112735Y235564D01*
X112447Y235709D01*
X112620Y234959D01*
D02*
G37*
X112735Y235564D01*
X112447Y235709D01*
X112620Y234959D01*
G36*
X112447Y235709D02*
X112447Y235709D01*
X112412Y235151D01*
X112620Y234959D01*
X112447Y235709D01*
D02*
G37*
X112412Y235151D01*
X112620Y234959D01*
X112447Y235709D01*
G36*
X112412Y235151D02*
X112412Y235151D01*
X112447Y235709D01*
X112084Y235822D01*
X112412Y235151D01*
D02*
G37*
X112447Y235709D01*
X112084Y235822D01*
X112412Y235151D01*
G36*
X112084Y235822D02*
X112084Y235822D01*
X112035Y235298D01*
X112412Y235151D01*
X112084Y235822D01*
D02*
G37*
X112035Y235298D01*
X112412Y235151D01*
X112084Y235822D01*
G36*
X112035Y235298D02*
X112035Y235298D01*
X112084Y235822D01*
X111612Y235937D01*
X112035Y235298D01*
D02*
G37*
X112084Y235822D01*
X111612Y235937D01*
X112035Y235298D01*
G36*
X111612Y235937D02*
X111612Y235937D01*
X111458Y235443D01*
X112035Y235298D01*
X111612Y235937D01*
D02*
G37*
X111458Y235443D01*
X112035Y235298D01*
X111612Y235937D01*
G36*
X111458Y235443D02*
X111458Y235443D01*
X111612Y235937D01*
X111169Y236055D01*
X111458Y235443D01*
D02*
G37*
X111612Y235937D01*
X111169Y236055D01*
X111458Y235443D01*
G36*
X111169Y236055D02*
X111169Y236055D01*
X110893Y236177D01*
X111458Y235443D01*
X111169Y236055D01*
D02*
G37*
X110893Y236177D01*
X111458Y235443D01*
X111169Y236055D01*
G36*
X110877Y235615D02*
X110877Y235615D01*
X111458Y235443D01*
X110893Y236177D01*
X110877Y235615D01*
D02*
G37*
X111458Y235443D01*
X110893Y236177D01*
X110877Y235615D01*
G36*
X110877Y235615D01*
X110893Y236177D01*
X110749Y236332D01*
X110877Y235615D01*
D02*
G37*
X110893Y236177D01*
X110749Y236332D01*
X110877Y235615D01*
G36*
X110877Y235615D01*
X110749Y236332D01*
X110701Y236548D01*
X110877Y235615D01*
D02*
G37*
X110749Y236332D01*
X110701Y236548D01*
X110877Y235615D01*
G36*
X110877Y235615D01*
X110701Y236548D01*
X110487Y235843D01*
X110877Y235615D01*
D02*
G37*
X110701Y236548D01*
X110487Y235843D01*
X110877Y235615D01*
G36*
X112970Y234052D02*
X112970Y234052D01*
X112978Y235357D01*
X112793Y233873D01*
X112970Y234052D01*
D02*
G37*
X112978Y235357D01*
X112793Y233873D01*
X112970Y234052D01*
G36*
X112978Y235357D02*
X112978Y235357D01*
X112970Y234052D01*
X113173Y234475D01*
X112978Y235357D01*
D02*
G37*
X112970Y234052D01*
X113173Y234475D01*
X112978Y235357D01*
G36*
X113173Y234475D02*
X113173Y234475D01*
X113143Y235078D01*
X112978Y235357D01*
X113173Y234475D01*
D02*
G37*
X113143Y235078D01*
X112978Y235357D01*
X113173Y234475D01*
G36*
X113143Y235078D02*
X113143Y235078D01*
X113173Y234475D01*
X113198Y234718D01*
X113143Y235078D01*
D02*
G37*
X113173Y234475D01*
X113198Y234718D01*
X113143Y235078D01*
G36*
X112111Y234053D02*
X112111Y234053D01*
X111715Y234008D01*
X111737Y233537D01*
X112111Y234053D01*
D02*
G37*
X111715Y234008D01*
X111737Y233537D01*
X112111Y234053D01*
G36*
X112111Y234053D01*
X111737Y233537D01*
X112047Y233558D01*
X112111Y234053D01*
D02*
G37*
X111737Y233537D01*
X112047Y233558D01*
X112111Y234053D01*
G36*
X112111Y234053D01*
X112047Y233558D01*
X112575Y233726D01*
X112111Y234053D01*
D02*
G37*
X112047Y233558D01*
X112575Y233726D01*
X112111Y234053D01*
G36*
X112111Y234053D01*
X112575Y233726D01*
X112422Y234188D01*
X112111Y234053D01*
D02*
G37*
X112575Y233726D01*
X112422Y234188D01*
X112111Y234053D01*
G36*
X111346Y233560D02*
X111346Y233560D01*
X111737Y233537D01*
X111715Y234008D01*
X111346Y233560D01*
D02*
G37*
X111737Y233537D01*
X111715Y234008D01*
X111346Y233560D01*
G36*
X111346Y233560D01*
X111715Y234008D01*
X111286Y234060D01*
X111346Y233560D01*
D02*
G37*
X111715Y234008D01*
X111286Y234060D01*
X111346Y233560D01*
G36*
X111346Y233560D01*
X111286Y234060D01*
X110925Y234219D01*
X111346Y233560D01*
D02*
G37*
X111286Y234060D01*
X110925Y234219D01*
X111346Y233560D01*
G36*
X111346Y233560D01*
X110925Y234219D01*
X110722Y233747D01*
X111346Y233560D01*
D02*
G37*
X110925Y234219D01*
X110722Y233747D01*
X111346Y233560D01*
G36*
X110489Y233911D02*
X110489Y233911D01*
X110558Y234872D01*
X110307Y234111D01*
X110489Y233911D01*
D02*
G37*
X110558Y234872D01*
X110307Y234111D01*
X110489Y233911D01*
G36*
X110558Y234872D02*
X110558Y234872D01*
X110489Y233911D01*
X110722Y233747D01*
X110558Y234872D01*
D02*
G37*
X110489Y233911D01*
X110722Y233747D01*
X110558Y234872D01*
G36*
X110722Y233747D02*
X110722Y233747D01*
X110670Y234488D01*
X110558Y234872D01*
X110722Y233747D01*
D02*
G37*
X110670Y234488D01*
X110558Y234872D01*
X110722Y233747D01*
G36*
X110670Y234488D02*
X110670Y234488D01*
X110722Y233747D01*
X110925Y234219D01*
X110670Y234488D01*
D02*
G37*
X110722Y233747D01*
X110925Y234219D01*
X110670Y234488D01*
G36*
X110558Y234872D02*
X110558Y234872D01*
X110055Y234872D01*
X110090Y234592D01*
X110558Y234872D01*
D02*
G37*
X110055Y234872D01*
X110090Y234592D01*
X110558Y234872D01*
G36*
X110558Y234872D01*
X110090Y234592D01*
X110307Y234111D01*
X110558Y234872D01*
D02*
G37*
X110090Y234592D01*
X110307Y234111D01*
X110558Y234872D01*
G36*
X112735Y235564D02*
X112735Y235564D01*
X112793Y233873D01*
X112978Y235357D01*
X112735Y235564D01*
D02*
G37*
X112793Y233873D01*
X112978Y235357D01*
X112735Y235564D01*
G36*
X110266Y236141D02*
X110266Y236141D01*
X110216Y236753D01*
X110192Y236524D01*
X110266Y236141D01*
D02*
G37*
X110216Y236753D01*
X110192Y236524D01*
X110266Y236141D01*
G36*
X110576Y237310D02*
X110576Y237310D01*
X110761Y236793D01*
X111022Y237540D01*
X110576Y237310D01*
D02*
G37*
X110761Y236793D01*
X111022Y237540D01*
X110576Y237310D01*
G36*
X115424Y233604D02*
X115424Y233604D01*
X114899Y237081D01*
X114899Y233604D01*
X115424Y233604D01*
D02*
G37*
X114899Y237081D01*
X114899Y233604D01*
X115424Y233604D01*
G36*
X114899Y237081D02*
X114899Y237081D01*
X115424Y233604D01*
X115424Y237081D01*
X114899Y237081D01*
D02*
G37*
X115424Y233604D01*
X115424Y237081D01*
X114899Y237081D01*
G36*
X115424Y237081D02*
X115424Y237081D01*
X116729Y237549D01*
X114899Y237081D01*
X115424Y237081D01*
D02*
G37*
X116729Y237549D01*
X114899Y237081D01*
X115424Y237081D01*
G36*
X116729Y237549D02*
X116729Y237549D01*
X115424Y237081D01*
X116729Y237081D01*
X116729Y237549D01*
D02*
G37*
X115424Y237081D01*
X116729Y237081D01*
X116729Y237549D01*
G36*
X113605Y237549D02*
X113605Y237549D01*
X113605Y237081D01*
X114899Y237081D01*
X113605Y237549D01*
D02*
G37*
X113605Y237081D01*
X114899Y237081D01*
X113605Y237549D01*
G36*
X113605Y237549D01*
X114899Y237081D01*
X116729Y237549D01*
X113605Y237549D01*
D02*
G37*
X114899Y237081D01*
X116729Y237549D01*
X113605Y237549D01*
G54D17*
X206220Y236000D02*
G75*
D01*
G02X206220Y236000I985J0*
G01*
G54D18*
X115806Y178361D03*

M02*
