M48
INCH,LZ
VER,1
FMAT,2
T01C0.03346F1B1S6H2000
T02C0.02756F1B1S6H2000
T03C0.01575F1B1S6H2000
T04C0.03543F1B1S6H2000
T05C0.02559F1B1S6H2000
T06C0.08661F1B1S6H2000
DETECT,ON
ATC,ON
%
T01
X022189Y0015283
X0235669
X0234484Y0208378
X0244484
X0192406
X0202406
X0192406Y0135307
X0202406
X0234484
X0244484
T02
X0171087Y0146898
Y0136898
X0176087Y0141898
T03
X014563Y0307898
X0130844Y0270939
X0124472Y0270866
X0154961Y0310173
X0153449Y0298835
X0235591Y0251213
X0060724Y027263
X0200819Y0266079
X0114646Y0283213
X0230047Y0146898
X0224756Y0219717
X0094992Y0305386
X0081193Y0157287
X0091213Y0157228
X0092976Y0147906
X0043087Y0114142
X0145126Y0242654
X0137071Y0214173
X0128
X015622Y0218457
X008315Y0241386
X0114394Y0196535
X0122457Y0194772
X0069795Y0211402
X0167559Y020863
X0162772Y0216189
X0084661Y0174362
X0100283Y0167811
X0077354Y0165543
X0094236Y0184693
X0168819Y0191244
X0020157Y0109102
X007685Y0131024
X0027969Y0076094
X0127748Y0164535
X0153449Y0075591
X0113638
X0073575Y0075339
X0201071Y0074331
X0113386Y0166551
X0051449Y0098724
X0061228Y007685
X0137827Y0167307
X0184189Y0076094
X0137124Y0183486
X0154961Y0178394
X012674Y0103559
X0097008Y0215181
X0085417Y0217197
X0186709Y0235087
X014715Y0126488
X0152189Y0131528
X000252Y0084157
X0162772Y0062992
X0042583
X0082646Y006274
X0122709Y0062992
X0133543Y0163528
X0137575
X0087181Y0103055
X0147906Y0177134
X0150929Y0179906
X0147906Y0182677
X0101795Y0074583
X0152945Y0186709
X0165039Y0102803
X0155213Y0189984
X0157732Y0192756
X0119685Y0177134
X0091213Y017915
X0138331Y0208378
X0117165Y0313449
X0121449Y0216189
X0120189Y0212913
X0187213Y0252724
X0148661Y0288252
X0219465Y0239118
X0216189
X0224756Y0215937
X0046362Y0114142
X0034268Y0209134
X0036535Y0211906
X0070803Y0196283
X0117417Y0283213
X0232567Y0149417
X011263Y0248189
Y0245165
X0145638Y0230803
X0135307Y0199811
X0132031Y0198551
X0076346Y0185953
X0128756Y0199811
X0054929Y0147654
Y0142614
Y0137575
Y0132535
X0061228Y016252
X0032756Y0169071
X0033764Y0127496
X0076346Y0190236
X0054425Y0152693
X0055685Y0198047
X011011Y0270866
X0080126Y0272882
X0121953Y0248441
X0150677Y0254992
X0045858Y0264063
X0108346Y0259528
X0026709Y0262047
X0055937Y0193008
Y0187969
Y0182929
Y017789
X0013102Y0084157
X0017134Y0102299
X0197795Y0307402
X0141606Y0074079
X0133291Y0177134
X0127748Y016126
X0136567Y0177134
X0129764Y0183433
X0135055Y0191496
X0120945Y0184189
X0149921Y0200315
X0114646Y0184189
X0162268Y0196535
X0071811Y0120441
X0068283
X0175622Y0181921
X0102299Y0210898
X0175622Y0203339
X0100283Y0172094
X0088441Y0210898
X0072819Y0205102
X0235339Y0255496
X0023937Y0091465
X0225512Y0072315
Y0075843
X0119937Y0245165
X0116409
X0136567Y027515
X0140094
X0136567Y0285228
Y0288504
X0153449Y0302362
X0088441Y027137
X0181921Y0084409
X0014362Y0047874
X0165795Y0085165
X0093228Y0108598
X0101543
X0121197
X0131528
X014085
X0151937
X0164535Y0077606
X0006047Y0056189
X0084661Y0077606
X0124976
X0045102Y007811
X0116409Y0190488
X0153197Y020485
X0159244Y0282457
X0160504Y0288252
T04
X012674Y0227276
X013674
X0007087Y0016888
X0017087
X0027087
X0037087
X0047087
X0057087
X0067087
X0077087
X0087087
X0097087
X0117087
X0107087
X0127087
X0137087
X0147087
X0157087
X0167087
X0177087
X0187087
X0197087
X0007087Y0036888
X0017087
X0027087
X0037087
X0047087
X0057087
X0067087
X0077087
X0087087
X0097087
X0107087
X0117087
X0127087
X0137087
X0147087
X0157087
X0167087
X0177087
X0187087
X0197087
X018632Y0309773
X017632
X016632
X018632Y0289773
X017632
X016632
X0086694Y0310003
X0076703
X0066712
X0056721Y0309964
X003674
X0046731
X0026749
X0016758
X0086694Y0290003
X0076703
X0066712
X0056721Y0289964
X0046731
X003674
X0026749
X0016758
X0237316Y0309773
X0227316
X0217316
X0237316Y0289773
X0227316
X0217316
X0034826Y0227276
X0044826
X0054826
X0064826
X0099118
X0089118
X0079118
X0109118
X0013181Y012674
Y013674
X0023181
X0013181Y014674
X0023181
X0013181Y015674
X0023181
X0013181Y016674
X0023181
X0013181Y017674
X0023181
X0013181Y018674
X0023181
X0013181Y019674
X0023181
X0013181Y020674
X0023181
X0013181Y021674
X0023181
Y012674
T05
X0132787Y0151685
X0112787
T06
X0174866Y0245921
X0110614Y0133039
X0202583Y0112378
M30
